<svg width="850" height="320" viewBox="0 0 850 320" fill="none" xmlns="http://www.w3.org/2000/svg">
<circle cx="660.746" cy="412.744" r="353.591" stroke="#E7E7E7"/>
<mask id="mask0_201_3229" style="mask-type:alpha" maskUnits="userSpaceOnUse" x="343" y="99" width="635" height="637">
<ellipse cx="660.745" cy="417.613" rx="318.049" ry="317.075" transform="rotate(90 660.745 417.613)" fill="#C4C4C4"/>
</mask>
<g mask="url(#mask0_201_3229)">
<path d="M912.663 59.9433L259.943 712.661L260.477 713.195L913.197 60.4767L912.663 59.9433Z" fill="url(#paint0_linear_201_3229)"/>
<path d="M905.73 53.0088L253.01 705.727L253.544 706.26L906.264 53.5422L905.73 53.0088Z" fill="url(#paint1_linear_201_3229)"/>
<path d="M898.797 46.0758L246.077 698.794L246.611 699.327L899.331 46.6092L898.797 46.0758Z" fill="url(#paint2_linear_201_3229)"/>
<path d="M891.864 39.1413L239.144 691.859L239.678 692.393L892.398 39.6747L891.864 39.1413Z" fill="url(#paint3_linear_201_3229)"/>
<path d="M884.928 32.2084L232.208 684.926L232.742 685.46L885.462 32.7417L884.928 32.2084Z" fill="url(#paint4_linear_201_3229)"/>
<path d="M877.996 25.2739L225.275 677.992L225.809 678.525L878.529 25.8072L877.996 25.2739Z" fill="url(#paint5_linear_201_3229)"/>
<path d="M871.063 18.3409L218.342 671.059L218.876 671.592L871.596 18.8742L871.063 18.3409Z" fill="url(#paint6_linear_201_3229)"/>
<path d="M864.13 11.4064L211.409 664.124L211.943 664.658L864.663 11.9398L864.13 11.4064Z" fill="url(#paint7_linear_201_3229)"/>
<path d="M857.194 4.4734L204.473 657.191L205.007 657.725L857.727 5.00676L857.194 4.4734Z" fill="url(#paint8_linear_201_3229)"/>
<path d="M850.261 -2.46107L197.54 650.257L198.074 650.79L850.794 -1.92771L850.261 -2.46107Z" fill="url(#paint9_linear_201_3229)"/>
<path d="M773.989 -78.7314L121.269 573.986L121.802 574.52L774.522 -78.1981L773.989 -78.7314Z" fill="url(#paint10_linear_201_3229)"/>
<path d="M767.056 -85.6659L114.336 567.052L114.869 567.585L767.589 -85.1326L767.056 -85.6659Z" fill="url(#paint11_linear_201_3229)"/>
<path d="M760.123 -92.5989L107.403 560.119L107.936 560.652L760.656 -92.0656L760.123 -92.5989Z" fill="url(#paint12_linear_201_3229)"/>
<path d="M753.19 -99.5334L100.47 553.184L101.003 553.718L753.723 -99L753.19 -99.5334Z" fill="url(#paint13_linear_201_3229)"/>
<path d="M746.254 -106.466L93.5336 546.252L94.067 546.785L746.787 -105.933L746.254 -106.466Z" fill="url(#paint14_linear_201_3229)"/>
<path d="M739.321 -113.401L86.6006 539.317L87.134 539.85L739.854 -112.868L739.321 -113.401Z" fill="url(#paint15_linear_201_3229)"/>
<path d="M732.388 -120.334L79.6676 532.384L80.201 532.917L732.921 -119.801L732.388 -120.334Z" fill="url(#paint16_linear_201_3229)"/>
<path d="M725.455 -127.268L72.7346 525.45L73.268 525.983L725.988 -126.735L725.455 -127.268Z" fill="url(#paint17_linear_201_3229)"/>
<path d="M718.519 -134.201L65.7987 518.517L66.332 519.05L719.052 -133.668L718.519 -134.201Z" fill="url(#paint18_linear_201_3229)"/>
<path d="M711.586 -141.136L58.8657 511.582L59.399 512.115L712.119 -140.602L711.586 -141.136Z" fill="url(#paint19_linear_201_3229)"/>
<path d="M982 129.281L329.28 781.999L329.813 782.532L982.533 129.814L982 129.281Z" fill="url(#paint20_linear_201_3229)"/>
<path d="M975.067 122.346L322.347 775.064L322.88 775.597L975.6 122.88L975.067 122.346Z" fill="url(#paint21_linear_201_3229)"/>
<path d="M968.134 115.413L315.414 768.131L315.947 768.664L968.667 115.947L968.134 115.413Z" fill="url(#paint22_linear_201_3229)"/>
<path d="M961.201 108.479L308.481 761.197L309.014 761.73L961.734 109.012L961.201 108.479Z" fill="url(#paint23_linear_201_3229)"/>
<path d="M954.265 101.546L301.545 754.264L302.078 754.797L954.798 102.079L954.265 101.546Z" fill="url(#paint24_linear_201_3229)"/>
<path d="M947.332 94.6112L294.612 747.329L295.145 747.862L947.865 95.1446L947.332 94.6112Z" fill="url(#paint25_linear_201_3229)"/>
<path d="M940.399 87.6782L287.679 740.396L288.212 740.93L940.932 88.2116L940.399 87.6782Z" fill="url(#paint26_linear_201_3229)"/>
<path d="M933.466 80.7438L280.746 733.462L281.279 733.995L933.999 81.2772L933.466 80.7438Z" fill="url(#paint27_linear_201_3229)"/>
<path d="M926.53 73.8108L273.81 726.529L274.343 727.062L927.063 74.3442L926.53 73.8108Z" fill="url(#paint28_linear_201_3229)"/>
<path d="M919.597 66.8768L266.877 719.595L267.41 720.128L920.131 67.4101L919.597 66.8768Z" fill="url(#paint29_linear_201_3229)"/>
<path d="M843.325 -9.3941L190.605 643.324L191.138 643.857L843.859 -8.86073L843.325 -9.3941Z" fill="url(#paint30_linear_201_3229)"/>
<path d="M836.392 -16.3286L183.672 636.389L184.205 636.923L836.926 -15.7952L836.392 -16.3286Z" fill="url(#paint31_linear_201_3229)"/>
<path d="M829.459 -23.2616L176.739 629.456L177.272 629.99L829.993 -22.7282L829.459 -23.2616Z" fill="url(#paint32_linear_201_3229)"/>
<path d="M822.526 -30.196L169.806 622.522L170.339 623.055L823.06 -29.6627L822.526 -30.196Z" fill="url(#paint33_linear_201_3229)"/>
<path d="M815.59 -37.129L162.87 615.589L163.403 616.122L816.124 -36.5957L815.59 -37.129Z" fill="url(#paint34_linear_201_3229)"/>
<path d="M808.657 -44.0635L155.937 608.654L156.47 609.188L809.191 -43.5302L808.657 -44.0635Z" fill="url(#paint35_linear_201_3229)"/>
<path d="M801.724 -50.9965L149.004 601.721L149.537 602.255L802.258 -50.4631L801.724 -50.9965Z" fill="url(#paint36_linear_201_3229)"/>
<path d="M794.791 -57.931L142.071 594.787L142.604 595.32L795.325 -57.3976L794.791 -57.931Z" fill="url(#paint37_linear_201_3229)"/>
<path d="M787.855 -64.864L135.135 587.854L135.669 588.387L788.389 -64.3306L787.855 -64.864Z" fill="url(#paint38_linear_201_3229)"/>
<path d="M780.923 -71.7985L128.203 580.919L128.736 581.453L781.456 -71.2651L780.923 -71.7985Z" fill="url(#paint39_linear_201_3229)"/>
</g>
<defs>
<linearGradient id="paint0_linear_201_3229" x1="471.278" y1="244.707" x2="820.012" y2="514.537" gradientUnits="userSpaceOnUse">
<stop stop-color="#FFF0EE"/>
<stop offset="1" stop-color="#FFF0EE" stop-opacity="0"/>
</linearGradient>
<linearGradient id="paint1_linear_201_3229" x1="471.278" y1="244.707" x2="820.012" y2="514.537" gradientUnits="userSpaceOnUse">
<stop stop-color="#FFF0EE"/>
<stop offset="1" stop-color="#FFF0EE" stop-opacity="0"/>
</linearGradient>
<linearGradient id="paint2_linear_201_3229" x1="471.278" y1="244.707" x2="820.012" y2="514.537" gradientUnits="userSpaceOnUse">
<stop stop-color="#FFF0EE"/>
<stop offset="1" stop-color="#FFF0EE" stop-opacity="0"/>
</linearGradient>
<linearGradient id="paint3_linear_201_3229" x1="471.278" y1="244.707" x2="820.012" y2="514.537" gradientUnits="userSpaceOnUse">
<stop stop-color="#FFF0EE"/>
<stop offset="1" stop-color="#FFF0EE" stop-opacity="0"/>
</linearGradient>
<linearGradient id="paint4_linear_201_3229" x1="471.278" y1="244.707" x2="820.012" y2="514.537" gradientUnits="userSpaceOnUse">
<stop stop-color="#FFF0EE"/>
<stop offset="1" stop-color="#FFF0EE" stop-opacity="0"/>
</linearGradient>
<linearGradient id="paint5_linear_201_3229" x1="471.278" y1="244.707" x2="820.012" y2="514.537" gradientUnits="userSpaceOnUse">
<stop stop-color="#FFF0EE"/>
<stop offset="1" stop-color="#FFF0EE" stop-opacity="0"/>
</linearGradient>
<linearGradient id="paint6_linear_201_3229" x1="471.278" y1="244.707" x2="820.012" y2="514.537" gradientUnits="userSpaceOnUse">
<stop stop-color="#FFF0EE"/>
<stop offset="1" stop-color="#FFF0EE" stop-opacity="0"/>
</linearGradient>
<linearGradient id="paint7_linear_201_3229" x1="471.278" y1="244.707" x2="820.012" y2="514.537" gradientUnits="userSpaceOnUse">
<stop stop-color="#FFF0EE"/>
<stop offset="1" stop-color="#FFF0EE" stop-opacity="0"/>
</linearGradient>
<linearGradient id="paint8_linear_201_3229" x1="471.278" y1="244.707" x2="820.012" y2="514.537" gradientUnits="userSpaceOnUse">
<stop stop-color="#FFF0EE"/>
<stop offset="1" stop-color="#FFF0EE" stop-opacity="0"/>
</linearGradient>
<linearGradient id="paint9_linear_201_3229" x1="471.278" y1="244.707" x2="820.012" y2="514.537" gradientUnits="userSpaceOnUse">
<stop stop-color="#FFF0EE"/>
<stop offset="1" stop-color="#FFF0EE" stop-opacity="0"/>
</linearGradient>
<linearGradient id="paint10_linear_201_3229" x1="471.278" y1="244.707" x2="820.012" y2="514.537" gradientUnits="userSpaceOnUse">
<stop stop-color="#FFF0EE"/>
<stop offset="1" stop-color="#FFF0EE" stop-opacity="0"/>
</linearGradient>
<linearGradient id="paint11_linear_201_3229" x1="471.278" y1="244.707" x2="820.012" y2="514.537" gradientUnits="userSpaceOnUse">
<stop stop-color="#FFF0EE"/>
<stop offset="1" stop-color="#FFF0EE" stop-opacity="0"/>
</linearGradient>
<linearGradient id="paint12_linear_201_3229" x1="471.278" y1="244.707" x2="820.012" y2="514.537" gradientUnits="userSpaceOnUse">
<stop stop-color="#FFF0EE"/>
<stop offset="1" stop-color="#FFF0EE" stop-opacity="0"/>
</linearGradient>
<linearGradient id="paint13_linear_201_3229" x1="471.278" y1="244.707" x2="820.012" y2="514.537" gradientUnits="userSpaceOnUse">
<stop stop-color="#FFF0EE"/>
<stop offset="1" stop-color="#FFF0EE" stop-opacity="0"/>
</linearGradient>
<linearGradient id="paint14_linear_201_3229" x1="471.278" y1="244.707" x2="820.012" y2="514.537" gradientUnits="userSpaceOnUse">
<stop stop-color="#FFF0EE"/>
<stop offset="1" stop-color="#FFF0EE" stop-opacity="0"/>
</linearGradient>
<linearGradient id="paint15_linear_201_3229" x1="471.278" y1="244.707" x2="820.012" y2="514.537" gradientUnits="userSpaceOnUse">
<stop stop-color="#FFF0EE"/>
<stop offset="1" stop-color="#FFF0EE" stop-opacity="0"/>
</linearGradient>
<linearGradient id="paint16_linear_201_3229" x1="471.278" y1="244.707" x2="820.012" y2="514.537" gradientUnits="userSpaceOnUse">
<stop stop-color="#FFF0EE"/>
<stop offset="1" stop-color="#FFF0EE" stop-opacity="0"/>
</linearGradient>
<linearGradient id="paint17_linear_201_3229" x1="471.278" y1="244.707" x2="820.012" y2="514.537" gradientUnits="userSpaceOnUse">
<stop stop-color="#FFF0EE"/>
<stop offset="1" stop-color="#FFF0EE" stop-opacity="0"/>
</linearGradient>
<linearGradient id="paint18_linear_201_3229" x1="471.278" y1="244.707" x2="820.012" y2="514.537" gradientUnits="userSpaceOnUse">
<stop stop-color="#FFF0EE"/>
<stop offset="1" stop-color="#FFF0EE" stop-opacity="0"/>
</linearGradient>
<linearGradient id="paint19_linear_201_3229" x1="471.278" y1="244.707" x2="820.012" y2="514.537" gradientUnits="userSpaceOnUse">
<stop stop-color="#FFF0EE"/>
<stop offset="1" stop-color="#FFF0EE" stop-opacity="0"/>
</linearGradient>
<linearGradient id="paint20_linear_201_3229" x1="471.278" y1="244.707" x2="820.012" y2="514.537" gradientUnits="userSpaceOnUse">
<stop stop-color="#FFF0EE"/>
<stop offset="1" stop-color="#FFF0EE" stop-opacity="0"/>
</linearGradient>
<linearGradient id="paint21_linear_201_3229" x1="471.278" y1="244.707" x2="820.012" y2="514.537" gradientUnits="userSpaceOnUse">
<stop stop-color="#FFF0EE"/>
<stop offset="1" stop-color="#FFF0EE" stop-opacity="0"/>
</linearGradient>
<linearGradient id="paint22_linear_201_3229" x1="471.278" y1="244.707" x2="820.012" y2="514.537" gradientUnits="userSpaceOnUse">
<stop stop-color="#FFF0EE"/>
<stop offset="1" stop-color="#FFF0EE" stop-opacity="0"/>
</linearGradient>
<linearGradient id="paint23_linear_201_3229" x1="471.278" y1="244.707" x2="820.012" y2="514.537" gradientUnits="userSpaceOnUse">
<stop stop-color="#FFF0EE"/>
<stop offset="1" stop-color="#FFF0EE" stop-opacity="0"/>
</linearGradient>
<linearGradient id="paint24_linear_201_3229" x1="471.278" y1="244.707" x2="820.012" y2="514.537" gradientUnits="userSpaceOnUse">
<stop stop-color="#FFF0EE"/>
<stop offset="1" stop-color="#FFF0EE" stop-opacity="0"/>
</linearGradient>
<linearGradient id="paint25_linear_201_3229" x1="471.278" y1="244.707" x2="820.012" y2="514.537" gradientUnits="userSpaceOnUse">
<stop stop-color="#FFF0EE"/>
<stop offset="1" stop-color="#FFF0EE" stop-opacity="0"/>
</linearGradient>
<linearGradient id="paint26_linear_201_3229" x1="471.278" y1="244.707" x2="820.012" y2="514.537" gradientUnits="userSpaceOnUse">
<stop stop-color="#FFF0EE"/>
<stop offset="1" stop-color="#FFF0EE" stop-opacity="0"/>
</linearGradient>
<linearGradient id="paint27_linear_201_3229" x1="471.278" y1="244.707" x2="820.012" y2="514.537" gradientUnits="userSpaceOnUse">
<stop stop-color="#FFF0EE"/>
<stop offset="1" stop-color="#FFF0EE" stop-opacity="0"/>
</linearGradient>
<linearGradient id="paint28_linear_201_3229" x1="471.278" y1="244.707" x2="820.012" y2="514.537" gradientUnits="userSpaceOnUse">
<stop stop-color="#FFF0EE"/>
<stop offset="1" stop-color="#FFF0EE" stop-opacity="0"/>
</linearGradient>
<linearGradient id="paint29_linear_201_3229" x1="471.278" y1="244.707" x2="820.012" y2="514.537" gradientUnits="userSpaceOnUse">
<stop stop-color="#FFF0EE"/>
<stop offset="1" stop-color="#FFF0EE" stop-opacity="0"/>
</linearGradient>
<linearGradient id="paint30_linear_201_3229" x1="471.278" y1="244.707" x2="820.012" y2="514.537" gradientUnits="userSpaceOnUse">
<stop stop-color="#FFF0EE"/>
<stop offset="1" stop-color="#FFF0EE" stop-opacity="0"/>
</linearGradient>
<linearGradient id="paint31_linear_201_3229" x1="471.278" y1="244.707" x2="820.012" y2="514.537" gradientUnits="userSpaceOnUse">
<stop stop-color="#FFF0EE"/>
<stop offset="1" stop-color="#FFF0EE" stop-opacity="0"/>
</linearGradient>
<linearGradient id="paint32_linear_201_3229" x1="471.278" y1="244.707" x2="820.012" y2="514.537" gradientUnits="userSpaceOnUse">
<stop stop-color="#FFF0EE"/>
<stop offset="1" stop-color="#FFF0EE" stop-opacity="0"/>
</linearGradient>
<linearGradient id="paint33_linear_201_3229" x1="471.278" y1="244.707" x2="820.012" y2="514.537" gradientUnits="userSpaceOnUse">
<stop stop-color="#FFF0EE"/>
<stop offset="1" stop-color="#FFF0EE" stop-opacity="0"/>
</linearGradient>
<linearGradient id="paint34_linear_201_3229" x1="471.278" y1="244.707" x2="820.012" y2="514.537" gradientUnits="userSpaceOnUse">
<stop stop-color="#FFF0EE"/>
<stop offset="1" stop-color="#FFF0EE" stop-opacity="0"/>
</linearGradient>
<linearGradient id="paint35_linear_201_3229" x1="471.278" y1="244.707" x2="820.012" y2="514.537" gradientUnits="userSpaceOnUse">
<stop stop-color="#FFF0EE"/>
<stop offset="1" stop-color="#FFF0EE" stop-opacity="0"/>
</linearGradient>
<linearGradient id="paint36_linear_201_3229" x1="471.278" y1="244.707" x2="820.012" y2="514.537" gradientUnits="userSpaceOnUse">
<stop stop-color="#FFF0EE"/>
<stop offset="1" stop-color="#FFF0EE" stop-opacity="0"/>
</linearGradient>
<linearGradient id="paint37_linear_201_3229" x1="471.278" y1="244.707" x2="820.012" y2="514.537" gradientUnits="userSpaceOnUse">
<stop stop-color="#FFF0EE"/>
<stop offset="1" stop-color="#FFF0EE" stop-opacity="0"/>
</linearGradient>
<linearGradient id="paint38_linear_201_3229" x1="471.278" y1="244.707" x2="820.012" y2="514.537" gradientUnits="userSpaceOnUse">
<stop stop-color="#FFF0EE"/>
<stop offset="1" stop-color="#FFF0EE" stop-opacity="0"/>
</linearGradient>
<linearGradient id="paint39_linear_201_3229" x1="471.278" y1="244.707" x2="820.012" y2="514.537" gradientUnits="userSpaceOnUse">
<stop stop-color="#FFF0EE"/>
<stop offset="1" stop-color="#FFF0EE" stop-opacity="0"/>
</linearGradient>
</defs>
</svg>
