<svg width="850" height="320" fill="none" xmlns="http://www.w3.org/2000/svg"><circle cx="660.746" cy="412.744" r="353.591" stroke="#E7E7E7"/><mask id="a" style="mask-type:alpha" maskUnits="userSpaceOnUse" x="343" y="99" width="635" height="637"><ellipse cx="660.745" cy="417.613" rx="318.049" ry="317.075" transform="rotate(90 660.745 417.613)" fill="#C4C4C4"/></mask><g mask="url(#a)"><path d="m912.663 59.943-652.72 652.718.534.534 652.72-652.718-.534-.534Z" fill="url(#b)"/><path d="M905.73 53.009 253.01 705.727l.534.533 652.72-652.718-.534-.533Z" fill="url(#c)"/><path d="m898.797 46.076-652.72 652.718.534.533 652.72-652.718-.534-.533Z" fill="url(#d)"/><path d="M891.864 39.141 239.144 691.86l.534.534 652.72-652.718-.534-.534Z" fill="url(#e)"/><path d="m884.928 32.208-652.72 652.718.534.534 652.72-652.718-.534-.534Z" fill="url(#f)"/><path d="M877.996 25.274 225.275 677.992l.534.533 652.72-652.718-.533-.533Z" fill="url(#g)"/><path d="M871.063 18.34 218.342 671.06l.534.533 652.72-652.718-.533-.533Z" fill="url(#h)"/><path d="M864.13 11.406 211.409 664.124l.534.534L864.663 11.94l-.533-.534Z" fill="url(#i)"/><path d="M857.194 4.473 204.473 657.191l.534.534L857.727 5.007l-.533-.534Z" fill="url(#j)"/><path d="M850.261-2.461 197.54 650.257l.534.533L850.794-1.928l-.533-.533Z" fill="url(#k)"/><path d="m773.989-78.731-652.72 652.717.533.534 652.72-652.718-.533-.533Z" fill="url(#l)"/><path d="m767.056-85.666-652.72 652.718.533.533 652.72-652.718-.533-.533Z" fill="url(#m)"/><path d="M760.123-92.599 107.403 560.12l.533.533 652.72-652.718-.533-.533Z" fill="url(#n)"/><path d="M753.19-99.533 100.47 553.184l.533.534L753.723-99l-.533-.533Z" fill="url(#o)"/><path d="M746.254-106.466 93.534 546.252l.533.533 652.72-652.718-.533-.533Z" fill="url(#p)"/><path d="M739.321-113.401 86.601 539.317l.533.533 652.72-652.718-.533-.533Z" fill="url(#q)"/><path d="M732.388-120.334 79.668 532.384l.533.533 652.72-652.718-.533-.533Z" fill="url(#r)"/><path d="M725.455-127.268 72.735 525.45l.533.533 652.72-652.718-.533-.533Z" fill="url(#s)"/><path d="M718.519-134.201 65.799 518.517l.533.533 652.72-652.718-.533-.533Z" fill="url(#t)"/><path d="M711.586-141.136 58.866 511.582l.533.533 652.72-652.717-.533-.534Z" fill="url(#u)"/><path d="M982 129.281 329.28 781.999l.533.533 652.72-652.718-.533-.533Z" fill="url(#v)"/><path d="m975.067 122.346-652.72 652.718.533.533L975.6 122.88l-.533-.534Z" fill="url(#w)"/><path d="m968.134 115.413-652.72 652.718.533.533 652.72-652.717-.533-.534Z" fill="url(#x)"/><path d="m961.201 108.479-652.72 652.718.533.533 652.72-652.718-.533-.533Z" fill="url(#y)"/><path d="m954.265 101.546-652.72 652.718.533.533 652.72-652.718-.533-.533Z" fill="url(#z)"/><path d="M947.332 94.611 294.612 747.33l.533.533 652.72-652.717-.533-.534Z" fill="url(#A)"/><path d="m940.399 87.678-652.72 652.718.533.534 652.72-652.718-.533-.534Z" fill="url(#B)"/><path d="m933.466 80.744-652.72 652.718.533.533 652.72-652.718-.533-.533Z" fill="url(#C)"/><path d="M926.53 73.81 273.81 726.53l.533.533 652.72-652.718-.533-.533Z" fill="url(#D)"/><path d="m919.597 66.877-652.72 652.718.533.533L920.131 67.41l-.534-.533Z" fill="url(#E)"/><path d="m843.325-9.394-652.72 652.718.533.533L843.859-8.861l-.534-.533Z" fill="url(#F)"/><path d="M836.392-16.329 183.672 636.39l.533.534L836.926-15.795l-.534-.534Z" fill="url(#G)"/><path d="m829.459-23.262-652.72 652.718.533.534L829.993-22.728l-.534-.534Z" fill="url(#H)"/><path d="m822.526-30.196-652.72 652.718.533.533L823.06-29.663l-.534-.533Z" fill="url(#I)"/><path d="M815.59-37.129 162.87 615.589l.533.533L816.124-36.596l-.534-.533Z" fill="url(#J)"/><path d="m808.657-44.063-652.72 652.717.533.534L809.191-43.53l-.534-.533Z" fill="url(#K)"/><path d="M801.724-50.996 149.004 601.72l.533.534L802.258-50.463l-.534-.533Z" fill="url(#L)"/><path d="m794.791-57.931-652.72 652.718.533.533L795.325-57.398l-.534-.533Z" fill="url(#M)"/><path d="m787.855-64.864-652.72 652.718.534.533 652.72-652.718-.534-.533Z" fill="url(#N)"/><path d="M780.923-71.799 128.203 580.92l.533.534 652.72-652.718-.533-.534Z" fill="url(#O)"/></g><defs><linearGradient id="v" x1="471.278" y1="244.707" x2="820.012" y2="514.537" gradientUnits="userSpaceOnUse"><stop stop-color="#FFF0EE"/><stop offset="1" stop-color="#FFF0EE" stop-opacity="0"/></linearGradient><linearGradient id="b" x1="471.278" y1="244.707" x2="820.012" y2="514.537" gradientUnits="userSpaceOnUse"><stop stop-color="#FFF0EE"/><stop offset="1" stop-color="#FFF0EE" stop-opacity="0"/></linearGradient><linearGradient id="d" x1="471.278" y1="244.707" x2="820.012" y2="514.537" gradientUnits="userSpaceOnUse"><stop stop-color="#FFF0EE"/><stop offset="1" stop-color="#FFF0EE" stop-opacity="0"/></linearGradient><linearGradient id="e" x1="471.278" y1="244.707" x2="820.012" y2="514.537" gradientUnits="userSpaceOnUse"><stop stop-color="#FFF0EE"/><stop offset="1" stop-color="#FFF0EE" stop-opacity="0"/></linearGradient><linearGradient id="f" x1="471.278" y1="244.707" x2="820.012" y2="514.537" gradientUnits="userSpaceOnUse"><stop stop-color="#FFF0EE"/><stop offset="1" stop-color="#FFF0EE" stop-opacity="0"/></linearGradient><linearGradient id="g" x1="471.278" y1="244.707" x2="820.012" y2="514.537" gradientUnits="userSpaceOnUse"><stop stop-color="#FFF0EE"/><stop offset="1" stop-color="#FFF0EE" stop-opacity="0"/></linearGradient><linearGradient id="h" x1="471.278" y1="244.707" x2="820.012" y2="514.537" gradientUnits="userSpaceOnUse"><stop stop-color="#FFF0EE"/><stop offset="1" stop-color="#FFF0EE" stop-opacity="0"/></linearGradient><linearGradient id="i" x1="471.278" y1="244.707" x2="820.012" y2="514.537" gradientUnits="userSpaceOnUse"><stop stop-color="#FFF0EE"/><stop offset="1" stop-color="#FFF0EE" stop-opacity="0"/></linearGradient><linearGradient id="j" x1="471.278" y1="244.707" x2="820.012" y2="514.537" gradientUnits="userSpaceOnUse"><stop stop-color="#FFF0EE"/><stop offset="1" stop-color="#FFF0EE" stop-opacity="0"/></linearGradient><linearGradient id="k" x1="471.278" y1="244.707" x2="820.012" y2="514.537" gradientUnits="userSpaceOnUse"><stop stop-color="#FFF0EE"/><stop offset="1" stop-color="#FFF0EE" stop-opacity="0"/></linearGradient><linearGradient id="l" x1="471.278" y1="244.707" x2="820.012" y2="514.537" gradientUnits="userSpaceOnUse"><stop stop-color="#FFF0EE"/><stop offset="1" stop-color="#FFF0EE" stop-opacity="0"/></linearGradient><linearGradient id="m" x1="471.278" y1="244.707" x2="820.012" y2="514.537" gradientUnits="userSpaceOnUse"><stop stop-color="#FFF0EE"/><stop offset="1" stop-color="#FFF0EE" stop-opacity="0"/></linearGradient><linearGradient id="n" x1="471.278" y1="244.707" x2="820.012" y2="514.537" gradientUnits="userSpaceOnUse"><stop stop-color="#FFF0EE"/><stop offset="1" stop-color="#FFF0EE" stop-opacity="0"/></linearGradient><linearGradient id="o" x1="471.278" y1="244.707" x2="820.012" y2="514.537" gradientUnits="userSpaceOnUse"><stop stop-color="#FFF0EE"/><stop offset="1" stop-color="#FFF0EE" stop-opacity="0"/></linearGradient><linearGradient id="p" x1="471.278" y1="244.707" x2="820.012" y2="514.537" gradientUnits="userSpaceOnUse"><stop stop-color="#FFF0EE"/><stop offset="1" stop-color="#FFF0EE" stop-opacity="0"/></linearGradient><linearGradient id="q" x1="471.278" y1="244.707" x2="820.012" y2="514.537" gradientUnits="userSpaceOnUse"><stop stop-color="#FFF0EE"/><stop offset="1" stop-color="#FFF0EE" stop-opacity="0"/></linearGradient><linearGradient id="r" x1="471.278" y1="244.707" x2="820.012" y2="514.537" gradientUnits="userSpaceOnUse"><stop stop-color="#FFF0EE"/><stop offset="1" stop-color="#FFF0EE" stop-opacity="0"/></linearGradient><linearGradient id="s" x1="471.278" y1="244.707" x2="820.012" y2="514.537" gradientUnits="userSpaceOnUse"><stop stop-color="#FFF0EE"/><stop offset="1" stop-color="#FFF0EE" stop-opacity="0"/></linearGradient><linearGradient id="t" x1="471.278" y1="244.707" x2="820.012" y2="514.537" gradientUnits="userSpaceOnUse"><stop stop-color="#FFF0EE"/><stop offset="1" stop-color="#FFF0EE" stop-opacity="0"/></linearGradient><linearGradient id="u" x1="471.278" y1="244.707" x2="820.012" y2="514.537" gradientUnits="userSpaceOnUse"><stop stop-color="#FFF0EE"/><stop offset="1" stop-color="#FFF0EE" stop-opacity="0"/></linearGradient><linearGradient id="c" x1="471.278" y1="244.707" x2="820.012" y2="514.537" gradientUnits="userSpaceOnUse"><stop stop-color="#FFF0EE"/><stop offset="1" stop-color="#FFF0EE" stop-opacity="0"/></linearGradient><linearGradient id="w" x1="471.278" y1="244.707" x2="820.012" y2="514.537" gradientUnits="userSpaceOnUse"><stop stop-color="#FFF0EE"/><stop offset="1" stop-color="#FFF0EE" stop-opacity="0"/></linearGradient><linearGradient id="x" x1="471.278" y1="244.707" x2="820.012" y2="514.537" gradientUnits="userSpaceOnUse"><stop stop-color="#FFF0EE"/><stop offset="1" stop-color="#FFF0EE" stop-opacity="0"/></linearGradient><linearGradient id="y" x1="471.278" y1="244.707" x2="820.012" y2="514.537" gradientUnits="userSpaceOnUse"><stop stop-color="#FFF0EE"/><stop offset="1" stop-color="#FFF0EE" stop-opacity="0"/></linearGradient><linearGradient id="z" x1="471.278" y1="244.707" x2="820.012" y2="514.537" gradientUnits="userSpaceOnUse"><stop stop-color="#FFF0EE"/><stop offset="1" stop-color="#FFF0EE" stop-opacity="0"/></linearGradient><linearGradient id="A" x1="471.278" y1="244.707" x2="820.012" y2="514.537" gradientUnits="userSpaceOnUse"><stop stop-color="#FFF0EE"/><stop offset="1" stop-color="#FFF0EE" stop-opacity="0"/></linearGradient><linearGradient id="B" x1="471.278" y1="244.707" x2="820.012" y2="514.537" gradientUnits="userSpaceOnUse"><stop stop-color="#FFF0EE"/><stop offset="1" stop-color="#FFF0EE" stop-opacity="0"/></linearGradient><linearGradient id="C" x1="471.278" y1="244.707" x2="820.012" y2="514.537" gradientUnits="userSpaceOnUse"><stop stop-color="#FFF0EE"/><stop offset="1" stop-color="#FFF0EE" stop-opacity="0"/></linearGradient><linearGradient id="D" x1="471.278" y1="244.707" x2="820.012" y2="514.537" gradientUnits="userSpaceOnUse"><stop stop-color="#FFF0EE"/><stop offset="1" stop-color="#FFF0EE" stop-opacity="0"/></linearGradient><linearGradient id="E" x1="471.278" y1="244.707" x2="820.012" y2="514.537" gradientUnits="userSpaceOnUse"><stop stop-color="#FFF0EE"/><stop offset="1" stop-color="#FFF0EE" stop-opacity="0"/></linearGradient><linearGradient id="F" x1="471.278" y1="244.707" x2="820.012" y2="514.537" gradientUnits="userSpaceOnUse"><stop stop-color="#FFF0EE"/><stop offset="1" stop-color="#FFF0EE" stop-opacity="0"/></linearGradient><linearGradient id="G" x1="471.278" y1="244.707" x2="820.012" y2="514.537" gradientUnits="userSpaceOnUse"><stop stop-color="#FFF0EE"/><stop offset="1" stop-color="#FFF0EE" stop-opacity="0"/></linearGradient><linearGradient id="H" x1="471.278" y1="244.707" x2="820.012" y2="514.537" gradientUnits="userSpaceOnUse"><stop stop-color="#FFF0EE"/><stop offset="1" stop-color="#FFF0EE" stop-opacity="0"/></linearGradient><linearGradient id="I" x1="471.278" y1="244.707" x2="820.012" y2="514.537" gradientUnits="userSpaceOnUse"><stop stop-color="#FFF0EE"/><stop offset="1" stop-color="#FFF0EE" stop-opacity="0"/></linearGradient><linearGradient id="J" x1="471.278" y1="244.707" x2="820.012" y2="514.537" gradientUnits="userSpaceOnUse"><stop stop-color="#FFF0EE"/><stop offset="1" stop-color="#FFF0EE" stop-opacity="0"/></linearGradient><linearGradient id="K" x1="471.278" y1="244.707" x2="820.012" y2="514.537" gradientUnits="userSpaceOnUse"><stop stop-color="#FFF0EE"/><stop offset="1" stop-color="#FFF0EE" stop-opacity="0"/></linearGradient><linearGradient id="L" x1="471.278" y1="244.707" x2="820.012" y2="514.537" gradientUnits="userSpaceOnUse"><stop stop-color="#FFF0EE"/><stop offset="1" stop-color="#FFF0EE" stop-opacity="0"/></linearGradient><linearGradient id="M" x1="471.278" y1="244.707" x2="820.012" y2="514.537" gradientUnits="userSpaceOnUse"><stop stop-color="#FFF0EE"/><stop offset="1" stop-color="#FFF0EE" stop-opacity="0"/></linearGradient><linearGradient id="N" x1="471.278" y1="244.707" x2="820.012" y2="514.537" gradientUnits="userSpaceOnUse"><stop stop-color="#FFF0EE"/><stop offset="1" stop-color="#FFF0EE" stop-opacity="0"/></linearGradient><linearGradient id="O" x1="471.278" y1="244.707" x2="820.012" y2="514.537" gradientUnits="userSpaceOnUse"><stop stop-color="#FFF0EE"/><stop offset="1" stop-color="#FFF0EE" stop-opacity="0"/></linearGradient></defs></svg>