<svg width="150" height="44" fill="none" xmlns="http://www.w3.org/2000/svg"><path d="m37.685 31.644 4.566-4.208h-4.765V9.104h.045l-4.327-4.322h-8.671l-.142.154L8.022 21.441l-.017 5.995H4.652L0 31.644h37.685ZM12.52 22.432 26.064 9.104h6.56v18.332H12.52v-5.004Z" fill="#00375B"/><path d="M4.693 41.522v-3.103h.763v3.103h.757v1.24l-.757.65v-1.298H.918v-3.695h.757v3.103h3.018ZM10.488 39.33l-2.79 2.784h-.643v-3.695h.763v2.687l2.67-2.687h.763v3.695h-.763V39.33ZM15.742 41.522h2.09v-2.51h-2.038l.592-.593h1.566l.643.592v2.511l-.643.592h-2.21v1.56h-.762v-1.56h-2.204l-.643-.592v-2.51l.643-.593h2.204v-1.002h.762v4.105Zm-2.852 0h2.09v-2.51h-2.09v2.51ZM19.477 38.419h.757v3.103h2.892V39.01h-2.83l.644-.592h2.357l.592.592h-.006v2.517h-.005l-.65.586h-2.994v1.56h-.757v-5.255ZM24.566 39.011l.644-.592h3.302l.655.592v2.51l-.655.593H25.21l-.644-.592V39.01Zm3.838 0h-3.075v2.51h3.075v-2.51ZM34.372 39.011v.968l-.297.256.297.256v1.03l-.644.593h-3.832v-3.695h3.832l.644.592Zm-.758 0H30.66v.91h2.955v-.91Zm0 2.51v-1.007H30.66v1.008h2.955ZM35.955 38.419h2.818l.655.592v3.103h-.763v-1.606H35.78v1.014h2.83l-.593.592h-2.408l-.592-.592v-1.014l.592-.592h3.057v-.905h-3.302l.592-.592ZM44.153 38.419v3.695h-.763v-1.15h-1.235l-1.156 1.15h-.905l1.161-1.15H41l-.763-.65v-1.246l.763-.65h3.154ZM41 40.372h2.391V39.01H41v1.36ZM49.322 41.522V39.01l.592-.592h3.229l.592.592H50.08v2.51h3.655l-.592.593h-3.229l-.592-.592ZM58.756 39.011h-1.85v3.103h-.763V39.01h-1.862l.644-.592h3.188l.643.592ZM59.348 39.011l.637-.592h3.303l.654.592v2.51l-.654.593h-3.303l-.637-.592V39.01Zm3.837 0h-3.08v2.51h3.08v-2.51ZM65.36 38.419h.006l1.936 1.827 1.953-1.827h.637v3.695h-.763V39.37l-1.833 1.72-1.81-1.732v2.756h-.758v-3.695h.632ZM71.584 38.419h2.818l.655.592v3.103h-.763v-1.606h-2.892v1.014h2.83l-.593.592h-2.402l-.593-.592v-1.014l.593-.592h3.057v-.905h-3.302l.592-.592ZM80.14 39.011h-1.851v3.103h-.757V39.01h-1.868l.644-.592h3.188l.643.592ZM80.732 39.011l.644-.592h3.302l.655.592v2.51l-.655.593h-3.302l-.644-.592V39.01Zm3.838 0h-3.075v2.51h3.075v-2.51ZM85.918 42.115l1.77-3.7h1.037l1.793 3.7h-.87L88.143 39l-1.48 3.114h-.746ZM91.186 39.011l.643-.592h3.302l.65.592v2.51l-.65.593H91.83l-.643-.592V39.01Zm3.837 0h-3.08v2.51h3.08v-2.51ZM99.573 38.419l.654.592h-2.903v3.103h-.758v-3.695h3.007ZM104.39 39.33l-2.796 2.784h-.637v-3.695h.757v2.687l2.676-2.687h.757v3.695h-.757V39.33ZM109.952 38.419v3.695h-.758v-1.15h-1.235l-1.162 1.15h-.899l1.156-1.15h-.257l-.757-.65v-1.246l.757-.65h3.155Zm-3.155 1.953h2.397V39.01h-2.397v1.36Z" fill="#314C89"/><path d="m39.262 6.49 1.788-1.645h9.172l1.816 1.645v6.974l-1.816 1.646H41.05l-1.788-1.646V6.49Zm10.663 0h-8.551v6.974h8.551V6.49ZM65.533 6.49v6.975l-1.816 1.645h-8.398l-1.8-1.645V2.18L55.337.535h8.238l1.782 1.646h-9.724v4.31l1.975-1.646h6.11l1.816 1.645Zm-2.113 6.975V6.49h-7.788v6.975h7.788ZM67.273 4.845h2.107v8.62h8.033V6.49h-7.856l1.781-1.645h6.56l1.645 1.645h-.017v6.992h-.017l-1.8 1.628H69.38v4.321h-2.107V4.845ZM83.534 13.465h7.179v-3.171h-7.339v4.816h-2.106V4.828h2.106v3.826h7.806l1.645 1.64v3.171L91.01 15.11h-5.83l-1.645-1.645ZM94.59 4.828h2.112V15.11H94.59V4.828ZM108.306 7.373l-7.754 7.737h-1.783V4.845h2.113v7.458l7.424-7.458h2.112V15.11h-2.112V7.373ZM100.5 0h2.113v2.038h3.53V0h2.112v2.038l-1.816 1.646h-4.156L100.5 2.038V0ZM44.113 23.104l1.782-1.645h9.172l1.817 1.645v6.975l-1.817 1.645h-9.172l-1.782-1.645v-6.975Zm10.658 0h-8.546v6.975h8.546v-6.975ZM58.625 21.459h2.112v10.265h-2.112V21.46Zm10.766 0-5.733 5.022 6.007 5.243H66.76l-5.853-5.26 5.853-5.005h2.63ZM82.212 23.104h-5.135v8.62h-2.113v-8.62H69.79l1.782-1.645h8.86l1.781 1.645ZM83.426 23.104l1.782-1.645h9.172l1.816 1.645v6.975l-1.816 1.645h-9.172l-1.782-1.645v-6.975Zm10.664 0h-8.552v6.975h8.552v-6.975ZM97.938 21.459h2.112v8.62h8.033v-6.975h-7.862l1.787-1.645h6.559l1.64 1.645h-.017v6.992h-.017l-1.799 1.628h-8.324v4.327h-2.112V21.46Z" fill="#00375B"/><path fill-rule="evenodd" clip-rule="evenodd" d="M148.888 5.631c-1.594-2.454-3.61-3.598-6.337-3.598-1.315 0-2.801.262-4.68.814a5.388 5.388 0 0 1-1.554.234c-1.56 0-3.041-.678-4.601-1.39-1.776-.808-3.609-1.645-5.801-1.645-1.782 0-3.536.558-5.358 1.714-2.869 1.81-3.985 4.571-3.319 8.198.518 2.835 2.05 5.625 2.966 7.288l.308.563c.785 1.464 1.617 3.103 1.901 4.18.285 1.075.388 2.72.484 4.4.097 1.805.2 3.678.581 5.301.103.45 1.082 4.384 3.519 4.384 1.053 0 2.1-.734 3.194-2.249.837-1.161 1.708-2.773 2.59-4.8.484-1.115.837-1.326 1.315-1.326h.052c.512 0 .814.307 1.338 1.372 2.442 4.908 4.161 7.003 5.761 7.003 2.437 0 3.416-3.934 3.519-4.384.376-1.617.478-3.473.575-5.266.091-1.691.176-3.291.484-4.436.307-1.144 1.173-2.818 1.907-4.179 1.981-3.695 3.325-8.836 1.156-12.178Zm-.16 7.151-3.256-3.046a.987.987 0 0 0 .102-.45 1.11 1.11 0 0 0-.091-.432l2.79-2.517c1.059 1.828.996 4.196.455 6.445Zm-.802-6.98-2.864 2.59a1.042 1.042 0 0 0-.53-.148l-.131.012-2.442-5.312c2.534-.154 4.424.655 5.967 2.858Zm-22.279 2.91c.012-.006.017-.018.029-.03l10.572 5.438c-.005.034-.005.068-.011.103l-6.399 1.571a1.039 1.039 0 0 0-.889-.507.628.628 0 0 0-.148.017l-3.154-6.593Zm2.591 6.86a1.079 1.079 0 0 0-.245.347l-7.225-.757 3.906-6.2a.964.964 0 0 0 .262.034l.148-.011 3.154 6.587Zm-2.261-7.663 9.879-3.616 1.002 9.047c-.119.055-.226.13-.319.222L125.96 8.125a.817.817 0 0 0 .017-.17v-.046Zm4.009 8.494 6.399-1.565c.09.143.213.262.359.347l-2.665 11.233-4.424-9.326c.196-.178.314-.425.331-.689Zm7.367-1.07c.161-.01.317-.06.455-.143l6.747 6.001-9.764 4.925 2.562-10.783Zm6.183-5.74-5.602 3.867 3.718-9.685 2.18 4.743a1.071 1.071 0 0 0-.342.768c.001.104.016.208.046.308Zm-5.306 5.125a1.054 1.054 0 0 0 .045-.729l5.62-3.877c.11.087.238.15.375.182l.49 10.243-6.53-5.82Zm-.103-11.011c1.145-.342 2.192-.58 3.149-.695l-3.832 9.964-.996-9.007a6.38 6.38 0 0 0 1.679-.262Zm-2.949.165h-.006l-9.411 3.444a1.112 1.112 0 0 0-.273-.244l1.554-6.053c2.961.427 5.386 2.386 8.136 2.853Zm-14.142-1.36c2.032-1.288 3.786-1.658 5.374-1.555l-1.531 5.955c-.178.011-.35.066-.501.16l-4.436-3.73c.339-.309.705-.587 1.094-.83Zm-1.538 1.274 4.475 3.764a1.076 1.076 0 0 0-.079.404c-.001.246.086.484.245.672l-4.066 6.462h-.011c-1.657-3.245-3.507-8.04-.564-11.302Zm1.805 13.602c-.245-.444-.558-1.002-.894-1.634l7.516.786c.021.088.051.174.091.256l-4.828 4.657c-.353-1.104-1.093-2.579-1.885-4.065Zm3.046 14.103c-.683-2.915-.444-6.832-.985-9.343h.006l5.078-4.902.052.028-2.448 17.53c-.917-.751-1.504-2.442-1.703-3.313Zm7.612-2.819c-1.594 3.661-3.404 6.508-4.964 6.508a1.3 1.3 0 0 1-.359-.051l2.477-17.718 4.48 9.457c-.802.21-1.252.928-1.634 1.805Zm9.286 6.508c-1.395 0-3.273-3.108-4.959-6.508a8.563 8.563 0 0 0-.421-.762h.006l8.045 3.495-.018.086c-.267 1.144-1.201 3.69-2.653 3.69Zm2.796-4.407-9.184-3.99 10.123-5.102c-.006.028-.017.051-.023.08-.614 2.288-.392 6.04-.916 9.012Zm2.903-13.385c-.597 1.105-1.167 2.203-1.56 3.149l-.489-10.271a.704.704 0 0 0 .148-.069l3.501 3.268a20.133 20.133 0 0 1-1.6 3.923Z" fill="url(#a)"/><defs><linearGradient id="a" x1="133.524" y1="36.073" x2="133.524" y2=".045" gradientUnits="userSpaceOnUse"><stop stop-color="#00375B"/><stop offset="1" stop-color="#6C7595"/></linearGradient></defs></svg>