<svg width="151" height="22" fill="none" xmlns="http://www.w3.org/2000/svg"><path d="M10.005 0H8.118L7.74 1.817h1.793L10.005 0ZM11.421 1.817 10.95 3.73h1.888l.377-1.913h-1.793Z" fill="#FBBC43"/><path d="M21.143 0h-7.456l-.472 1.818h1.887L14.63 3.73h-1.793l-.472 1.913h7.362L21.143 0Z" fill="#006EB7"/><path d="M7.267 3.73H5.379l-.377 1.914h1.793l.472-1.914Z" fill="#FBBC43"/><path d="M8.684 5.644h1.793l.472-1.914H9.155l-.471 1.914ZM4.058 9.375l-.472 1.817h1.887l.472-1.817H4.058ZM19.256 7.462h-7.362l-.472 1.913H9.628l-.472 1.818h1.888l-.472 1.913h1.793l-1.793 7.462h5.57l3.114-13.106Z" fill="#006EB7"/><path d="M1.32 13.106h1.888l.377-1.913H1.792l-.472 1.913ZM5.476 11.193l-.472 1.913H6.89l.378-1.913H5.476Z" fill="#FBBC43"/><path d="m6.89 13.106-.472 1.914h3.681l.471-1.914H6.89ZM4.152 16.837h1.793l.472-1.817H4.53l-.378 1.817ZM0 18.75h1.793l.472-1.913H.377L0 18.75Z" fill="#006EB7"/><path d="M7.363 18.75h1.888l.377-1.913H7.835l-.472 1.913Z" fill="#FBBC43"/><path d="M5.098 20.568H6.89l.472-1.817H5.475l-.377 1.817ZM37.662 0H22.937l-1.322 5.644h11.988a.75.75 0 0 1 .755.766V6.6l-.094.287a.909.909 0 0 1-.85.67H21.238l-3.115 13.106h7.362l1.794-7.462h7.268c2.17 0 4.059-1.53 4.625-3.635l1.416-5.836a2.939 2.939 0 0 0-2.171-3.54C38.134 0 37.945 0 37.662 0ZM89.859 12.15h3.02l.661-2.679h-3.02l.943-3.73H88.35l-2.832 11.67c-.094.479-.189.957-.189 1.436 0 .765.189 1.148.66 1.434.473.192 1.228.383 2.455.383h2.549l.66-2.678h-1.321c-.378 0-.755 0-1.133-.096-.189-.096-.283-.287-.283-.574s.094-.574.189-.861l.755-4.305ZM76.832 9.566c-.472.096-.85.192-1.228.479-.377.287-.66.574-.849.956a4.751 4.751 0 0 0-.566 1.627l-1.133 4.879c-.094.478-.189.956-.189 1.435 0 .287 0 .574.095.86.094.192.283.383.471.48.284.19.661.286.944.286.472.096 1.039.096 1.51.096H82.4l.661-2.679h-5.38c-.377 0-.755 0-1.133-.096-.189-.095-.283-.287-.283-.574s.095-.574.189-.86l.66-2.68c.095-.286.19-.573.284-.765.094-.382.472-.67.85-.765.282 0 .66-.096.943-.096h5.38l.661-2.678h-6.701c-.567 0-1.228 0-1.7.095ZM52.008 9.758c-.472-.192-1.227-.383-2.455-.383h-4.436c-1.321 0-2.265.287-2.926.765-.66.479-1.133 1.34-1.416 2.392l-1.133 4.783c-.094.287-.094.574-.188.766 0 .191-.095.382-.095.574 0 .287 0 .574.19.86.093.192.282.383.471.479.283.191.66.287.944.287.472.096 1.038.096 1.51.096h7.551l.661-2.679h-6.418c-.378 0-.755 0-1.227-.096-.19-.095-.284-.382-.284-.574 0-.287.095-.574.095-.765l.66-2.679c.095-.287.19-.574.284-.765.094-.191.188-.383.377-.478.189-.096.378-.192.567-.192.283 0 .566-.095.85-.095h2.453c.755 0 1.227.287 1.227.765 0 .096-.094.287-.189.765h-4.247l-.66 2.679h7.267l.944-3.731c.095-.478.189-.957.189-1.435.189-.574-.094-1.052-.566-1.34ZM54.558 5.74l-.472 1.914h1.888L52.86 20.569h3.21L59.56 5.74h-5.003ZM71.547 9.758c-.472-.192-1.227-.383-2.454-.383h-4.437c-1.321 0-2.265.287-2.926.765-.66.479-1.133 1.34-1.416 2.392l-1.132 4.783c-.095.287-.095.574-.19.766 0 .191-.094.382-.094.574 0 .287 0 .574.19.86.094.192.282.383.471.479.283.191.661.287.944.287.472.096 1.038.096 1.51.096h7.551l.661-2.679h-6.418c-.378 0-.755 0-1.133-.096-.189-.095-.283-.382-.283-.574 0-.287.094-.574.094-.765l.661-2.679c.094-.287.189-.574.283-.765.095-.191.189-.383.378-.478.188-.096.377-.192.566-.192.283 0 .566-.095.85-.095h2.454c.755 0 1.227.287 1.227.765 0 .096-.095.287-.19.765h-4.246l-.661 2.679h7.268l.944-3.731c.094-.478.188-.957.188-1.435 0-.574-.188-1.052-.66-1.34ZM101.186 9.47c-.944 0-1.888.575-2.36 1.436l.283-1.435h-3.115l-2.642 11.097h3.115l1.604-6.888c.095-.287.189-.574.283-.765.095-.192.19-.383.378-.479.189-.095.377-.191.566-.191.283 0 .66-.096.944-.096h3.681l.661-2.678h-3.398ZM117.891 10.332a1.145 1.145 0 0 0-.471-.479 1.807 1.807 0 0 0-.944-.287c-.472-.095-1.038-.095-1.511-.095h-4.813c-.567 0-1.227 0-1.794.095-.85.096-1.605.574-1.982 1.435a4.746 4.746 0 0 0-.566 1.627l-1.133 4.879c-.094.478-.189.956-.189 1.435 0 .765.189 1.148.661 1.435.472.191 1.227.382 2.454.382h4.814c.566 0 1.227 0 1.793-.095.472-.096.85-.192 1.228-.479.377-.287.566-.574.755-.956.283-.479.377-1.053.566-1.627l1.132-4.879c.095-.478.189-.956.189-1.435-.094-.382-.094-.67-.189-.956Zm-3.492 3.348-.661 2.679c-.094.287-.094.574-.283.765-.095.191-.189.383-.378.478-.188.096-.377.192-.566.192-.283 0-.661.095-.944.095h-2.453c-.379 0-.756 0-1.228-.095-.189-.096-.283-.287-.283-.574s.094-.574.188-.861l.661-2.679.283-.861c.095-.191.19-.383.379-.478.188-.096.377-.192.566-.192h3.303c.377 0 .755 0 1.132.096.189.096.284.287.284.574.094.287 0 .574 0 .861ZM131.484 9.758c-.471-.192-1.226-.383-2.453-.383h-3.304c-.944 0-1.888.574-2.36 1.435l.283-1.435h-3.115l-2.642 11.097h3.115l1.604-6.888c.095-.287.189-.574.283-.765.095-.191.189-.383.378-.478.189-.096.377-.192.566-.192.283 0 .661-.095.944-.095h2.455c.377 0 .755 0 1.132.095.189.096.283.287.283.574s-.094.574-.189.861l-1.604 6.888h3.114l1.888-7.94c.094-.478.189-.957.189-1.435.188-.574-.095-1.052-.567-1.34Z" fill="#006EB7"/><path d="M148.756 8.132c-.755 0-1.51.383-1.887 1.052H135.07l-.566 2.2h12.271c.566 1.149 1.981 1.531 3.02.957 1.132-.574 1.51-2.009.943-3.061a2.294 2.294 0 0 0-1.982-1.148Zm0 3.348a1.055 1.055 0 0 1-1.038-1.052c0-.574.472-1.052 1.038-1.052.567 0 1.039.478 1.039 1.052-.095.574-.472 1.052-1.039 1.052ZM144.699 12.628c-.85 0-1.51.478-1.982 1.148h-8.872l-.568 2.2h9.345c.567 1.148 1.982 1.531 3.02.957 1.134-.574 1.511-2.009.945-3.061-.283-.766-1.039-1.244-1.888-1.244Zm0 3.348a1.055 1.055 0 0 1-1.039-1.052c0-.574.472-1.052 1.039-1.052.566 0 1.038.478 1.038 1.052 0 .574-.472 1.052-1.038 1.052ZM140.451 17.124c-.85 0-1.606.478-1.983 1.148h-5.663l-.567 2.2h6.23c.661 1.053 1.983 1.531 3.115.861 1.133-.67 1.51-2.009.85-3.157a2.438 2.438 0 0 0-1.982-1.052Zm0 3.348a1.055 1.055 0 0 1-1.039-1.052c0-.574.473-1.052 1.039-1.052s1.038.478 1.038 1.052c0 .574-.472 1.052-1.038 1.052Z" fill="#FBBC43"/></svg>