<svg width="141" height="55" viewBox="0 0 141 55" fill="none" xmlns="http://www.w3.org/2000/svg">
<path d="M47.9567 45.2808C45.8138 43.3631 42.8567 40.3558 41.0567 38.0894C39.5139 36.2153 38.0139 34.2976 36.6424 32.2928C36.2996 31.7262 35.9138 31.1596 35.5281 30.593C35.5281 30.593 35.4424 30.5059 35.271 30.2008C34.9281 29.6342 37.7567 28.806 37.971 28.7189C39.2567 28.2831 40.7138 27.9344 41.9139 27.7165C43.8424 27.4114 45.6853 27.2806 47.5281 27.7165C47.9996 27.8472 48.471 27.978 48.8567 28.1523C50.3996 28.8497 51.5567 30.2008 51.9853 31.857C52.0282 32.0748 52.1139 32.2928 52.1139 32.5543C52.1567 32.7722 52.1567 33.0337 52.1996 33.2952C52.3281 35.1693 51.8996 37.0434 51.2567 38.9175C50.9568 39.9635 49.5853 42.6658 49.1996 43.4939C49.1138 43.6246 48.2138 45.455 47.9567 45.2808Z" fill="url(#paint0_radial_201_3831)"/>
<path d="M54.0855 25.0142C51.2141 25.1886 47.0998 25.1886 44.1855 24.8835C41.7855 24.6656 39.3855 24.404 37.0283 23.9247C36.3855 23.7939 35.7427 23.6632 35.057 23.4888C35.057 23.4888 34.9284 23.4888 34.6283 23.4017C33.9855 23.2273 35.4426 20.6123 35.4855 20.4379C36.0855 19.2176 36.8569 17.9101 37.5855 16.8641C38.6998 15.2515 39.9427 13.8132 41.5284 12.8107C41.9569 12.5493 42.3855 12.3314 42.7712 12.2006C44.3569 11.5469 46.1141 11.6776 47.5712 12.5929C47.7427 12.7236 47.9569 12.8108 48.1284 12.9851C48.2998 13.1159 48.5141 13.2902 48.6855 13.421C50.0998 14.6849 51.0855 16.2975 51.9426 18.0845C52.457 19.0433 53.357 21.9198 53.6569 22.7915C53.7855 23.0529 54.3855 25.0142 54.0855 25.0142Z" fill="url(#paint1_radial_201_3831)"/>
<path d="M44.3573 6.31651C42.4716 8.49571 39.5145 11.5029 37.2859 13.3335C35.4431 14.9025 33.5573 16.4279 31.5859 17.8226C31.0287 18.1713 30.4716 18.5636 29.9144 18.9558C29.9144 18.9558 29.8287 19.043 29.5287 19.2173C28.9716 19.566 28.1573 16.6894 28.0716 16.4715C27.643 15.164 27.3002 13.6821 27.0859 12.4618C26.7858 10.5006 26.6573 8.62644 27.0859 6.75235C27.2145 6.27294 27.343 5.7935 27.5144 5.40125C28.2002 3.83222 29.5287 2.65547 31.1573 2.21962C31.3716 2.17605 31.5859 2.08888 31.843 2.08888C32.0573 2.0453 32.3145 2.04529 32.5716 2.00171C34.4144 1.87096 36.2573 2.3068 38.1002 2.96056C39.1287 3.26565 41.7859 4.66032 42.6001 5.05258C42.7287 5.13975 44.5288 6.05502 44.3573 6.31651Z" fill="url(#paint2_radial_201_3831)"/>
<path d="M24.4275 0.0844104C24.5989 3.00453 24.5989 7.18856 24.2989 10.1522C24.0845 12.5929 23.8274 15.0336 23.356 17.4308C23.2274 18.0845 23.0989 18.7382 22.9275 19.4356C22.9275 19.4356 22.9274 19.5663 22.8417 19.8714C22.6703 20.5252 20.0989 19.0433 19.9274 18.9998C18.7275 18.3896 17.4417 17.6051 16.4131 16.8642C14.8274 15.731 13.4132 14.4671 12.4274 12.8544C12.1703 12.4187 11.956 11.9828 11.7846 11.5906C11.1418 9.97795 11.2703 8.19098 12.1703 6.70913C12.2989 6.53479 12.3846 6.31688 12.556 6.14255C12.6846 5.9682 12.856 5.75029 12.9846 5.57596C14.2274 4.13769 15.8131 3.13528 17.5703 2.2636C18.5132 1.7406 21.3417 0.825335 22.1989 0.520248C22.456 0.389497 24.3846 -0.220676 24.4275 0.0844104Z" fill="url(#paint3_radial_201_3831)"/>
<path d="M30.729 54.9997C30.5147 54.9997 30.429 54.9561 30.429 54.9561C30.3433 54.9561 30.2147 54.9561 30.129 54.9125C30.0433 54.9125 29.9147 54.9125 29.829 54.8689C29.829 54.8689 29.7432 54.869 29.529 54.8253C29.4861 54.5202 29.4861 54.3895 29.4861 54.3895C29.4433 54.128 29.4433 53.8665 29.4433 53.605C29.4433 53.2128 29.4004 52.7769 29.4004 52.3847C29.4004 51.9924 29.4004 51.5566 29.4004 51.1643C29.4004 50.7721 29.4004 50.3362 29.4004 49.944C29.4004 49.5517 29.4004 49.1159 29.4433 48.7236C29.4433 48.3314 29.4861 47.8956 29.4861 47.5033C29.4861 47.1111 29.529 46.6752 29.5718 46.283C29.6147 45.8907 29.6147 45.4549 29.6575 45.0626C29.7004 44.6703 29.7432 44.2345 29.7861 43.8422C29.829 43.4499 29.8718 43.0142 29.9147 42.6219C29.9576 42.2296 30.0005 41.7938 30.0433 41.4015C30.0862 41.0093 30.129 40.5734 30.2147 40.1812C30.2576 39.7889 30.3433 39.3531 30.3861 38.9608C30.4718 38.5686 30.5147 38.1763 30.6004 37.7405C30.6861 37.3482 30.7719 36.956 30.8576 36.5201C30.9005 36.2587 30.9433 35.9972 31.029 35.7357C31.029 35.7357 31.0719 35.6049 31.1147 35.2998C31.329 35.2998 31.4147 35.3434 31.4147 35.3434C31.5004 35.3434 31.629 35.3434 31.7147 35.387C31.8004 35.387 31.929 35.3869 32.0147 35.4306C32.0147 35.4306 32.1004 35.4305 32.3147 35.4742C32.529 35.5613 32.7004 35.6485 32.829 35.692C32.9576 35.7357 33.0861 35.8228 33.1718 35.8664C33.3433 35.9535 33.429 35.9972 33.429 35.9972C33.6004 36.0843 33.7718 36.1715 33.9432 36.2587C34.0718 36.3458 34.2433 36.433 34.3719 36.4765C34.6718 36.6509 34.929 36.7816 35.229 36.956C36.0861 37.4354 36.7719 37.9149 37.4147 38.3507C38.0575 38.8301 38.6576 39.2659 39.129 39.7018C39.6433 40.1376 40.0719 40.617 40.4147 41.0529C40.8005 41.4888 41.1004 41.9246 41.3575 42.3604C41.6147 42.7962 41.829 43.2321 41.9576 43.6243C42.129 44.0602 42.2147 44.4524 42.3004 44.8883C42.3433 45.2805 42.3861 45.7164 42.3432 46.1086C42.3004 46.5008 42.2575 46.9367 42.129 47.3289C42.0004 47.7212 41.829 48.1134 41.6148 48.5057C41.4861 48.68 41.4004 48.898 41.229 49.0723C41.1004 49.2466 40.929 49.4645 40.8005 49.6389C40.4575 50.0311 40.1147 50.3799 39.6433 50.7721C39.2147 51.1643 38.7004 51.513 38.1432 51.8617C37.5862 52.2103 36.9004 52.559 36.2147 52.9076C35.829 53.082 35.4861 53.2564 35.0576 53.4306C34.629 53.605 34.2433 53.7794 33.7718 53.9537C33.4719 54.0409 33.1718 54.1716 32.8718 54.2587C32.7004 54.3024 32.529 54.346 32.4004 54.4331C32.229 54.4767 32.0576 54.5202 31.8861 54.6075C31.8861 54.6075 31.8004 54.651 31.5861 54.6946C31.4575 54.8254 31.1576 54.9125 30.729 54.9997Z" fill="url(#paint4_radial_201_3831)"/>
<path d="M10.5427 49.6391C10.4141 49.4647 10.3284 49.3776 10.3284 49.3776C10.2427 49.2904 10.1998 49.2032 10.1141 49.1161C10.0284 49.0289 9.98558 48.9417 9.89978 48.8546C9.89978 48.8546 9.81407 48.7674 9.68555 48.5931C9.85697 48.3751 9.94268 48.2444 9.94268 48.2444C10.1141 48.0265 10.2855 47.8521 10.4569 47.6343C10.7141 47.3291 11.0141 47.024 11.2712 46.719C11.5713 46.4139 11.8284 46.1524 12.1284 45.8473C12.4284 45.5422 12.6855 45.2807 12.9855 44.9756C13.2855 44.6705 13.5855 44.409 13.8427 44.1475C14.1427 43.886 14.4427 43.5809 14.7427 43.3194C15.0427 43.0579 15.3427 42.7964 15.6427 42.5349C15.9427 42.2734 16.2426 42.0119 16.5427 41.7504C16.8427 41.4889 17.1427 41.2275 17.4855 40.9659C17.7855 40.7044 18.0856 40.4429 18.4284 40.1814C18.7284 39.9199 19.0713 39.6584 19.3712 39.4405C19.6713 39.179 20.0141 38.961 20.3141 38.6995C20.657 38.438 20.957 38.2202 21.2998 37.9587C21.6427 37.7407 21.9427 37.4792 22.2856 37.2613C22.6284 37.0433 22.9713 36.8255 23.3141 36.564C23.5284 36.4332 23.7426 36.2588 23.957 36.1281C23.957 36.1281 24.0856 36.041 24.2998 35.9102C24.4284 36.0845 24.5141 36.1717 24.5141 36.1717C24.5998 36.2589 24.6427 36.346 24.7284 36.4332C24.8141 36.5203 24.857 36.6075 24.9427 36.6947C24.9427 36.6947 25.0284 36.7818 25.1569 36.9562C25.2427 37.1741 25.3284 37.3485 25.3712 37.4792C25.4141 37.61 25.457 37.7407 25.4999 37.8279C25.5856 38.0022 25.5856 38.1329 25.5856 38.1329C25.6284 38.3073 25.7141 38.4817 25.757 38.6559C25.7998 38.8303 25.8427 38.961 25.9284 39.1354C26.0141 39.484 26.0998 39.7891 26.1855 40.0942C26.4427 41.0531 26.6141 41.8812 26.7427 42.6657C26.8712 43.4501 26.9569 44.1911 26.9998 44.8885C27.0426 45.5858 27.0426 46.1959 26.9998 46.7625C26.9569 47.3291 26.8712 47.8521 26.7855 48.3751C26.657 48.8546 26.5284 49.334 26.357 49.7262C26.1855 50.1621 25.9712 50.5108 25.7141 50.8594C25.457 51.2081 25.1998 51.5131 24.8999 51.7747C24.5998 52.0362 24.257 52.2541 23.9141 52.472C23.5284 52.6463 23.1427 52.8207 22.7141 52.9515C22.4998 52.9951 22.2856 53.0822 22.0284 53.0822C21.8141 53.1258 21.557 53.1258 21.2998 53.1693C20.7855 53.213 20.2712 53.2129 19.7142 53.1258C19.157 53.0822 18.5569 52.9951 17.8712 52.8207C17.2284 52.69 16.4998 52.4285 15.7713 52.2105C15.3855 52.0797 14.9998 51.949 14.6141 51.7747C14.1855 51.6004 13.7998 51.426 13.3712 51.2081C13.0713 51.0774 12.8141 50.9466 12.5141 50.7723C12.3427 50.6851 12.2141 50.5979 12.0426 50.5543C11.8712 50.4672 11.6998 50.38 11.5713 50.2928C11.5713 50.2928 11.4856 50.2493 11.3141 50.1621C11.1855 50.0313 10.9284 49.9006 10.5427 49.6391Z" fill="url(#paint5_radial_201_3831)"/>
<path d="M0 31.2906C0 31.0726 0.0428598 30.9854 0.0428598 30.9854C0.0428598 30.8983 0.0428493 30.7675 0.0857066 30.6803C0.0857066 30.5932 0.0857092 30.4625 0.128566 30.3752C0.128566 30.3752 0.128569 30.2881 0.171426 30.0702C0.471426 30.0266 0.599998 30.0266 0.599998 30.0266C0.857143 29.983 1.11428 29.983 1.37143 29.983C1.75713 29.983 2.18571 29.9395 2.57143 29.9395C2.95715 29.9395 3.38571 29.9395 3.77143 29.9395C4.15714 29.9395 4.58572 29.9395 4.97144 29.9395C5.35714 29.9395 5.78572 29.9395 6.17143 29.983C6.55714 29.983 6.98571 30.0266 7.37143 30.0266C7.75714 30.0266 8.18572 30.0702 8.57143 30.1137C8.95717 30.1573 9.38573 30.1573 9.77147 30.201C10.1571 30.2445 10.5857 30.2881 10.9714 30.3317C11.3572 30.3752 11.7857 30.4188 12.1715 30.4624C12.5571 30.506 12.9857 30.5496 13.3714 30.5932C13.7572 30.6367 14.1857 30.6803 14.5715 30.7675C14.9572 30.8111 15.3857 30.8983 15.7714 30.9418C16.1571 31.0291 16.5429 31.0726 16.9714 31.1598C17.3572 31.2469 17.7428 31.3341 18.1714 31.4213C18.4286 31.4648 18.6857 31.5084 18.9429 31.5956C18.9429 31.5956 19.0714 31.6392 19.3714 31.6828C19.3714 31.9007 19.3286 31.9879 19.3286 31.9879C19.3286 32.075 19.3286 32.2058 19.2857 32.2929C19.2857 32.3801 19.2857 32.5109 19.2428 32.598C19.2428 32.598 19.2428 32.6852 19.2 32.9031C19.1143 33.121 19.0286 33.2954 18.9857 33.4261C18.9429 33.5569 18.8572 33.6876 18.8143 33.7748C18.7286 33.9491 18.6857 34.0363 18.6857 34.0363C18.6 34.2106 18.5143 34.385 18.4286 34.5593C18.3429 34.6901 18.2572 34.8644 18.2143 34.9952C18.0429 35.3002 17.9143 35.5617 17.7428 35.8668C17.2715 36.7385 16.8 37.4359 16.3715 38.0896C15.9 38.7433 15.4715 39.3535 15.0429 39.8329C14.6143 40.3559 14.1429 40.7918 13.7143 41.1405C13.2857 41.5327 12.8571 41.8378 12.4286 42.0993C12 42.3608 11.5714 42.5787 11.1857 42.7531C10.7572 42.9274 10.3714 43.0146 9.94289 43.1017C9.55715 43.1453 9.1286 43.1889 8.74285 43.1453C8.35715 43.1017 7.92858 43.0582 7.54287 42.9274C7.15715 42.7966 6.77143 42.6223 6.38572 42.4044C6.21429 42.2736 6 42.1865 5.82858 42.0121C5.65715 41.8814 5.44286 41.707 5.27143 41.5762C4.88571 41.2276 4.54285 40.879 4.15714 40.3995C3.77143 39.9637 3.42856 39.4407 3.08571 38.8741C2.74285 38.3075 2.4 37.6101 2.05714 36.9128C1.88571 36.5205 1.71429 36.1719 1.54286 35.7361C1.37143 35.3002 1.2 34.908 1.02857 34.4286C0.942854 34.1235 0.814278 33.8184 0.728564 33.5132C0.685707 33.339 0.642852 33.1646 0.557138 33.0339C0.514281 32.8595 0.471426 32.6852 0.385712 32.5109C0.385712 32.5109 0.34285 32.4236 0.299992 32.2058C0.171421 32.0314 0.0857143 31.7699 0 31.2906Z" fill="url(#paint6_radial_201_3831)"/>
<path d="M5.27107 10.7623C5.4425 10.6315 5.52822 10.5444 5.52822 10.5444C5.61393 10.4572 5.69965 10.4136 5.78536 10.3264C5.87108 10.2393 5.95679 10.1957 6.04251 10.1086C6.04251 10.1086 6.12821 10.0213 6.29964 9.89062C6.51393 10.0649 6.6425 10.1521 6.6425 10.1521C6.85679 10.3264 7.02822 10.5008 7.2425 10.6751C7.5425 10.9366 7.8425 11.2416 8.1425 11.5032C8.44251 11.8082 8.69969 12.0697 8.99964 12.3748C9.29967 12.68 9.5568 12.9415 9.85683 13.2466C10.1568 13.5516 10.4139 13.8567 10.671 14.1182C10.9283 14.4233 11.2282 14.7284 11.4853 15.0335C11.7425 15.3385 11.9997 15.6436 12.2568 15.9487C12.514 16.2539 12.7711 16.5589 13.0282 16.864C13.2854 17.1691 13.5425 17.4742 13.7996 17.8228C14.0568 18.1279 14.314 18.433 14.5711 18.7817C14.8282 19.0868 15.0854 19.4354 15.2997 19.7405C15.5568 20.0456 15.7711 20.3943 16.0282 20.6994C16.2854 21.0481 16.4996 21.3531 16.7568 21.7018C16.9711 22.0504 17.2282 22.3555 17.4425 22.7043C17.6568 23.0529 17.8711 23.4015 18.1282 23.7503C18.2568 23.9681 18.4283 24.1861 18.5568 24.404C18.5568 24.404 18.6425 24.5347 18.7711 24.7527C18.5997 24.8835 18.514 24.9706 18.514 24.9706C18.4282 25.0577 18.3426 25.1013 18.2568 25.1885C18.171 25.2757 18.0853 25.3192 17.9996 25.4065C17.9996 25.4065 17.9139 25.4936 17.7425 25.6243C17.5283 25.7115 17.3567 25.7987 17.2282 25.8423C17.0996 25.8858 16.9711 25.9294 16.8854 25.9731C16.714 26.0602 16.5854 26.0602 16.5854 26.0602C16.4139 26.1038 16.2425 26.1909 16.0711 26.2346C15.8997 26.2781 15.7711 26.3217 15.5996 26.4088C15.2568 26.496 14.9568 26.5832 14.6568 26.6704C13.7139 26.9319 12.8996 27.1062 12.1282 27.2369C11.3568 27.3677 10.6282 27.4549 9.94254 27.4984C9.25677 27.542 8.65679 27.542 8.09965 27.4984C7.5425 27.4549 7.02821 27.3677 6.51393 27.2805C6.0425 27.1498 5.57108 27.019 5.18536 26.8447C4.75679 26.6704 4.41393 26.4524 4.07107 26.1909C3.72822 25.9294 3.42821 25.668 3.17107 25.3628C2.91393 25.0577 2.69964 24.7091 2.48535 24.3604C2.31392 23.9681 2.14249 23.5759 2.01392 23.14C1.97106 22.9222 1.88536 22.7043 1.88536 22.4427C1.84249 22.2248 1.84249 21.9633 1.79964 21.7018C1.75677 21.1788 1.75678 20.6558 1.84249 20.0892C1.88535 19.5226 1.97107 18.9124 2.1425 18.2151C2.27107 17.5613 2.52821 16.8204 2.7425 16.0795C2.87107 15.6872 2.99964 15.295 3.17107 14.9028C3.3425 14.4669 3.51392 14.0747 3.72821 13.6388C3.85678 13.3337 3.98535 13.0722 4.15678 12.7671C4.24249 12.5928 4.32821 12.462 4.37107 12.2877C4.45678 12.1134 4.5425 11.939 4.62821 11.8082C4.62821 11.8082 4.67107 11.7211 4.75679 11.5468C4.88536 11.416 5.05678 11.1545 5.27107 10.7623Z" fill="url(#paint7_radial_201_3831)"/>
<path d="M84.3849 18.2588V34.2104H81.3849V28.3702H78.0421L72.3849 34.2104H68.7849V33.7311L73.9707 28.3266C70.7135 28.1523 68.6992 26.3218 68.6992 23.4453V23.1838C68.6992 20.1329 70.9278 18.2588 74.5277 18.2588H84.3849ZM81.3849 20.961H74.6563C72.8134 20.961 71.7849 21.7455 71.7849 23.1838V23.4453C71.7849 24.84 72.8134 25.6681 74.6563 25.6681H81.3849V20.961Z" fill="black"/>
<path d="M93.1707 20.961H86.6992V18.2588H102.6V20.961H96.1283V34.1669H93.128V20.961H93.1707Z" fill="black"/>
<path d="M121.758 26.0605V26.4092C121.758 31.3342 118.157 34.5158 112.5 34.5158C107.358 34.5158 103.543 31.6392 103.543 27.8038V27.6731H106.586V27.8038C106.586 30.0703 109.029 31.6829 112.5 31.6829C116.058 31.6829 118.2 30.2881 118.629 27.586H110.014V24.8838H118.629C118.157 22.2251 116.014 20.7869 112.5 20.7869C109.072 20.7869 106.586 22.4431 106.586 24.7094V24.8402H103.543V24.7094C103.543 20.8304 107.358 17.9975 112.5 17.9975C118.157 17.9539 121.758 21.1355 121.758 26.0605Z" fill="black"/>
<path d="M141 18.6946L133.971 26.0167L140.7 33.7311V34.2104H137.228L131.228 27.4985H128.142V34.2104H125.143V18.2588H128.142V24.7527H131.228L137.399 18.2588H141V18.6946Z" fill="black"/>
<defs>
<radialGradient id="paint0_radial_201_3831" cx="0" cy="0" r="1" gradientUnits="userSpaceOnUse" gradientTransform="translate(26.7376 27.5959) scale(26.3471 26.7938)">
<stop stop-color="#59C2E8"/>
<stop offset="0.467" stop-color="#58C1E7"/>
<stop offset="0.5018" stop-color="#55BAE3"/>
<stop offset="0.7093" stop-color="#4591CA"/>
<stop offset="0.9944" stop-color="#2C53A4"/>
</radialGradient>
<radialGradient id="paint1_radial_201_3831" cx="0" cy="0" r="1" gradientUnits="userSpaceOnUse" gradientTransform="translate(26.7377 27.5959) scale(26.347 26.7938)">
<stop stop-color="#59C2E8"/>
<stop offset="0.467" stop-color="#58C1E7"/>
<stop offset="0.5018" stop-color="#55BAE3"/>
<stop offset="0.7093" stop-color="#4591CA"/>
<stop offset="0.9944" stop-color="#2C53A4"/>
</radialGradient>
<radialGradient id="paint2_radial_201_3831" cx="0" cy="0" r="1" gradientUnits="userSpaceOnUse" gradientTransform="translate(26.7381 27.5956) scale(26.3471 26.7938)">
<stop stop-color="#59C2E8"/>
<stop offset="0.467" stop-color="#58C1E7"/>
<stop offset="0.5018" stop-color="#55BAE3"/>
<stop offset="0.7093" stop-color="#4591CA"/>
<stop offset="0.9944" stop-color="#2C53A4"/>
</radialGradient>
<radialGradient id="paint3_radial_201_3831" cx="0" cy="0" r="1" gradientUnits="userSpaceOnUse" gradientTransform="translate(26.7369 27.5959) scale(26.347 26.7938)">
<stop stop-color="#59C2E8"/>
<stop offset="0.467" stop-color="#58C1E7"/>
<stop offset="0.5018" stop-color="#55BAE3"/>
<stop offset="0.7093" stop-color="#4591CA"/>
<stop offset="0.9944" stop-color="#2C53A4"/>
</radialGradient>
<radialGradient id="paint4_radial_201_3831" cx="0" cy="0" r="1" gradientUnits="userSpaceOnUse" gradientTransform="translate(26.7384 27.5956) scale(26.347 26.7938)">
<stop stop-color="#59C2E8"/>
<stop offset="0.467" stop-color="#58C1E7"/>
<stop offset="0.5018" stop-color="#55BAE3"/>
<stop offset="0.7093" stop-color="#4591CA"/>
<stop offset="0.9944" stop-color="#2C53A4"/>
</radialGradient>
<radialGradient id="paint5_radial_201_3831" cx="0" cy="0" r="1" gradientUnits="userSpaceOnUse" gradientTransform="translate(26.7378 27.5958) scale(26.347 26.7938)">
<stop stop-color="#59C2E8"/>
<stop offset="0.467" stop-color="#58C1E7"/>
<stop offset="0.5018" stop-color="#55BAE3"/>
<stop offset="0.7093" stop-color="#4591CA"/>
<stop offset="0.9944" stop-color="#2C53A4"/>
</radialGradient>
<radialGradient id="paint6_radial_201_3831" cx="0" cy="0" r="1" gradientUnits="userSpaceOnUse" gradientTransform="translate(26.738 27.596) scale(26.347 26.7938)">
<stop stop-color="#59C2E8"/>
<stop offset="0.467" stop-color="#58C1E7"/>
<stop offset="0.5018" stop-color="#55BAE3"/>
<stop offset="0.7093" stop-color="#4591CA"/>
<stop offset="0.9944" stop-color="#2C53A4"/>
</radialGradient>
<radialGradient id="paint7_radial_201_3831" cx="0" cy="0" r="1" gradientUnits="userSpaceOnUse" gradientTransform="translate(26.7376 27.5957) scale(26.3471 26.7938)">
<stop stop-color="#59C2E8"/>
<stop offset="0.467" stop-color="#58C1E7"/>
<stop offset="0.5018" stop-color="#55BAE3"/>
<stop offset="0.7093" stop-color="#4591CA"/>
<stop offset="0.9944" stop-color="#2C53A4"/>
</radialGradient>
</defs>
</svg>
