<svg width="141" height="55" fill="none" xmlns="http://www.w3.org/2000/svg"><path d="M47.957 45.28c-2.143-1.917-5.1-4.924-6.9-7.19-1.543-1.875-3.043-3.792-4.415-5.797-.342-.567-.728-1.133-1.114-1.7 0 0-.086-.087-.257-.392-.343-.567 2.486-1.395 2.7-1.482a29.04 29.04 0 0 1 3.943-1.003c1.928-.305 3.771-.435 5.614 0 .472.131.943.262 1.329.436a5.607 5.607 0 0 1 3.128 3.705c.043.218.129.436.129.697.043.218.043.48.086.741.128 1.874-.3 3.748-.943 5.622-.3 1.047-1.672 3.749-2.057 4.577-.086.13-.986 1.961-1.243 1.787Z" fill="url(#a)"/><path d="M54.086 25.014c-2.872.175-6.986.175-9.9-.13-2.4-.218-4.8-.48-7.158-.96-.642-.13-1.285-.26-1.971-.435 0 0-.129 0-.429-.087-.642-.175.815-2.79.858-2.964.6-1.22 1.37-2.528 2.1-3.574 1.114-1.613 2.357-3.05 3.942-4.053.429-.262.858-.48 1.243-.61 1.586-.654 3.343-.523 4.8.392.172.13.386.218.557.392.172.13.386.305.557.436 1.415 1.264 2.4 2.877 3.258 4.663.514.96 1.414 3.836 1.714 4.707.129.262.729 2.223.429 2.223Z" fill="url(#b)"/><path d="M44.357 6.317c-1.885 2.179-4.843 5.186-7.071 7.017-1.843 1.569-3.729 3.094-5.7 4.489-.557.348-1.114.74-1.672 1.133 0 0-.085.087-.385.261-.557.349-1.372-2.528-1.457-2.745a30.36 30.36 0 0 1-.986-4.01c-.3-1.961-.429-3.836 0-5.71.129-.48.257-.958.428-1.35.686-1.57 2.015-2.747 3.643-3.182.215-.044.429-.131.686-.131.214-.044.472-.044.729-.087 1.842-.131 3.685.305 5.528.959 1.029.305 3.686 1.7 4.5 2.092.129.087 1.929 1.002 1.757 1.264Z" fill="url(#c)"/><path d="M24.427.084c.172 2.92.172 7.105-.128 10.068-.215 2.44-.472 4.882-.943 7.279-.129.653-.257 1.307-.429 2.005 0 0 0 .13-.085.435-.172.654-2.743-.828-2.915-.871a28.125 28.125 0 0 1-3.514-2.136c-1.586-1.133-3-2.397-3.986-4.01a11.817 11.817 0 0 1-.642-1.263c-.643-1.613-.515-3.4.385-4.882.129-.174.215-.392.386-.566.129-.175.3-.393.429-.567 1.242-1.438 2.828-2.44 4.585-3.312C18.513 1.74 21.342.825 22.2.52c.257-.13 2.186-.74 2.228-.436Z" fill="url(#d)"/><path d="M30.729 55c-.214 0-.3-.044-.3-.044-.086 0-.214 0-.3-.044-.086 0-.214 0-.3-.043 0 0-.086 0-.3-.044-.043-.305-.043-.436-.043-.436-.043-.261-.043-.523-.043-.784 0-.392-.043-.828-.043-1.22v-2.441c0-.392 0-.828.043-1.22 0-.393.043-.828.043-1.22 0-.393.043-.829.086-1.221.043-.392.043-.828.085-1.22.043-.393.086-.829.13-1.22.042-.393.085-.829.128-1.221.043-.392.085-.828.128-1.22.043-.393.086-.829.172-1.22.043-.393.128-.829.171-1.221.086-.392.129-.785.214-1.22.086-.393.172-.785.258-1.22.043-.262.085-.524.171-.785 0 0 .043-.131.086-.436.214 0 .3.043.3.043.085 0 .214 0 .3.044.085 0 .214 0 .3.044 0 0 .085 0 .3.043.214.087.385.175.514.218.129.044.257.13.343.174l.257.131.514.262c.129.087.3.174.429.218.3.174.557.305.857.479.857.48 1.543.959 2.186 1.395.642.48 1.243.915 1.714 1.35a9.33 9.33 0 0 1 1.286 1.352c.386.436.685.872.943 1.307.257.436.471.872.6 1.264.171.436.257.828.342 1.264.043.393.086.828.043 1.22-.043.393-.086.829-.214 1.22a7.02 7.02 0 0 1-.514 1.178c-.129.174-.215.392-.386.566-.129.175-.3.392-.428.567a9.733 9.733 0 0 1-1.158 1.133c-.428.392-.943.741-1.5 1.09-.557.348-1.243.697-1.928 1.046-.386.174-.729.348-1.157.523-.429.174-.815.348-1.286.523-.3.087-.6.218-.9.305-.172.043-.343.087-.472.174-.171.044-.342.087-.514.175 0 0-.086.043-.3.087-.128.13-.428.218-.857.305Z" fill="url(#e)"/><path d="M10.543 49.64c-.129-.175-.215-.262-.215-.262-.085-.088-.128-.175-.214-.262-.086-.087-.128-.174-.214-.261 0 0-.086-.088-.214-.262.171-.218.257-.349.257-.349.171-.218.343-.392.514-.61.257-.305.557-.61.814-.915l.857-.872.857-.871c.3-.306.6-.567.858-.828.3-.262.6-.567.9-.829l.9-.784.9-.785c.3-.261.6-.523.942-.784.3-.262.6-.523.943-.785.3-.261.643-.523.943-.74.3-.262.643-.48.943-.742.343-.261.643-.479.986-.74.343-.218.643-.48.986-.698.342-.218.685-.436 1.028-.697.214-.13.429-.305.643-.436 0 0 .129-.087.343-.218.128.175.214.262.214.262.086.087.129.174.214.261.086.087.129.175.215.262 0 0 .085.087.214.261.086.218.171.392.214.523.043.131.086.262.129.349a.763.763 0 0 1 .086.305c.042.174.128.349.171.523.043.174.086.305.171.48.086.348.172.653.258.958.257.96.428 1.787.557 2.572.128.784.214 1.525.257 2.223.043.697.043 1.307 0 1.873-.043.567-.129 1.09-.215 1.613-.128.48-.257.959-.428 1.351a4.834 4.834 0 0 1-.643 1.133 5.58 5.58 0 0 1-.814.916c-.3.261-.643.48-.986.697-.386.174-.771.349-1.2.48-.214.043-.428.13-.686.13-.214.044-.471.044-.728.087a6.493 6.493 0 0 1-1.586-.043 10.747 10.747 0 0 1-1.843-.305c-.643-.131-1.371-.392-2.1-.61-.386-.131-.771-.262-1.157-.436a15.683 15.683 0 0 1-1.243-.567c-.3-.13-.557-.261-.857-.436-.171-.087-.3-.174-.471-.218a4.624 4.624 0 0 1-.472-.261l-.257-.13c-.129-.132-.386-.262-.771-.524Z" fill="url(#f)"/><path d="M0 31.29c0-.217.043-.305.043-.305 0-.087 0-.218.043-.305 0-.087 0-.218.043-.305 0 0 0-.087.042-.305.3-.043.429-.043.429-.043.257-.044.514-.044.771-.044.386 0 .815-.044 1.2-.044h2.4c.386 0 .815 0 1.2.044.386 0 .815.044 1.2.044.386 0 .815.043 1.2.087.386.043.815.043 1.2.087.386.043.815.087 1.2.13.386.044.815.088 1.2.131.386.044.815.088 1.2.131.386.044.815.087 1.2.174.386.044.815.131 1.2.175.386.087.772.13 1.2.218.386.087.772.174 1.2.261a4.9 4.9 0 0 1 .772.175s.128.043.428.087c0 .218-.042.305-.042.305 0 .087 0 .218-.043.305 0 .087 0 .218-.043.305 0 0 0 .087-.043.305-.086.218-.171.392-.214.523-.043.13-.129.262-.172.349l-.128.261-.257.523c-.086.131-.172.305-.215.436-.171.305-.3.567-.471.872-.471.872-.943 1.569-1.371 2.223-.472.653-.9 1.263-1.33 1.743-.428.523-.9.959-1.328 1.308a8.197 8.197 0 0 1-1.285.958c-.429.262-.858.48-1.243.654-.429.174-.815.262-1.243.349-.386.043-.814.087-1.2.043-.386-.043-.814-.087-1.2-.218a6.784 6.784 0 0 1-1.157-.523c-.172-.13-.386-.218-.557-.392-.172-.13-.386-.305-.558-.436A9.724 9.724 0 0 1 4.157 40.4c-.386-.436-.728-.96-1.071-1.526-.343-.567-.686-1.264-1.029-1.961-.171-.392-.343-.741-.514-1.177-.172-.436-.343-.828-.514-1.307-.086-.306-.215-.61-.3-.916-.043-.174-.086-.348-.172-.48a2.484 2.484 0 0 0-.171-.522s-.043-.087-.086-.305c-.129-.175-.214-.436-.3-.915Z" fill="url(#g)"/><path d="M5.271 10.762c.171-.13.257-.218.257-.218.086-.087.172-.13.257-.218.086-.087.172-.13.258-.217 0 0 .085-.088.257-.218.214.174.343.261.343.261.214.174.385.349.6.523.3.262.6.567.9.828a4412.227 4412.227 0 0 1 1.714 1.744c.3.305.557.61.814.871.257.305.557.61.814.915l.772.916.771.915c.257.305.514.61.772.959.257.305.514.61.771.959.257.305.514.653.729.959.257.305.471.653.728.958.257.35.472.654.729 1.003.214.348.471.653.685 1.002.215.349.43.697.686 1.046.129.218.3.436.429.654 0 0 .085.13.214.349-.171.13-.257.218-.257.218-.086.087-.171.13-.257.218-.086.087-.172.13-.257.218 0 0-.086.087-.258.217-.214.088-.385.175-.514.218a2.882 2.882 0 0 0-.343.131c-.171.087-.3.087-.3.087-.171.044-.343.13-.514.175-.171.043-.3.087-.471.174-.343.087-.643.174-.943.261-.943.262-1.757.436-2.529.567-.771.13-1.5.218-2.185.261-.686.044-1.286.044-1.843 0a17.387 17.387 0 0 1-1.586-.218c-.471-.13-.943-.261-1.329-.435a4.713 4.713 0 0 1-1.114-.654 5.543 5.543 0 0 1-.9-.828c-.257-.305-.471-.654-.686-1.003-.171-.392-.343-.784-.471-1.22-.043-.218-.129-.436-.129-.697-.043-.218-.043-.48-.085-.741a6.83 6.83 0 0 1 .042-1.613c.043-.566.13-1.177.3-1.874.13-.654.386-1.395.6-2.136.13-.392.258-.784.43-1.176.17-.436.342-.828.556-1.264.129-.305.257-.567.429-.872.085-.174.171-.305.214-.48.086-.174.171-.348.257-.479l.129-.261c.128-.131.3-.393.514-.785Z" fill="url(#h)"/><path d="M84.385 18.259V34.21h-3v-5.84h-3.343l-5.657 5.84h-3.6v-.479l5.186-5.404c-3.258-.175-5.272-2.005-5.272-4.882v-.261c0-3.051 2.229-4.925 5.829-4.925h9.857Zm-3 2.702h-6.729c-1.843 0-2.871.785-2.871 2.223v.261c0 1.395 1.028 2.223 2.871 2.223h6.729v-4.707ZM93.17 20.961H86.7v-2.702h15.9v2.702h-6.472v13.206h-3V20.96h.043ZM121.758 26.06v.35c0 4.924-3.601 8.106-9.258 8.106-5.142 0-8.957-2.877-8.957-6.712v-.13h3.043v.13c0 2.266 2.443 3.879 5.914 3.879 3.558 0 5.7-1.395 6.129-4.097h-8.615v-2.702h8.615c-.472-2.659-2.615-4.097-6.129-4.097-3.428 0-5.914 1.656-5.914 3.922v.131h-3.043v-.13c0-3.88 3.815-6.713 8.957-6.713 5.657-.043 9.258 3.139 9.258 8.064ZM141 18.695l-7.029 7.322 6.729 7.714v.48h-3.472l-6-6.712h-3.086v6.711h-2.999V18.26h2.999v6.494h3.086l6.171-6.494H141v.436Z" fill="#000"/><defs><radialGradient id="a" cx="0" cy="0" r="1" gradientUnits="userSpaceOnUse" gradientTransform="matrix(26.3471 0 0 26.7938 26.738 27.596)"><stop stop-color="#59C2E8"/><stop offset=".467" stop-color="#58C1E7"/><stop offset=".502" stop-color="#55BAE3"/><stop offset=".709" stop-color="#4591CA"/><stop offset=".994" stop-color="#2C53A4"/></radialGradient><radialGradient id="b" cx="0" cy="0" r="1" gradientUnits="userSpaceOnUse" gradientTransform="matrix(26.347 0 0 26.7938 26.738 27.596)"><stop stop-color="#59C2E8"/><stop offset=".467" stop-color="#58C1E7"/><stop offset=".502" stop-color="#55BAE3"/><stop offset=".709" stop-color="#4591CA"/><stop offset=".994" stop-color="#2C53A4"/></radialGradient><radialGradient id="c" cx="0" cy="0" r="1" gradientUnits="userSpaceOnUse" gradientTransform="matrix(26.3471 0 0 26.7938 26.738 27.596)"><stop stop-color="#59C2E8"/><stop offset=".467" stop-color="#58C1E7"/><stop offset=".502" stop-color="#55BAE3"/><stop offset=".709" stop-color="#4591CA"/><stop offset=".994" stop-color="#2C53A4"/></radialGradient><radialGradient id="d" cx="0" cy="0" r="1" gradientUnits="userSpaceOnUse" gradientTransform="matrix(26.347 0 0 26.7938 26.737 27.596)"><stop stop-color="#59C2E8"/><stop offset=".467" stop-color="#58C1E7"/><stop offset=".502" stop-color="#55BAE3"/><stop offset=".709" stop-color="#4591CA"/><stop offset=".994" stop-color="#2C53A4"/></radialGradient><radialGradient id="e" cx="0" cy="0" r="1" gradientUnits="userSpaceOnUse" gradientTransform="matrix(26.347 0 0 26.7938 26.738 27.596)"><stop stop-color="#59C2E8"/><stop offset=".467" stop-color="#58C1E7"/><stop offset=".502" stop-color="#55BAE3"/><stop offset=".709" stop-color="#4591CA"/><stop offset=".994" stop-color="#2C53A4"/></radialGradient><radialGradient id="f" cx="0" cy="0" r="1" gradientUnits="userSpaceOnUse" gradientTransform="matrix(26.347 0 0 26.7938 26.738 27.596)"><stop stop-color="#59C2E8"/><stop offset=".467" stop-color="#58C1E7"/><stop offset=".502" stop-color="#55BAE3"/><stop offset=".709" stop-color="#4591CA"/><stop offset=".994" stop-color="#2C53A4"/></radialGradient><radialGradient id="g" cx="0" cy="0" r="1" gradientUnits="userSpaceOnUse" gradientTransform="matrix(26.347 0 0 26.7938 26.738 27.596)"><stop stop-color="#59C2E8"/><stop offset=".467" stop-color="#58C1E7"/><stop offset=".502" stop-color="#55BAE3"/><stop offset=".709" stop-color="#4591CA"/><stop offset=".994" stop-color="#2C53A4"/></radialGradient><radialGradient id="h" cx="0" cy="0" r="1" gradientUnits="userSpaceOnUse" gradientTransform="matrix(26.3471 0 0 26.7938 26.738 27.596)"><stop stop-color="#59C2E8"/><stop offset=".467" stop-color="#58C1E7"/><stop offset=".502" stop-color="#55BAE3"/><stop offset=".709" stop-color="#4591CA"/><stop offset=".994" stop-color="#2C53A4"/></radialGradient></defs></svg>