<svg width="150" height="29" fill="none" xmlns="http://www.w3.org/2000/svg"><g clip-path="url(#a)"><path d="M0 2.854A2.857 2.857 0 0 1 2.86 0h22.883c1.58 0 2.86 1.278 2.86 2.854v22.834a2.857 2.857 0 0 1-2.86 2.854H2.86A2.857 2.857 0 0 1 0 25.688V2.854ZM41.126 26.274l-.297-.762h-.04c-.258.324-.525.55-.8.677-.271.124-.627.186-1.066.186-.54 0-.965-.154-1.277-.462-.308-.308-.462-.746-.462-1.314 0-.596.207-1.034.623-1.315.42-.284 1.05-.441 1.89-.471l.976-.03v-.246c0-.569-.292-.853-.875-.853-.45 0-.977.135-1.584.406l-.508-1.033a4.579 4.579 0 0 1 2.152-.507c.755 0 1.333.164 1.735.491.402.328.603.827.603 1.496v3.737h-1.07Zm-.453-2.599-.593.02c-.446.014-.778.094-.996.241-.218.148-.327.372-.327.673 0 .431.248.647.745.647.355 0 .638-.102.85-.306.214-.204.321-.475.321-.813v-.462ZM56.025 22.135c0 .301-.096.559-.287.773-.188.21-.466.346-.834.406v.04c.398.047.713.184.945.412.234.224.352.501.352.833 0 .545-.215.961-.644 1.249-.429.284-1.042.426-1.84.426h-2.881v-5.609h2.88c.772 0 1.348.126 1.73.376.386.248.579.612.579 1.094Zm-1.413 2.383c0-.22-.086-.38-.257-.476-.17-.1-.427-.15-.769-.15H52.37v1.324h1.247c.325 0 .572-.06.74-.181a.602.602 0 0 0 .256-.517Zm-.14-2.262c0-.342-.272-.512-.815-.512h-1.288v1.108h1.112c.325 0 .571-.046.739-.14.167-.094.251-.246.251-.456ZM69.125 20.665v1.149h-1.84v4.46h-1.534v-4.46h-1.845v-1.149h5.22ZM78.45 23.46c0 .556.09.975.272 1.26.184.284.483.426.895.426.409 0 .702-.14.88-.421.18-.285.271-.706.271-1.265 0-.555-.09-.971-.271-1.249-.181-.277-.478-.416-.89-.416-.41 0-.704.139-.885.416-.181.274-.272.69-.272 1.25Zm3.887 0c0 .913-.241 1.628-.724 2.143-.483.515-1.155.772-2.016.772-.54 0-1.016-.117-1.428-.35a2.37 2.37 0 0 1-.95-1.02c-.222-.44-.332-.956-.332-1.544 0-.917.24-1.63.719-2.138s1.153-.762 2.02-.762c.54 0 1.017.117 1.429.35.412.235.729.571.95 1.01.221.437.332.95.332 1.54ZM95.975 25.155h.82v3.131h-1.379v-2.012H90.66v-5.609h1.534v4.46h2.242v-4.46h1.539v4.49ZM107.131 21.65c-.325 0-.58.103-.764.31-.185.204-.291.495-.317.873h2.152c-.007-.378-.105-.669-.297-.873-.191-.207-.449-.31-.774-.31Zm.216 4.725c-.905 0-1.612-.249-2.122-.747-.509-.498-.764-1.204-.764-2.117 0-.94.234-1.666.704-2.178.473-.515 1.124-.772 1.956-.772.795 0 1.412.225 1.855.677.442.451.664 1.075.664 1.871v.743h-3.626c.017.435.147.774.388 1.018.241.244.58.366 1.016.366.338 0 .658-.035.96-.105.302-.07.617-.182.945-.336v1.184a3.516 3.516 0 0 1-.86.296c-.305.067-.677.1-1.116.1ZM119.473 20.665v2.157h2.141v-2.157h1.534v5.61h-1.534V23.96h-2.141v2.313h-1.534v-5.609h1.534ZM136.461 20.665v1.149h-1.84v4.46h-1.534v-4.46h-1.845v-1.149h5.219ZM147.654 26.375c-.661 0-1.179-.239-1.554-.717h-.08c.053.468.08.74.08.813v2.272h-1.534v-8.077h1.247l.216.727h.071c.358-.555.89-.832 1.594-.832.664 0 1.183.255 1.558.767.376.512.563 1.223.563 2.133 0 .598-.089 1.118-.266 1.56-.174.441-.424.777-.749 1.008a1.93 1.93 0 0 1-1.146.346Zm-.453-4.59c-.379 0-.656.117-.83.35-.174.232-.264.615-.271 1.15v.165c0 .602.088 1.034.266 1.295.181.26.466.391.855.391.688 0 1.031-.565 1.031-1.696 0-.552-.086-.965-.257-1.239-.167-.277-.432-.416-.794-.416Z" fill="#101010"/><path d="M11.443 25.117H5.722l-2.288-5.104h5.72l2.289 5.104Z" fill="#fff"/><path d="M25.17 10.124c0 2.348-.623 4.166-1.876 5.455-1.241 1.276-3.58 1.914-5.875 1.914l-4.262 7.624-2.288-5.742v-6.38h7.168c.864 0 1.66-.549 2.048-1.41.76-1.697-.349-3.694-2.048-3.694H6.865L5.148 3.425h12.843c2.386 0 4.182.58 5.384 1.742 1.195 1.16 1.796 2.813 1.796 4.957ZM44.785 6.69c0 1.092-.324 1.937-.972 2.535-.644.593-1.56.89-2.749.89h-.744v3.244h-2.648V3.58h3.392c1.238 0 2.168.27 2.789.81s.932 1.306.932 2.3ZM40.32 7.96h.483c.397 0 .712-.11.945-.334.237-.223.355-.53.355-.923 0-.66-.366-.99-1.1-.99h-.683v2.248ZM49.818 9.8v3.56H47.17V3.58h3.211c2.664 0 3.996.962 3.996 2.889 0 1.133-.555 2.009-1.663 2.629l2.856 4.261h-3.003L50.488 9.8h-.67Zm0-1.986h.496c.925 0 1.388-.409 1.388-1.225 0-.673-.454-1.01-1.361-1.01h-.523v2.235ZM66.457 8.455c0 1.646-.405 2.897-1.214 3.753-.808.856-1.993 1.284-3.553 1.284-1.537 0-2.717-.43-3.54-1.29-.817-.861-1.226-2.114-1.226-3.76 0-1.628.407-2.87 1.22-3.726.818-.86 2.005-1.291 3.56-1.291 1.56 0 2.742.426 3.546 1.277.805.852 1.207 2.103 1.207 3.753Zm-6.744 0c0 1.891.659 2.837 1.977 2.837.67 0 1.167-.23 1.489-.69.326-.459.489-1.175.489-2.147 0-.976-.165-1.697-.496-2.16-.326-.469-.816-.703-1.468-.703-1.328 0-1.991.955-1.991 2.863ZM71.659 13.36H69.05V3.58h5.792V5.7h-3.184v1.866h2.936v2.12h-2.936v3.673ZM83.094 13.36h-5.819V3.58h5.82V5.7h-3.172v1.538h2.937v2.12h-2.937v1.847h3.171v2.154ZM92.043 10.389c0 .606-.155 1.146-.463 1.619-.308.468-.753.834-1.334 1.097-.581.258-1.263.388-2.045.388-.652 0-1.2-.045-1.642-.134a6.236 6.236 0 0 1-1.381-.482v-2.354c.505.258 1.03.461 1.575.608a5.968 5.968 0 0 0 1.502.214c.393 0 .681-.067.865-.2a.635.635 0 0 0 .274-.529.551.551 0 0 0-.114-.348 1.193 1.193 0 0 0-.355-.307c-.16-.103-.594-.312-1.3-.63-.64-.289-1.12-.57-1.442-.842a2.637 2.637 0 0 1-.71-.936c-.152-.353-.228-.77-.228-1.251 0-.901.328-1.604.985-2.108s1.56-.756 2.709-.756c1.014 0 2.049.235 3.104.703l-.812 2.04c-.916-.419-1.707-.629-2.373-.629-.344 0-.594.06-.75.181a.546.546 0 0 0-.235.448c0 .192.098.364.295.515.2.152.742.428 1.622.83.845.379 1.43.787 1.756 1.224.331.433.497.979.497 1.639ZM100.79 10.389c0 .606-.155 1.146-.462 1.619-.308.468-.754.834-1.334 1.097-.581.258-1.263.388-2.045.388-.652 0-1.2-.045-1.642-.134a6.232 6.232 0 0 1-1.381-.482v-2.354c.504.258 1.03.461 1.575.608a5.967 5.967 0 0 0 1.502.214c.392 0 .681-.067.864-.2a.634.634 0 0 0 .275-.529.551.551 0 0 0-.114-.348 1.197 1.197 0 0 0-.355-.307c-.161-.103-.594-.312-1.3-.63-.64-.289-1.12-.57-1.442-.842a2.645 2.645 0 0 1-.71-.936c-.153-.353-.229-.77-.229-1.251 0-.901.328-1.604.986-2.108.657-.504 1.56-.756 2.708-.756 1.014 0 2.05.235 3.104.703l-.81 2.04c-.918-.419-1.708-.629-2.374-.629-.345 0-.595.06-.751.181a.548.548 0 0 0-.235.448c0 .192.099.364.295.515.201.152.742.428 1.622.83.845.379 1.431.787 1.757 1.224.331.433.496.979.496 1.639ZM103.129 13.36V3.58h2.661v9.78h-2.661ZM117.911 8.455c0 1.646-.404 2.897-1.213 3.753-.809.856-1.993 1.284-3.553 1.284-1.537 0-2.717-.43-3.539-1.29-.818-.861-1.227-2.114-1.227-3.76 0-1.628.407-2.87 1.22-3.726.818-.86 2.005-1.291 3.56-1.291 1.559 0 2.741.426 3.546 1.277.804.852 1.206 2.103 1.206 3.753Zm-6.743 0c0 1.891.659 2.837 1.977 2.837.67 0 1.166-.23 1.489-.69.326-.459.489-1.175.489-2.147 0-.976-.166-1.697-.496-2.16-.326-.469-.815-.703-1.468-.703-1.327 0-1.991.955-1.991 2.863ZM129.836 13.36h-3.473l-3.58-6.891h-.06c.085 1.084.127 1.91.127 2.482v4.408h-2.346V3.58h3.459l3.567 6.797h.04A38.964 38.964 0 0 1 127.476 8V3.579h2.36v9.78ZM138.792 13.36l-.483-1.834h-3.184l-.496 1.833h-2.91l3.198-9.82h3.533l3.238 9.82h-2.896Zm-1.033-4.001-.422-1.606a71.137 71.137 0 0 1-.362-1.384 23.5 23.5 0 0 1-.274-1.218c-.041.228-.121.602-.242 1.124-.117.522-.378 1.55-.785 3.084h2.085ZM143.578 13.36V3.58h2.649v7.645h3.774v2.134h-6.423Z" fill="#FA2742"/></g><defs><clipPath id="a"><path fill="#fff" d="M0 0h150v29H0z"/></clipPath></defs></svg>