<svg width="149" height="29" fill="none" xmlns="http://www.w3.org/2000/svg"><g clip-path="url(#a)" fill="#343434"><path d="m28.69 26.434-4.792-8.623h2.267l3.52 6.393 2.878-6.393h2.047l-4.008 8.719c-.889 1.922-1.72 2.422-2.83 2.422-.43 0-.861-.087-1.272-.25v-2.047c.325.288.755.442 1.186.442.41 0 .755-.164 1.004-.663ZM44.517 24.06h-5.996v4.767h-1.96V17.811h1.96v4.441h5.996v-4.44h1.96v11.015h-1.96V24.06ZM51.596 26.04l5.977-8.229h2.132v11.016h-1.96v-8.353l-6.006 8.353h-2.094V17.811h1.96v8.229h-.01ZM62.871 28.827V17.811h4.763c2.438 0 3.691.914 3.691 2.74 0 1.26-.497 2.096-1.626 2.538 1.349.24 1.96 1.105 1.96 2.537 0 2.278-1.625 3.21-4.293 3.21l-4.495-.009Zm4.476-6.354c1.234 0 2.018-.547 2.018-1.499 0-.884-.584-1.355-1.97-1.355h-2.563v2.845h2.515v.01Zm.143 4.547c1.502 0 2.19-.49 2.19-1.538s-.784-1.47-2.161-1.47h-2.697v2.998l2.668.01ZM81.194 24.06h-5.04v2.95h5.796v1.807h-7.747V17.811h7.574v1.808h-5.623v2.624h5.04v1.816ZM86.54 25.395v3.432h-1.962V17.811h3.653c3.463 0 4.935 1.24 4.935 3.73 0 2.567-1.72 3.854-4.935 3.854H86.54Zm0-5.776v3.97h1.835c1.817 0 2.754-.596 2.754-2.096 0-1.355-.813-1.874-2.726-1.874H86.54ZM104.69 27.616c-.545.663-1.989 1.384-3.882 1.384-3.568-.019-5.949-2.143-5.949-5.7 0-3.316 2.353-5.661 5.977-5.661 1.722 0 2.994.538 3.634.99v2.74a4.466 4.466 0 0 0-3.634-1.923c-2.39 0-3.863 1.557-3.863 3.873 0 2.144 1.3 3.826 3.825 3.874 1.913 0 3.251-.884 3.902-2l-.01 2.423ZM108.977 26.04l5.976-8.229h2.133v11.016h-1.96v-8.353l-6.016 8.353h-2.094V17.811h1.961v8.229ZM128.333 19.619h-3.692v9.208h-1.96V19.62h-3.634V17.81h9.286v1.808ZM137.284 24.06h-5.04v2.95h5.796v1.807h-7.747V17.811h7.574v1.808h-5.623v2.624h5.04v1.816ZM148.826 19.619h-3.692v9.208h-1.961V19.62h-3.634V17.81h9.287v1.808ZM52.983 5.47l2.477-1.836h-8.273V14.64h8.273v-1.827h-5.91V9.987h5.04V8.161h-5.04V5.47h3.433ZM40.93 7.93h-2.869V5.47h4.59l2.478-1.836h-9.43V14.64h4.935c2.764 0 4.351-1.26 4.351-3.46 0-2.096-1.444-3.25-4.055-3.25Zm-.41 4.883H38.06V9.766h2.468c1.501 0 2.2.51 2.2 1.529-.01 1.028-.747 1.518-2.21 1.518ZM62.164 3.634H57.66V14.64h2.362v-3.115h2.142c2.88 0 4.668-1.518 4.668-3.95 0-2.432-1.789-3.941-4.667-3.941Zm-.047 6.055h-2.095V5.47h2.095c1.51 0 2.343.75 2.343 2.115 0 1.365-.832 2.105-2.343 2.105ZM31.646 12.255c-.622.337-1.33.52-2.037.51-2.133 0-3.673-1.529-3.673-3.634s1.55-3.633 3.673-3.633c.765-.01 1.52.221 2.151.673l1.693-1.26-.115-.095c-.985-.875-2.314-1.337-3.825-1.337-1.635 0-3.127.558-4.189 1.567-1.061 1.01-1.664 2.451-1.664 4.028 0 1.576.584 3.037 1.655 4.075 1.07 1.039 2.553 1.625 4.179 1.625 1.702 0 3.184-.596 4.198-1.682l-1.53-1.135-.516.298ZM18.19 9.142c0-.548-.048-1.096-.143-1.634l-1.96 1.451v.192c0 3.884-3.128 7.037-6.992 7.046-3.863.01-7-3.143-7.01-7.026 0-3.903 3.128-7.056 7-7.056a6.94 6.94 0 0 1 3.96 1.23l1.77-1.307A9.058 9.058 0 0 0 2.017 3.403c-3.156 3.932-2.544 9.68 1.368 12.852a9.055 9.055 0 0 0 12.786-1.375 9.139 9.139 0 0 0 2.018-5.738Z"/><path d="M16.296 3.547c.43.557.794 1.173 1.09 1.817l-8.281 6.142-3.462-2.182V6.7l3.462 2.182 7.191-5.335Z"/></g><defs><clipPath id="a"><path fill="#fff" d="M0 0h149v29H0z"/></clipPath></defs></svg>