<svg width="98" height="52" fill="none" xmlns="http://www.w3.org/2000/svg"><g filter="url(#a)"><path d="M49 9 22.214.358c-6.503-1-19.6-1.1-22 16.5-2.4 17.6 15.998 21.5 26.5 23.5l44.5 9.5c7.333 2.333 22.7 3.8 25.5-9 2.8-12.8-7.714-17.858-13-20L49 9Z" fill="url(#b)"/><path d="M49 9 22.214.358c-6.503-1-19.6-1.1-22 16.5-2.4 17.6 15.998 21.5 26.5 23.5l44.5 9.5c7.333 2.333 22.7 3.8 25.5-9 2.8-12.8-7.714-17.858-13-20L49 9Z" stroke="#000"/></g><defs><linearGradient id="b" x1="63.5" y1="10.5" x2="52.5" y2="44.5" gradientUnits="userSpaceOnUse"><stop stop-color="#3E495F"/><stop offset=".341" stop-color="#424D65"/><stop offset=".466" stop-color="#455068"/><stop offset=".579" stop-color="#404B62"/><stop offset=".994" stop-color="#252C3E"/></linearGradient><filter id="a" x="0" y="0" width="97.18" height="55.416" filterUnits="userSpaceOnUse" color-interpolation-filters="sRGB"><feFlood flood-opacity="0" result="BackgroundImageFix"/><feBlend in="SourceGraphic" in2="BackgroundImageFix" result="shape"/><feColorMatrix in="SourceAlpha" values="0 0 0 0 0 0 0 0 0 0 0 0 0 0 0 0 0 0 127 0" result="hardAlpha"/><feOffset dy="4"/><feGaussianBlur stdDeviation="2"/><feComposite in2="hardAlpha" operator="arithmetic" k2="-1" k3="1"/><feColorMatrix values="0 0 0 0 0.202951 0 0 0 0 0.232523 0 0 0 0 0.291667 0 0 0 0.5 0"/><feBlend in2="shape" result="effect1_innerShadow_851_998"/></filter></defs></svg>