<svg width="8" height="13" fill="none" xmlns="http://www.w3.org/2000/svg"><path d="M4.4 8.48H2.56c0-.427.096-.827.288-1.2.192-.384.427-.71.704-.976a18.7 18.7 0 0 1 .832-.784c.277-.256.512-.534.704-.832a1.67 1.67 0 0 0 .288-.912c0-.438-.155-.779-.464-1.024-.31-.246-.725-.368-1.248-.368-.501 0-.933.128-1.296.384s-.624.618-.784 1.088L0 2.96a3.484 3.484 0 0 1 1.424-1.744C2.096.8 2.859.592 3.712.592c.96 0 1.781.272 2.464.816.693.544 1.04 1.296 1.04 2.256 0 .437-.096.853-.288 1.248-.192.394-.427.73-.704 1.008-.277.277-.555.55-.832.816a4.288 4.288 0 0 0-.704.832 1.67 1.67 0 0 0-.288.912Zm-.912 1.312c.33 0 .613.117.848.352s.352.517.352.848c0 .33-.117.613-.352.848a1.156 1.156 0 0 1-.848.352c-.33 0-.613-.117-.848-.352a1.156 1.156 0 0 1-.352-.848 1.175 1.175 0 0 1 1.2-1.2Z" fill="#696FE6"/></svg>