<svg width="582" height="7541" fill="none" xmlns="http://www.w3.org/2000/svg"><path d="M158.459 85.462c-39.999 70.5 60 161.5 3.606 404.5-33.184 142.989-28.894 237.5 0 345.5 28.895 108 34.395 499.998-46.105 668.998-80.5 169 247.5 296 197.5 654s-272.103 311.2-309 452c-43.5 166 340 149.5 207 601.5s-42 1088-42 1220" stroke="#CBCDF4" stroke-dasharray="5 5"/><path d="M213.37 34.943c.111.812.206 1.609.286 2.393l.497-.05c.167 1.65.265 3.242.296 4.774l-.5.01a48.14 48.14 0 0 1-.131 4.77l.499.04a40.43 40.43 0 0 1-.652 4.747l-.49-.098a33.969 33.969 0 0 1-1.244 4.563l.471.166a30.943 30.943 0 0 1-1.934 4.396l-.441-.237a29.675 29.675 0 0 1-2.556 3.968l.398.303a32.464 32.464 0 0 1-3.189 3.586l-.349-.359a36.851 36.851 0 0 1-3.607 3.07l.3.4a45.41 45.41 0 0 1-3.998 2.665l-.256-.43a56.454 56.454 0 0 1-4.2 2.257l.219.45a72.456 72.456 0 0 1-4.385 1.947l-.188-.463a92.637 92.637 0 0 1-4.476 1.68l.164.472a120.138 120.138 0 0 1-4.574 1.482l-.145-.479c-1.503.455-3.039.892-4.604 1.313l.13.483c-1.527.41-3.08.808-4.658 1.193l-.119-.485c-1.534.375-3.092.74-4.67 1.097l.11.488c-1.546.35-3.111.693-4.692 1.032l-.105-.488c-1.553.333-3.122.662-4.705.99l.102.49c-1.556.321-3.125.643-4.705.965l-.1-.49-2.358.481c-.826.17-1.648.323-2.465.462l.084.493a72.73 72.73 0 0 1-4.982.672l-.049-.498a67.959 67.959 0 0 1-4.988.314l.013.5a64.853 64.853 0 0 1-5.026-.064l.026-.5a61.416 61.416 0 0 1-4.971-.458l-.066.495a59.534 59.534 0 0 1-4.953-.876l.108-.488a57.42 57.42 0 0 1-4.816-1.285l-.15.477a56.818 56.818 0 0 1-4.729-1.718l.191-.462a55.86 55.86 0 0 1-4.515-2.112l-.232.443a56.349 56.349 0 0 1-4.348-2.528l.27-.42a56.703 56.703 0 0 1-4.072-2.878l-.306.395a58.19 58.19 0 0 1-3.838-3.25l.339-.368a59.126 59.126 0 0 1-3.519-3.537l-.368.337a61.439 61.439 0 0 1-3.239-3.847l.396-.307a63.138 63.138 0 0 1-2.896-4.064l-.418.274a65.974 65.974 0 0 1-2.594-4.314l.438-.24a67.981 67.981 0 0 1-2.245-4.458l-.454.208a71.18 71.18 0 0 1-1.934-4.646l.468-.176a73.604 73.604 0 0 1-1.596-4.734l-.479.144a77.007 77.007 0 0 1-1.286-4.864l.487-.112c-.186-.81-.36-1.626-.522-2.449a35.243 35.243 0 0 1-.411-2.57l-.497.06c-.23-1.907-.265-3.642-.12-5.221l.499.045c.17-1.84.59-3.453 1.228-4.87l-.456-.205a13.149 13.149 0 0 1 3.027-4.219l.343.365c1.178-1.108 2.586-2.041 4.197-2.83l-.22-.45c1.482-.727 3.123-1.33 4.898-1.835l.137.481a49.761 49.761 0 0 1 5.048-1.13l-.086-.492a84.176 84.176 0 0 1 5.17-.722l.056.497c1.676-.186 3.41-.339 5.189-.47l-.037-.5c1.706-.125 3.453-.232 5.23-.33l.027.5c1.712-.094 3.452-.18 5.214-.265l-.024-.5.156-.007c1.675-.082 3.369-.165 5.072-.256l.026.5c1.734-.094 3.48-.196 5.228-.316l-.035-.499c1.739-.119 3.48-.255 5.214-.418l.047.498c1.747-.163 3.489-.352 5.218-.576l-.064-.496a109.62 109.62 0 0 0 5.167-.789l.088.492a84.353 84.353 0 0 0 5.152-1.078l-.118-.486a65.437 65.437 0 0 0 5.027-1.43l.157.474a55.426 55.426 0 0 0 2.482-.884c.818-.314 1.629-.619 2.435-.916l-.173-.469a163.355 163.355 0 0 1 4.915-1.724l.158.474a126.8 126.8 0 0 1 4.948-1.536l-.138-.48a98.705 98.705 0 0 1 5.032-1.31l.112.487c1.732-.4 3.422-.734 5.07-.997L175.085.7a57.043 57.043 0 0 1 5.171-.595l.034.499a42.264 42.264 0 0 1 5.145-.045l.027-.5c1.787.1 3.506.324 5.154.684l-.107.489c1.696.371 3.313.89 4.846 1.565l.202-.457a23.411 23.411 0 0 1 4.491 2.604l-.297.402a24.12 24.12 0 0 1 3.744 3.452l.375-.331a29.454 29.454 0 0 1 3.063 4.189l-.427.26a37.468 37.468 0 0 1 2.348 4.56l.459-.199a49.917 49.917 0 0 1 1.812 4.883l-.476.15c.492 1.563.941 3.221 1.344 4.98l.487-.111c.371 1.617.703 3.317.996 5.102l-.493.081c.138.841.267 1.702.387 2.582Z" fill="#F3F4F9" stroke="#CBCDF4" stroke-dasharray="5 5"/><path d="m109.76 32.942 5.49-1.98h4.2v21h-4.8v-15.93l-3.72 1.02-1.17-4.11Zm39.55 14.82v-10.8h4.5v15h-21.9v-15h4.5v10.8h4.2v-10.8h4.5v10.8h4.2Zm19.285-9.39v-1.41h4.5v15h-4.5v-1.41c-1.04 1.22-2.53 1.83-4.47 1.83-1.98 0-3.67-.76-5.07-2.28-1.4-1.52-2.1-3.4-2.1-5.64 0-2.22.7-4.09 2.1-5.61 1.42-1.54 3.11-2.31 5.07-2.31 1.94 0 3.43.61 4.47 1.83Zm-7.14 6.09c0 1.12.33 2.01.99 2.67.66.66 1.52.99 2.58.99s1.92-.33 2.58-.99c.66-.66.99-1.55.99-2.67 0-1.12-.33-2.01-.99-2.67-.66-.66-1.52-.99-2.58-.99s-1.92.33-2.58.99c-.66.66-.99 1.55-.99 2.67Zm15.542-7.5h10.5v4.32h-6v10.68h-4.5v-15Z" fill="#696FE6"/><path d="M169.462 4431.96c0 72 4.499 313.5-30.002 503.5-54.14 298.16 25.036 611.85 34.501 755 12 181.5 19.5 553-4.5 625C93.686 6542.79 162.5 6802.5 162.5 6873" stroke="#CBCDF4" stroke-dasharray="5 5"/><path d="M212.371 4559.9c.111.82.206 1.61.285 2.4l.498-.05c.167 1.65.265 3.24.296 4.77l-.5.01c.034 1.66-.011 3.25-.131 4.77l.498.04c-.13 1.66-.349 3.24-.652 4.75l-.49-.1c-.321 1.6-.738 3.12-1.244 4.56l.472.17a31.161 31.161 0 0 1-1.935 4.4l-.44-.24a30.365 30.365 0 0 1-2.557 3.97l.398.3a33.167 33.167 0 0 1-3.189 3.59l-.348-.36a39.114 39.114 0 0 1-3.607 3.07l.299.4a44.87 44.87 0 0 1-3.997 2.66l-.256-.43c-1.337.8-2.739 1.55-4.2 2.26l.218.45c-1.41.68-2.873 1.33-4.385 1.95l-.188-.47c-1.447.59-2.94 1.15-4.475 1.68l.164.48c-1.488.51-3.014 1-4.575 1.48l-.145-.48c-1.503.45-3.039.89-4.604 1.31l.13.48c-1.526.41-3.08.81-4.658 1.2l-.118-.49c-1.535.38-3.092.74-4.671 1.1l.111.49c-1.546.35-3.111.69-4.693 1.03l-.105-.49c-1.552.33-3.122.66-4.704.99l.101.49c-1.556.32-3.125.64-4.704.97l-.1-.49-2.358.48c-.826.17-1.648.32-2.465.46l.083.49c-1.679.29-3.34.51-4.981.67l-.05-.49c-1.684.16-3.347.27-4.987.31l.012.5a69.87 69.87 0 0 1-5.026-.06l.026-.5a61.799 61.799 0 0 1-4.97-.46l-.067.49c-1.68-.22-3.332-.51-4.953-.87l.108-.49a54.501 54.501 0 0 1-4.815-1.29l-.15.48a57.688 57.688 0 0 1-4.73-1.72l.192-.46a55.26 55.26 0 0 1-4.516-2.11l-.232.44a55.307 55.307 0 0 1-4.348-2.53l.271-.42c-1.4-.9-2.758-1.86-4.072-2.87l-.306.39a56.463 56.463 0 0 1-3.839-3.25l.34-.37a58.12 58.12 0 0 1-3.519-3.53l-.369.33a61.408 61.408 0 0 1-3.238-3.84l.395-.31a61.238 61.238 0 0 1-2.896-4.07l-.418.28a67.38 67.38 0 0 1-2.594-4.31l.439-.25a67.247 67.247 0 0 1-2.245-4.45l-.454.21a73.948 73.948 0 0 1-1.934-4.65l.468-.18a72.222 72.222 0 0 1-1.596-4.73l-.48.14a76.477 76.477 0 0 1-1.285-4.86l.487-.11a80.92 80.92 0 0 1-.522-2.45c-.176-.89-.312-1.75-.412-2.57l-.496.06c-.23-1.91-.266-3.64-.12-5.22l.498.04c.17-1.84.59-3.45 1.229-4.87l-.456-.2a13.073 13.073 0 0 1 3.027-4.22l.342.36c1.179-1.1 2.587-2.04 4.197-2.83l-.22-.45c1.482-.72 3.123-1.33 4.899-1.83l.137.48c1.576-.45 3.264-.82 5.047-1.13l-.086-.49a83.62 83.62 0 0 1 5.171-.73l.055.5c1.677-.18 3.41-.34 5.19-.47l-.037-.5c1.706-.12 3.452-.23 5.229-.33l.028.5c1.711-.09 3.452-.18 5.214-.26l-.025-.5c.052-.01.104-.01.156-.01 1.676-.08 3.369-.16 5.072-.26l.027.5c1.734-.09 3.479-.19 5.227-.31l-.034-.5c1.738-.12 3.479-.26 5.214-.42l.046.5c1.747-.16 3.49-.35 5.218-.58l-.064-.49c1.74-.23 3.465-.49 5.168-.79l.088.49c1.742-.31 3.463-.67 5.152-1.08l-.118-.48c1.712-.42 3.391-.9 5.027-1.44l.157.48c.838-.28 1.666-.57 2.482-.88.817-.32 1.629-.62 2.435-.92l-.173-.47c1.663-.61 3.302-1.19 4.915-1.72l.157.47c1.679-.56 3.329-1.07 4.948-1.54l-.138-.48c1.711-.49 3.389-.93 5.032-1.31l.113.49c1.731-.4 3.422-.73 5.07-.99l-.079-.5c1.772-.28 3.497-.48 5.172-.59l.033.49c1.775-.11 3.491-.13 5.145-.04l.028-.5c1.787.1 3.505.32 5.153.68l-.107.49c1.697.37 3.313.89 4.847 1.57l.201-.46c1.583.7 3.082 1.56 4.491 2.61l-.297.4c1.329.98 2.578 2.13 3.744 3.45l.375-.33a29.016 29.016 0 0 1 3.064 4.19l-.427.26c.844 1.38 1.627 2.9 2.348 4.56l.458-.2a49.819 49.819 0 0 1 1.813 4.88l-.477.15c.493 1.56.941 3.22 1.345 4.98l.487-.11c.371 1.62.703 3.32.996 5.1l-.494.08c.138.84.268 1.7.388 2.58Z" fill="#fff" stroke="#CBCDF4" stroke-dasharray="5 5"/><path d="M122.401 4577.96h-14.28v-3.48l7.05-7.32c1.42-1.48 2.13-2.72 2.13-3.72 0-.66-.2-1.19-.6-1.59-.4-.42-.95-.63-1.65-.63-1.4 0-2.43.76-3.09 2.28l-4.05-2.37c.64-1.46 1.59-2.59 2.85-3.39 1.26-.8 2.67-1.2 4.23-1.2 1.98 0 3.65.61 5.01 1.83 1.4 1.2 2.1 2.82 2.1 4.86 0 2.22-1.09 4.42-3.27 6.6l-3.48 3.51h7.05v4.62Zm28.806-4.2v-10.8h4.5v15h-21.9v-15h4.5v10.8h4.2v-10.8h4.5v10.8h4.2Zm19.285-9.39v-1.41h4.5v15h-4.5v-1.41c-1.04 1.22-2.53 1.83-4.47 1.83-1.98 0-3.67-.76-5.07-2.28-1.4-1.52-2.1-3.4-2.1-5.64 0-2.22.7-4.09 2.1-5.61 1.42-1.54 3.11-2.31 5.07-2.31 1.94 0 3.43.61 4.47 1.83Zm-7.14 6.09c0 1.12.33 2.01.99 2.67.66.66 1.52.99 2.58.99s1.92-.33 2.58-.99c.66-.66.99-1.55.99-2.67 0-1.12-.33-2.01-.99-2.67-.66-.66-1.52-.99-2.58-.99s-1.92.33-2.58.99c-.66.66-.99 1.55-.99 2.67Zm15.542-7.5h10.5v4.32h-6v10.68h-4.5v-15Z" fill="#696FE6"/><path d="M162.461 6873c0 76-95.5 164.5 47.5 309.5 107.355 108.86 327.5 97 371 358" stroke="#CBCDF4" stroke-dasharray="5 5"/><path d="M207.371 7000.94c.111.81.206 1.61.285 2.4l.498-.05c.167 1.65.265 3.24.296 4.77l-.5.01c.034 1.66-.011 3.25-.131 4.77l.498.04c-.13 1.66-.349 3.24-.652 4.75l-.49-.1c-.321 1.6-.738 3.12-1.244 4.56l.472.17a30.539 30.539 0 0 1-1.935 4.39l-.44-.23a29.6 29.6 0 0 1-2.557 3.96l.398.31a32.149 32.149 0 0 1-3.189 3.58l-.348-.35a39.114 39.114 0 0 1-3.607 3.07l.299.4a47.157 47.157 0 0 1-3.997 2.66l-.256-.43c-1.337.8-2.739 1.55-4.2 2.26l.218.45c-1.41.68-2.873 1.33-4.385 1.94l-.188-.46c-1.447.59-2.94 1.15-4.475 1.68l.164.47a110.04 110.04 0 0 1-4.575 1.48l-.145-.47c-1.503.45-3.039.89-4.604 1.31l.13.48c-1.526.41-3.08.81-4.658 1.2l-.118-.49c-1.535.37-3.092.74-4.671 1.1l.111.48c-1.546.36-3.111.7-4.693 1.04l-.105-.49c-1.552.33-3.122.66-4.704.99l.101.49c-1.556.32-3.125.64-4.704.96l-.1-.49-2.358.49c-.826.16-1.648.32-2.465.46l.083.49c-1.679.29-3.34.51-4.981.67l-.05-.5c-1.684.17-3.347.28-4.987.32l.012.5a64.48 64.48 0 0 1-5.026-.07l.026-.5a61.815 61.815 0 0 1-4.97-.45l-.067.49a61 61 0 0 1-4.953-.87l.108-.49a54.501 54.501 0 0 1-4.815-1.29l-.15.48a57.688 57.688 0 0 1-4.73-1.72l.192-.46a58.81 58.81 0 0 1-4.516-2.11l-.232.44c-1.49-.78-2.94-1.62-4.348-2.53l.27-.42c-1.399-.9-2.757-1.86-4.071-2.88l-.306.4a59.499 59.499 0 0 1-3.839-3.25l.34-.37a55.547 55.547 0 0 1-3.519-3.54l-.369.34a58.841 58.841 0 0 1-3.238-3.85l.395-.3a63.966 63.966 0 0 1-2.896-4.07l-.418.28a67.62 67.62 0 0 1-2.594-4.32l.439-.24a65.125 65.125 0 0 1-2.245-4.46l-.454.21a71.272 71.272 0 0 1-1.934-4.64l.468-.18a72.222 72.222 0 0 1-1.596-4.73l-.48.14a76.477 76.477 0 0 1-1.285-4.86l.487-.11c-.186-.81-.36-1.63-.522-2.45-.176-.9-.312-1.75-.412-2.57l-.496.06c-.23-1.91-.266-3.65-.12-5.23l.498.05c.17-1.84.59-3.45 1.229-4.87l-.456-.2a13.073 13.073 0 0 1 3.027-4.22l.342.36c1.179-1.11 2.587-2.04 4.197-2.83l-.22-.45c1.482-.73 3.123-1.33 4.899-1.83l.137.48c1.576-.45 3.264-.82 5.047-1.13l-.086-.5c1.652-.28 3.38-.52 5.171-.72l.055.5c1.677-.19 3.41-.34 5.19-.47l-.037-.5c1.706-.13 3.452-.23 5.229-.33l.028.5c1.711-.09 3.452-.18 5.214-.27l-.025-.49c.052-.01.104-.01.156-.01 1.676-.08 3.369-.17 5.072-.26l.027.5c1.734-.09 3.479-.19 5.227-.31l-.034-.5c1.738-.12 3.479-.26 5.214-.42l.046.5c1.747-.17 3.49-.36 5.218-.58l-.064-.49c1.74-.23 3.465-.49 5.168-.79l.088.49c1.742-.31 3.463-.67 5.152-1.08l-.118-.49c1.712-.41 3.391-.89 5.027-1.43l.157.48c.838-.28 1.666-.57 2.482-.89.817-.31 1.629-.61 2.435-.91l-.173-.47c1.663-.61 3.302-1.19 4.915-1.73l.157.48c1.679-.56 3.329-1.07 4.948-1.54l-.138-.48c1.711-.49 3.389-.93 5.032-1.31l.113.49a79.85 79.85 0 0 1 5.07-1l-.079-.49a61.17 61.17 0 0 1 5.172-.6l.033.5c1.775-.12 3.491-.13 5.145-.04l.028-.5c1.787.1 3.505.32 5.153.68l-.107.49c1.697.37 3.313.89 4.847 1.57l.201-.46c1.583.7 3.082 1.56 4.491 2.6l-.297.41a23.55 23.55 0 0 1 3.744 3.45l.375-.33a29.47 29.47 0 0 1 3.064 4.18l-.427.26a37.815 37.815 0 0 1 2.348 4.57l.458-.2a49.819 49.819 0 0 1 1.813 4.88l-.477.15c.493 1.56.941 3.22 1.345 4.98l.487-.11c.371 1.61.703 3.31.996 5.1l-.494.08c.138.84.268 1.7.388 2.58Z" fill="#F3F4F9" stroke="#CBCDF4" stroke-dasharray="5 5"/><path d="m118.221 7001.9-3.63 4.62c1.36.48 2.44 1.24 3.24 2.28.82 1.02 1.23 2.22 1.23 3.6 0 2.2-.74 3.92-2.22 5.16-1.48 1.24-3.29 1.86-5.43 1.86-1.7 0-3.2-.38-4.5-1.14-1.3-.78-2.25-1.9-2.85-3.36l4.14-2.4c.52 1.48 1.59 2.22 3.21 2.22 1.18.08 2.02-.29 2.52-1.11.5-.82.5-1.64 0-2.46-.5-.82-1.34-1.19-2.52-1.11h-.99l-1.83-2.73 3.81-4.83h-7.68v-4.5h13.5v3.9Zm29.484 12.9V7004h4.5v15h-21.9v-15h4.5v10.8h4.2V7004h4.5v10.8h4.2Zm19.285-9.39V7004h4.5v15h-4.5v-1.41c-1.04 1.22-2.53 1.83-4.47 1.83-1.98 0-3.67-.76-5.07-2.28-1.4-1.52-2.1-3.4-2.1-5.64 0-2.22.7-4.09 2.1-5.61 1.42-1.54 3.11-2.31 5.07-2.31 1.94 0 3.43.61 4.47 1.83Zm-7.14 6.09c0 1.12.33 2.01.99 2.67.66.66 1.52.99 2.58.99s1.92-.33 2.58-.99c.66-.66.99-1.55.99-2.67 0-1.12-.33-2.01-.99-2.67-.66-.66-1.52-.99-2.58-.99s-1.92.33-2.58.99c-.66.66-.99 1.55-.99 2.67Zm15.542-7.5h10.5v4.32h-6V7019h-4.5v-15Z" fill="#696FE6"/></svg>