<svg width="587" height="7541" viewBox="0 0 587 7541" fill="none" xmlns="http://www.w3.org/2000/svg">
<path d="M158.459 85.4622C118.46 155.962 218.459 246.962 162.066 489.962C128.881 632.951 133.172 727.462 162.066 835.462C190.96 943.462 196.461 1335.46 115.961 1504.46C35.4611 1673.46 363.46 1800.46 313.461 2158.46C263.461 2516.46 41.3574 2469.66 4.46057 2610.46C-39.0394 2776.46 344.46 2759.96 211.461 3211.96C78.4609 3663.96 169.461 4299.96 169.461 4431.96" stroke="#CBCDF4" stroke-dasharray="5 5"/>
<path d="M213.371 34.9426C213.482 35.7545 213.577 36.552 213.656 37.3355L214.154 37.2852C214.321 38.9367 214.419 40.5275 214.45 42.0602L213.95 42.0704C213.984 43.7294 213.939 45.3181 213.819 46.8404L214.317 46.8797C214.187 48.5367 213.968 50.1178 213.665 51.6275L213.175 51.5293C212.854 53.1314 212.437 54.6503 211.931 56.0921L212.403 56.2578C211.859 57.8071 211.212 59.2703 210.468 60.654L210.028 60.4174C209.274 61.8202 208.42 63.1401 207.471 64.3845L207.869 64.6876C206.9 65.9584 205.835 67.1513 204.68 68.2738L204.332 67.9153C203.214 69.002 202.009 70.023 200.725 70.9851L201.024 71.3853C199.765 72.3286 198.43 73.2147 197.027 74.0502L196.771 73.6206C195.434 74.4167 194.032 75.1671 192.571 75.8774L192.789 76.3271C191.379 77.0123 189.916 77.6597 188.404 78.2743L188.216 77.8111C186.769 78.3993 185.276 78.9578 183.741 79.4908L183.905 79.9632C182.417 80.4797 180.891 80.9722 179.33 81.4446L179.185 80.966C177.682 81.421 176.146 81.8575 174.581 82.2791L174.711 82.7619C173.185 83.1729 171.631 83.5697 170.053 83.9554L169.935 83.4697C168.4 83.8448 166.843 84.2097 165.264 84.5672L165.375 85.0549C163.829 85.4052 162.264 85.7484 160.682 86.0875L160.577 85.5986C159.025 85.9316 157.455 86.2606 155.873 86.5885L155.974 87.0781C154.418 87.4004 152.849 87.7215 151.27 88.044L151.17 87.5541L148.812 88.0354C147.986 88.2041 147.164 88.3578 146.347 88.4968L146.43 88.9897C144.751 89.2751 143.09 89.4986 141.449 89.6621L141.399 89.1645C139.715 89.3322 138.052 89.4361 136.412 89.4783L136.424 89.9781C134.725 90.0218 133.049 89.9998 131.398 89.9142L131.424 89.4149C129.741 89.3276 128.083 89.1738 126.454 88.9556L126.387 89.4512C124.707 89.2262 123.055 88.9334 121.434 88.5751L121.542 88.0869C119.905 87.7251 118.299 87.2959 116.727 86.8021L116.577 87.2791C114.965 86.7729 113.388 86.1992 111.847 85.5607L112.039 85.0988C110.496 84.4595 108.99 83.7548 107.523 82.9873L107.291 83.4303C105.802 82.6509 104.352 81.8073 102.943 80.9024L103.214 80.4818C101.814 79.5826 100.456 78.6224 99.1418 77.6038L98.8356 77.9991C97.5117 76.9732 96.2315 75.8888 94.9971 74.7487L95.3364 74.3814C94.1181 73.2562 92.9447 72.0761 91.818 70.8439L91.449 71.1813C90.3225 69.9493 89.2425 68.6658 88.2109 67.3335L88.6063 67.0274C87.5935 65.7193 86.6276 64.3637 85.7104 62.9631L85.2921 63.237C84.3789 61.8423 83.5137 60.4036 82.6985 58.9234L83.1365 58.6821C82.3398 57.2356 81.5911 55.749 80.892 54.2247L80.4375 54.4331C79.7437 52.9204 79.0985 51.371 78.5036 49.7872L78.9716 49.6114C78.391 48.0658 77.8585 46.4871 77.3757 44.8774L76.8968 45.0211C76.4193 43.429 75.9901 41.807 75.6107 40.1572L76.0979 40.0451C75.9118 39.2356 75.7377 38.4193 75.5758 37.5964C75.4004 36.7047 75.2637 35.8484 75.1642 35.0261L74.6679 35.0862C74.4371 33.1787 74.4025 31.4437 74.5482 29.8645L75.0461 29.9104C75.2159 28.0691 75.6361 26.4568 76.2746 25.0407L75.8188 24.8351C76.5555 23.2012 77.5769 21.8078 78.8456 20.6163L79.1879 20.9808C80.3669 19.8735 81.7745 18.94 83.3854 18.1501L83.1653 17.7011C84.6475 16.9743 86.2884 16.3711 88.0638 15.8663L88.2006 16.3472C89.7771 15.899 91.465 15.5282 93.2482 15.2174L93.1623 14.7249C94.8136 14.4371 96.5418 14.2011 98.3332 14.0027L98.3882 14.4996C100.065 14.3139 101.798 14.1611 103.578 14.0295L103.541 13.5308C105.247 13.4047 106.993 13.2981 108.77 13.2007L108.798 13.7C110.509 13.6061 112.25 13.5209 114.012 13.4349L113.987 12.9355C114.039 12.933 114.091 12.9304 114.143 12.9279C115.819 12.8461 117.512 12.7634 119.215 12.672L119.242 13.1713C120.976 13.0782 122.721 12.9759 124.469 12.8561L124.435 12.3573C126.173 12.2381 127.914 12.1016 129.649 11.9394L129.695 12.4372C131.442 12.2739 133.185 12.0846 134.913 11.8609L134.849 11.365C136.589 11.1398 138.314 10.8797 140.017 10.5761L140.105 11.0683C141.847 10.7575 143.568 10.401 145.257 9.98962L145.139 9.50382C146.851 9.0867 148.53 8.61302 150.166 8.07308L150.323 8.54789C151.161 8.27112 151.989 7.97694 152.805 7.66404C153.622 7.35045 154.434 7.04507 155.24 6.74834L155.067 6.27914C156.73 5.66653 158.369 5.09048 159.982 4.55478L160.139 5.02928C161.818 4.47155 163.468 3.95797 165.087 3.49276L164.949 3.0122C166.66 2.52062 168.338 2.08254 169.981 1.70299L170.094 2.19016C171.825 1.79023 173.516 1.45602 175.164 1.19323L175.085 0.699466C176.857 0.417002 178.582 0.216141 180.257 0.104137L180.29 0.603023C182.065 0.484361 183.781 0.466654 185.435 0.557975L185.463 0.0587347C187.25 0.157371 188.968 0.381668 190.616 0.742386L190.509 1.23082C192.206 1.60233 193.822 2.12043 195.356 2.79638L195.557 2.33888C197.14 3.03687 198.639 3.9008 200.048 4.94345L199.751 5.34542C201.08 6.32829 202.329 7.47459 203.495 8.79673L203.87 8.466C204.966 9.7085 205.988 11.1017 206.934 12.6547L206.507 12.9147C207.351 14.3008 208.134 15.8185 208.855 17.4754L209.313 17.2761C209.971 18.7898 210.576 20.4159 211.126 22.1593L210.649 22.3097C211.142 23.8717 211.59 25.5303 211.994 27.2893L212.481 27.1776C212.852 28.7946 213.184 30.4946 213.477 32.2802L212.983 32.3611C213.121 33.2022 213.251 34.0626 213.371 34.9426Z" fill="#F3F4F9" stroke="#CBCDF4" stroke-dasharray="5 5"/>
<path d="M109.761 32.9422L115.251 30.9622H119.451V51.9622H114.651V36.0322L110.931 37.0522L109.761 32.9422ZM149.311 47.7622V36.9622H153.811V51.9622L131.911 51.9622V36.9622H136.411V47.7622H140.611V36.9622H145.111V47.7622H149.311ZM168.596 38.3722V36.9622L173.096 36.9622V51.9622H168.596V50.5522C167.556 51.7722 166.066 52.3822 164.126 52.3822C162.146 52.3822 160.456 51.6222 159.056 50.1022C157.656 48.5822 156.956 46.7022 156.956 44.4622C156.956 42.2422 157.656 40.3722 159.056 38.8522C160.476 37.3122 162.166 36.5422 164.126 36.5422C166.066 36.5422 167.556 37.1522 168.596 38.3722ZM161.456 44.4622C161.456 45.5822 161.786 46.4722 162.446 47.1322C163.106 47.7922 163.966 48.1222 165.026 48.1222C166.086 48.1222 166.946 47.7922 167.606 47.1322C168.266 46.4722 168.596 45.5822 168.596 44.4622C168.596 43.3422 168.266 42.4522 167.606 41.7922C166.946 41.1322 166.086 40.8022 165.026 40.8022C163.966 40.8022 163.106 41.1322 162.446 41.7922C161.786 42.4522 161.456 43.3422 161.456 44.4622ZM176.997 36.9622H187.497V41.2822H181.497V51.9622H176.997V36.9622Z" fill="#696FE6"/>
<path d="M169.462 4431.96C169.462 4503.96 173.961 4745.46 139.46 4935.46C85.3208 5233.62 164.496 5547.31 173.961 5690.46C185.961 5871.96 192.961 6243.46 168.961 6315.46C93.1863 6542.79 167.461 6852.46 167.461 6922.96" stroke="#CBCDF4" stroke-dasharray="5 5"/>
<path d="M212.371 4559.9C212.482 4560.72 212.577 4561.51 212.656 4562.3L213.154 4562.25C213.321 4563.9 213.419 4565.49 213.45 4567.02L212.95 4567.03C212.984 4568.69 212.939 4570.28 212.819 4571.8L213.317 4571.84C213.187 4573.5 212.968 4575.08 212.665 4576.59L212.175 4576.49C211.854 4578.09 211.437 4579.61 210.931 4581.05L211.403 4581.22C210.859 4582.77 210.212 4584.23 209.468 4585.62L209.028 4585.38C208.274 4586.78 207.42 4588.1 206.471 4589.35L206.869 4589.65C205.9 4590.92 204.835 4592.11 203.68 4593.24L203.332 4592.88C202.214 4593.96 201.009 4594.98 199.725 4595.95L200.024 4596.35C198.765 4597.29 197.43 4598.18 196.027 4599.01L195.771 4598.58C194.434 4599.38 193.032 4600.13 191.571 4600.84L191.789 4601.29C190.379 4601.97 188.916 4602.62 187.404 4603.24L187.216 4602.77C185.769 4603.36 184.276 4603.92 182.741 4604.45L182.905 4604.93C181.417 4605.44 179.891 4605.93 178.33 4606.41L178.185 4605.93C176.682 4606.38 175.146 4606.82 173.581 4607.24L173.711 4607.72C172.185 4608.13 170.631 4608.53 169.053 4608.92L168.935 4608.43C167.4 4608.81 165.843 4609.17 164.264 4609.53L164.375 4610.02C162.829 4610.37 161.264 4610.71 159.682 4611.05L159.577 4610.56C158.025 4610.89 156.455 4611.22 154.873 4611.55L154.974 4612.04C153.418 4612.36 151.849 4612.68 150.27 4613.01L150.17 4612.52L147.812 4613C146.986 4613.17 146.164 4613.32 145.347 4613.46L145.43 4613.95C143.751 4614.24 142.09 4614.46 140.449 4614.62L140.399 4614.13C138.715 4614.29 137.052 4614.4 135.412 4614.44L135.424 4614.94C133.725 4614.98 132.049 4614.96 130.398 4614.88L130.424 4614.38C128.741 4614.29 127.083 4614.14 125.454 4613.92L125.387 4614.41C123.707 4614.19 122.055 4613.9 120.434 4613.54L120.542 4613.05C118.905 4612.69 117.299 4612.26 115.727 4611.76L115.577 4612.24C113.965 4611.73 112.388 4611.16 110.847 4610.52L111.039 4610.06C109.496 4609.42 107.99 4608.72 106.523 4607.95L106.291 4608.39C104.802 4607.61 103.352 4606.77 101.943 4605.86L102.214 4605.44C100.814 4604.54 99.4563 4603.58 98.1418 4602.57L97.8356 4602.96C96.5117 4601.94 95.2315 4600.85 93.9971 4599.71L94.3364 4599.34C93.1181 4598.22 91.9447 4597.04 90.818 4595.81L90.449 4596.14C89.3225 4594.91 88.2425 4593.63 87.2109 4592.3L87.6063 4591.99C86.5935 4590.68 85.6276 4589.33 84.7104 4587.92L84.2921 4588.2C83.3789 4586.8 82.5137 4585.37 81.6985 4583.89L82.1365 4583.64C81.3398 4582.2 80.5911 4580.71 79.892 4579.19L79.4375 4579.4C78.7437 4577.88 78.0985 4576.33 77.5036 4574.75L77.9716 4574.57C77.391 4573.03 76.8585 4571.45 76.3757 4569.84L75.8968 4569.98C75.4193 4568.39 74.9901 4566.77 74.6107 4565.12L75.098 4565.01C74.9118 4564.2 74.7377 4563.38 74.5758 4562.56C74.4004 4561.67 74.2637 4560.81 74.1642 4559.99L73.6679 4560.05C73.4371 4558.14 73.4025 4556.41 73.5482 4554.83L74.0461 4554.87C74.2159 4553.03 74.6361 4551.42 75.2746 4550L74.8188 4549.8C75.5555 4548.16 76.5769 4546.77 77.8456 4545.58L78.1879 4545.94C79.3669 4544.84 80.7745 4543.9 82.3854 4543.11L82.1653 4542.66C83.6475 4541.94 85.2884 4541.33 87.0638 4540.83L87.2006 4541.31C88.7771 4540.86 90.465 4540.49 92.2482 4540.18L92.1623 4539.69C93.8136 4539.4 95.5418 4539.16 97.3332 4538.96L97.3882 4539.46C99.0646 4539.28 100.798 4539.12 102.578 4538.99L102.541 4538.49C104.247 4538.37 105.993 4538.26 107.77 4538.16L107.798 4538.66C109.509 4538.57 111.25 4538.48 113.012 4538.4L112.987 4537.9C113.039 4537.89 113.091 4537.89 113.143 4537.89C114.819 4537.81 116.512 4537.73 118.215 4537.63L118.242 4538.13C119.976 4538.04 121.721 4537.94 123.469 4537.82L123.435 4537.32C125.173 4537.2 126.914 4537.06 128.649 4536.9L128.695 4537.4C130.442 4537.24 132.185 4537.05 133.913 4536.82L133.849 4536.33C135.589 4536.1 137.314 4535.84 139.017 4535.54L139.105 4536.03C140.847 4535.72 142.568 4535.36 144.257 4534.95L144.139 4534.47C145.851 4534.05 147.53 4533.57 149.166 4533.03L149.323 4533.51C150.161 4533.23 150.989 4532.94 151.805 4532.63C152.622 4532.31 153.434 4532.01 154.24 4531.71L154.067 4531.24C155.73 4530.63 157.369 4530.05 158.982 4529.52L159.139 4529.99C160.818 4529.43 162.468 4528.92 164.087 4528.45L163.949 4527.97C165.66 4527.48 167.338 4527.04 168.981 4526.66L169.094 4527.15C170.825 4526.75 172.516 4526.42 174.164 4526.16L174.085 4525.66C175.857 4525.38 177.582 4525.18 179.257 4525.07L179.29 4525.56C181.065 4525.45 182.781 4525.43 184.435 4525.52L184.463 4525.02C186.25 4525.12 187.968 4525.34 189.616 4525.7L189.509 4526.19C191.206 4526.56 192.822 4527.08 194.356 4527.76L194.557 4527.3C196.14 4528 197.639 4528.86 199.048 4529.91L198.751 4530.31C200.08 4531.29 201.329 4532.44 202.495 4533.76L202.87 4533.43C203.966 4534.67 204.988 4536.06 205.934 4537.62L205.507 4537.88C206.351 4539.26 207.134 4540.78 207.855 4542.44L208.313 4542.24C208.971 4543.75 209.576 4545.38 210.126 4547.12L209.649 4547.27C210.142 4548.83 210.59 4550.49 210.994 4552.25L211.481 4552.14C211.852 4553.76 212.184 4555.46 212.477 4557.24L211.983 4557.32C212.121 4558.16 212.251 4559.02 212.371 4559.9Z" fill="white" stroke="#CBCDF4" stroke-dasharray="5 5"/>
<path d="M122.401 4577.96H108.121V4574.48L115.171 4567.16C116.591 4565.68 117.301 4564.44 117.301 4563.44C117.301 4562.78 117.101 4562.25 116.701 4561.85C116.301 4561.43 115.751 4561.22 115.051 4561.22C113.651 4561.22 112.621 4561.98 111.961 4563.5L107.911 4561.13C108.551 4559.67 109.501 4558.54 110.761 4557.74C112.021 4556.94 113.431 4556.54 114.991 4556.54C116.971 4556.54 118.641 4557.15 120.001 4558.37C121.401 4559.57 122.101 4561.19 122.101 4563.23C122.101 4565.45 121.011 4567.65 118.831 4569.83L115.351 4573.34H122.401V4577.96ZM151.207 4573.76V4562.96H155.707V4577.96H133.807V4562.96H138.307V4573.76H142.507V4562.96H147.007V4573.76H151.207ZM170.492 4564.37V4562.96H174.992V4577.96H170.492V4576.55C169.452 4577.77 167.962 4578.38 166.022 4578.38C164.042 4578.38 162.352 4577.62 160.952 4576.1C159.552 4574.58 158.852 4572.7 158.852 4570.46C158.852 4568.24 159.552 4566.37 160.952 4564.85C162.372 4563.31 164.062 4562.54 166.022 4562.54C167.962 4562.54 169.452 4563.15 170.492 4564.37ZM163.352 4570.46C163.352 4571.58 163.682 4572.47 164.342 4573.13C165.002 4573.79 165.862 4574.12 166.922 4574.12C167.982 4574.12 168.842 4573.79 169.502 4573.13C170.162 4572.47 170.492 4571.58 170.492 4570.46C170.492 4569.34 170.162 4568.45 169.502 4567.79C168.842 4567.13 167.982 4566.8 166.922 4566.8C165.862 4566.8 165.002 4567.13 164.342 4567.79C163.682 4568.45 163.352 4569.34 163.352 4570.46ZM178.894 4562.96H189.394V4567.28H183.394V4577.96H178.894V4562.96Z" fill="#696FE6"/>
<path d="M167.461 6873C167.461 6949 71.9609 7037.5 214.961 7182.5C322.316 7291.36 542.461 7279.5 585.961 7540.5" stroke="#CBCDF4" stroke-dasharray="5 5"/>
<path d="M212.371 7000.94C212.482 7001.75 212.577 7002.55 212.656 7003.34L213.154 7003.29C213.321 7004.94 213.419 7006.53 213.45 7008.06L212.95 7008.07C212.984 7009.73 212.939 7011.32 212.819 7012.84L213.317 7012.88C213.187 7014.54 212.968 7016.12 212.665 7017.63L212.175 7017.53C211.854 7019.13 211.437 7020.65 210.931 7022.09L211.403 7022.26C210.859 7023.81 210.212 7025.27 209.468 7026.65L209.028 7026.42C208.274 7027.82 207.42 7029.14 206.471 7030.38L206.869 7030.69C205.9 7031.96 204.835 7033.15 203.68 7034.27L203.332 7033.92C202.214 7035 201.009 7036.02 199.725 7036.99L200.024 7037.39C198.765 7038.33 197.43 7039.21 196.027 7040.05L195.771 7039.62C194.434 7040.42 193.032 7041.17 191.571 7041.88L191.789 7042.33C190.379 7043.01 188.916 7043.66 187.404 7044.27L187.216 7043.81C185.769 7044.4 184.276 7044.96 182.741 7045.49L182.905 7045.96C181.417 7046.48 179.891 7046.97 178.33 7047.44L178.185 7046.97C176.682 7047.42 175.146 7047.86 173.581 7048.28L173.711 7048.76C172.185 7049.17 170.631 7049.57 169.053 7049.96L168.935 7049.47C167.4 7049.84 165.843 7050.21 164.264 7050.57L164.375 7051.05C162.829 7051.41 161.264 7051.75 159.682 7052.09L159.577 7051.6C158.025 7051.93 156.455 7052.26 154.873 7052.59L154.974 7053.08C153.418 7053.4 151.849 7053.72 150.27 7054.04L150.17 7053.55L147.812 7054.04C146.986 7054.2 146.164 7054.36 145.347 7054.5L145.43 7054.99C143.751 7055.28 142.09 7055.5 140.449 7055.66L140.399 7055.16C138.715 7055.33 137.052 7055.44 135.412 7055.48L135.424 7055.98C133.725 7056.02 132.049 7056 130.398 7055.91L130.424 7055.41C128.741 7055.33 127.083 7055.17 125.454 7054.96L125.387 7055.45C123.707 7055.23 122.055 7054.93 120.434 7054.58L120.542 7054.09C118.905 7053.73 117.299 7053.3 115.727 7052.8L115.577 7053.28C113.965 7052.77 112.388 7052.2 110.847 7051.56L111.039 7051.1C109.496 7050.46 107.99 7049.75 106.523 7048.99L106.291 7049.43C104.802 7048.65 103.352 7047.81 101.943 7046.9L102.214 7046.48C100.814 7045.58 99.4563 7044.62 98.1418 7043.6L97.8356 7044C96.5117 7042.97 95.2315 7041.89 93.9971 7040.75L94.3364 7040.38C93.1181 7039.26 91.9447 7038.08 90.818 7036.84L90.449 7037.18C89.3225 7035.95 88.2425 7034.67 87.2109 7033.33L87.6063 7033.03C86.5935 7031.72 85.6276 7030.36 84.7104 7028.96L84.2921 7029.24C83.3789 7027.84 82.5137 7026.4 81.6985 7024.92L82.1365 7024.68C81.3398 7023.24 80.5911 7021.75 79.892 7020.22L79.4375 7020.43C78.7437 7018.92 78.0985 7017.37 77.5036 7015.79L77.9716 7015.61C77.391 7014.07 76.8585 7012.49 76.3757 7010.88L75.8968 7011.02C75.4193 7009.43 74.9901 7007.81 74.6107 7006.16L75.098 7006.05C74.9118 7005.24 74.7377 7004.42 74.5758 7003.6C74.4004 7002.7 74.2637 7001.85 74.1642 7001.03L73.6679 7001.09C73.4371 6999.18 73.4025 6997.44 73.5482 6995.86L74.0461 6995.91C74.2159 6994.07 74.6361 6992.46 75.2746 6991.04L74.8188 6990.84C75.5555 6989.2 76.5769 6987.81 77.8456 6986.62L78.1879 6986.98C79.3669 6985.87 80.7745 6984.94 82.3854 6984.15L82.1653 6983.7C83.6475 6982.97 85.2884 6982.37 87.0638 6981.87L87.2006 6982.35C88.7771 6981.9 90.465 6981.53 92.2482 6981.22L92.1623 6980.72C93.8136 6980.44 95.5418 6980.2 97.3332 6980L97.3882 6980.5C99.0646 6980.31 100.798 6980.16 102.578 6980.03L102.541 6979.53C104.247 6979.4 105.993 6979.3 107.77 6979.2L107.798 6979.7C109.509 6979.61 111.25 6979.52 113.012 6979.43L112.987 6978.94C113.039 6978.93 113.091 6978.93 113.143 6978.93C114.819 6978.85 116.512 6978.76 118.215 6978.67L118.242 6979.17C119.976 6979.08 121.721 6978.98 123.469 6978.86L123.435 6978.36C125.173 6978.24 126.914 6978.1 128.649 6977.94L128.695 6978.44C130.442 6978.27 132.185 6978.08 133.913 6977.86L133.849 6977.37C135.589 6977.14 137.314 6976.88 139.017 6976.58L139.105 6977.07C140.847 6976.76 142.568 6976.4 144.257 6975.99L144.139 6975.5C145.851 6975.09 147.53 6974.61 149.166 6974.07L149.323 6974.55C150.161 6974.27 150.989 6973.98 151.805 6973.66C152.622 6973.35 153.434 6973.05 154.24 6972.75L154.067 6972.28C155.73 6971.67 157.369 6971.09 158.982 6970.55L159.139 6971.03C160.818 6970.47 162.468 6969.96 164.087 6969.49L163.949 6969.01C165.66 6968.52 167.338 6968.08 168.981 6967.7L169.094 6968.19C170.825 6967.79 172.516 6967.46 174.164 6967.19L174.085 6966.7C175.857 6966.42 177.582 6966.22 179.257 6966.1L179.29 6966.6C181.065 6966.48 182.781 6966.47 184.435 6966.56L184.463 6966.06C186.25 6966.16 187.968 6966.38 189.616 6966.74L189.509 6967.23C191.206 6967.6 192.822 6968.12 194.356 6968.8L194.557 6968.34C196.14 6969.04 197.639 6969.9 199.048 6970.94L198.751 6971.35C200.08 6972.33 201.329 6973.47 202.495 6974.8L202.87 6974.47C203.966 6975.71 204.988 6977.1 205.934 6978.65L205.507 6978.91C206.351 6980.3 207.134 6981.82 207.855 6983.48L208.313 6983.28C208.971 6984.79 209.576 6986.42 210.126 6988.16L209.649 6988.31C210.142 6989.87 210.59 6991.53 210.994 6993.29L211.481 6993.18C211.852 6994.79 212.184 6996.49 212.477 6998.28L211.983 6998.36C212.121 6999.2 212.251 7000.06 212.371 7000.94Z" fill="#F3F4F9" stroke="#CBCDF4" stroke-dasharray="5 5"/>
<path d="M123.221 7001.9L119.591 7006.52C120.951 7007 122.031 7007.76 122.831 7008.8C123.651 7009.82 124.061 7011.02 124.061 7012.4C124.061 7014.6 123.321 7016.32 121.841 7017.56C120.361 7018.8 118.551 7019.42 116.411 7019.42C114.711 7019.42 113.211 7019.04 111.911 7018.28C110.611 7017.5 109.661 7016.38 109.061 7014.92L113.201 7012.52C113.721 7014 114.791 7014.74 116.411 7014.74C117.591 7014.82 118.431 7014.45 118.931 7013.63C119.431 7012.81 119.431 7011.99 118.931 7011.17C118.431 7010.35 117.591 7009.98 116.411 7010.06H115.421L113.591 7007.33L117.401 7002.5H109.721V6998H123.221V7001.9ZM152.705 7014.8V7004H157.205V7019H135.305V7004H139.805V7014.8H144.005V7004H148.505V7014.8H152.705ZM171.99 7005.41V7004H176.49V7019H171.99V7017.59C170.95 7018.81 169.46 7019.42 167.52 7019.42C165.54 7019.42 163.85 7018.66 162.45 7017.14C161.05 7015.62 160.35 7013.74 160.35 7011.5C160.35 7009.28 161.05 7007.41 162.45 7005.89C163.87 7004.35 165.56 7003.58 167.52 7003.58C169.46 7003.58 170.95 7004.19 171.99 7005.41ZM164.85 7011.5C164.85 7012.62 165.18 7013.51 165.84 7014.17C166.5 7014.83 167.36 7015.16 168.42 7015.16C169.48 7015.16 170.34 7014.83 171 7014.17C171.66 7013.51 171.99 7012.62 171.99 7011.5C171.99 7010.38 171.66 7009.49 171 7008.83C170.34 7008.17 169.48 7007.84 168.42 7007.84C167.36 7007.84 166.5 7008.17 165.84 7008.83C165.18 7009.49 164.85 7010.38 164.85 7011.5ZM180.392 7004H190.892V7008.32H184.892V7019H180.392V7004Z" fill="#696FE6"/>
</svg>
