<svg width="582" height="7541" viewBox="0 0 582 7541" fill="none" xmlns="http://www.w3.org/2000/svg">
<path d="M158.459 85.4619C118.46 155.962 218.459 246.962 162.065 489.962C128.881 632.951 133.171 727.462 162.065 835.462C190.96 943.462 196.46 1335.46 115.96 1504.46C35.4606 1673.46 363.46 1800.46 313.46 2158.46C263.46 2516.46 41.3569 2469.66 4.46008 2610.46C-39.0399 2776.46 344.46 2759.96 211.46 3211.96C78.4605 3663.96 169.46 4299.96 169.46 4431.96" stroke="#CBCDF4" stroke-dasharray="5 5"/>
<path d="M213.37 34.9426C213.481 35.7545 213.576 36.552 213.656 37.3355L214.153 37.2852C214.32 38.9367 214.418 40.5275 214.449 42.0602L213.949 42.0704C213.983 43.7294 213.938 45.3181 213.818 46.8404L214.317 46.8797C214.186 48.5367 213.967 50.1178 213.665 51.6275L213.175 51.5293C212.853 53.1314 212.437 54.6503 211.931 56.0921L212.402 56.2578C211.858 57.8071 211.211 59.2703 210.468 60.654L210.027 60.4174C209.274 61.8202 208.42 63.1401 207.471 64.3845L207.869 64.6876C206.9 65.9584 205.834 67.1513 204.68 68.2738L204.331 67.9153C203.213 69.002 202.009 70.023 200.724 70.9851L201.024 71.3853C199.764 72.3286 198.43 73.2147 197.026 74.0502L196.77 73.6206C195.433 74.4167 194.031 75.1671 192.57 75.8774L192.789 76.3271C191.379 77.0123 189.916 77.6597 188.404 78.2743L188.216 77.8111C186.768 78.3993 185.275 78.9578 183.74 79.4908L183.904 79.9632C182.416 80.4797 180.89 80.9722 179.33 81.4446L179.185 80.966C177.682 81.421 176.146 81.8575 174.581 82.2791L174.711 82.7619C173.184 83.1729 171.631 83.5697 170.053 83.9554L169.934 83.4697C168.4 83.8448 166.842 84.2097 165.264 84.5672L165.374 85.0549C163.828 85.4052 162.263 85.7484 160.682 86.0875L160.577 85.5986C159.024 85.9316 157.455 86.2606 155.872 86.5885L155.974 87.0781C154.418 87.4004 152.849 87.7215 151.269 88.044L151.169 87.5541L148.811 88.0354C147.985 88.2041 147.163 88.3578 146.346 88.4968L146.43 88.9897C144.751 89.2751 143.09 89.4986 141.448 89.6621L141.399 89.1645C139.715 89.3322 138.052 89.4361 136.411 89.4783L136.424 89.9781C134.725 90.0218 133.049 89.9998 131.398 89.9142L131.424 89.4149C129.74 89.3276 128.083 89.1738 126.453 88.9556L126.387 89.4512C124.706 89.2262 123.055 88.9334 121.434 88.5751L121.542 88.0869C119.904 87.7251 118.299 87.2959 116.726 86.8021L116.576 87.2791C114.965 86.7729 113.387 86.1992 111.847 85.5607L112.038 85.0988C110.495 84.4595 108.99 83.7548 107.523 82.9873L107.291 83.4303C105.801 82.6509 104.351 81.8073 102.943 80.9024L103.213 80.4818C101.814 79.5826 100.456 78.6224 99.1414 77.6038L98.8351 77.9991C97.5112 76.9732 96.231 75.8888 94.9966 74.7487L95.3359 74.3814C94.1176 73.2562 92.9442 72.0761 91.8175 70.8439L91.4485 71.1813C90.322 69.9493 89.242 68.6658 88.2105 67.3335L88.6058 67.0274C87.593 65.7193 86.6271 64.3637 85.7099 62.9631L85.2916 63.237C84.3784 61.8423 83.5132 60.4036 82.698 58.9234L83.136 58.6821C82.3393 57.2356 81.5906 55.749 80.8915 54.2247L80.437 54.4331C79.7432 52.9204 79.098 51.371 78.5031 49.7872L78.9711 49.6114C78.3905 48.0658 77.8581 46.4871 77.3752 44.8774L76.8963 45.0211C76.4188 43.429 75.9896 41.807 75.6102 40.1572L76.0975 40.0451C75.9113 39.2356 75.7372 38.4193 75.5753 37.5964C75.3999 36.7047 75.2632 35.8484 75.1638 35.0261L74.6674 35.0862C74.4366 33.1787 74.4021 31.4437 74.5477 29.8645L75.0456 29.9104C75.2154 28.0691 75.6356 26.4568 76.2741 25.0407L75.8183 24.8351C76.555 23.2012 77.5764 21.8078 78.8452 20.6163L79.1875 20.9808C80.3665 19.8735 81.7741 18.94 83.385 18.1501L83.1648 17.7011C84.647 16.9743 86.2879 16.3711 88.0633 15.8663L88.2001 16.3472C89.7766 15.899 91.4645 15.5282 93.2477 15.2174L93.1619 14.7249C94.8131 14.4371 96.5413 14.2011 98.3327 14.0027L98.3877 14.4996C100.064 14.3139 101.798 14.1611 103.577 14.0295L103.54 13.5308C105.246 13.4047 106.993 13.2981 108.77 13.2007L108.797 13.7C110.509 13.6061 112.249 13.5209 114.011 13.4349L113.987 12.9355C114.039 12.933 114.091 12.9304 114.143 12.9279C115.818 12.8461 117.512 12.7634 119.215 12.672L119.241 13.1713C120.975 13.0782 122.721 12.9759 124.469 12.8561L124.434 12.3573C126.173 12.2381 127.914 12.1016 129.648 11.9394L129.695 12.4372C131.442 12.2739 133.184 12.0846 134.913 11.8609L134.849 11.365C136.588 11.1398 138.314 10.8797 140.016 10.5761L140.104 11.0683C141.847 10.7575 143.567 10.401 145.256 9.98962L145.138 9.50382C146.851 9.0867 148.529 8.61302 150.165 8.07308L150.322 8.54789C151.161 8.27112 151.988 7.97694 152.804 7.66404C153.622 7.35045 154.433 7.04507 155.239 6.74834L155.066 6.27914C156.73 5.66653 158.369 5.09048 159.981 4.55478L160.139 5.02928C161.818 4.47155 163.468 3.95797 165.087 3.49276L164.949 3.0122C166.66 2.52062 168.338 2.08254 169.981 1.70299L170.093 2.19016C171.825 1.79023 173.515 1.45602 175.163 1.19323L175.085 0.699466C176.856 0.417002 178.581 0.216141 180.256 0.104137L180.29 0.603023C182.065 0.484361 183.781 0.466654 185.435 0.557975L185.462 0.0587347C187.249 0.157371 188.968 0.381668 190.616 0.742386L190.509 1.23082C192.205 1.60233 193.822 2.12043 195.355 2.79638L195.557 2.33888C197.14 3.03687 198.638 3.9008 200.048 4.94345L199.751 5.34542C201.079 6.32829 202.329 7.47459 203.495 8.79673L203.87 8.466C204.966 9.7085 205.988 11.1017 206.933 12.6547L206.506 12.9147C207.35 14.3008 208.134 15.8185 208.854 17.4754L209.313 17.2761C209.971 18.7898 210.575 20.4159 211.125 22.1593L210.649 22.3097C211.141 23.8717 211.59 25.5303 211.993 27.2893L212.48 27.1776C212.851 28.7946 213.183 30.4946 213.476 32.2802L212.983 32.3611C213.121 33.2022 213.25 34.0626 213.37 34.9426Z" fill="#F3F4F9" stroke="#CBCDF4" stroke-dasharray="5 5"/>
<path d="M109.76 32.9419L115.25 30.9619H119.45V51.9619H114.65V36.0319L110.93 37.0519L109.76 32.9419ZM149.31 47.7619V36.9619H153.81V51.9619L131.91 51.9619V36.9619H136.41V47.7619H140.61V36.9619H145.11V47.7619H149.31ZM168.595 38.3719V36.9619L173.095 36.9619V51.9619H168.595V50.5519C167.555 51.7719 166.065 52.3819 164.125 52.3819C162.145 52.3819 160.455 51.6219 159.055 50.1019C157.655 48.5819 156.955 46.7019 156.955 44.4619C156.955 42.2419 157.655 40.3719 159.055 38.8519C160.475 37.3119 162.165 36.5419 164.125 36.5419C166.065 36.5419 167.555 37.1519 168.595 38.3719ZM161.455 44.4619C161.455 45.5819 161.785 46.4719 162.445 47.1319C163.105 47.7919 163.965 48.1219 165.025 48.1219C166.085 48.1219 166.945 47.7919 167.605 47.1319C168.265 46.4719 168.595 45.5819 168.595 44.4619C168.595 43.3419 168.265 42.4519 167.605 41.7919C166.945 41.1319 166.085 40.8019 165.025 40.8019C163.965 40.8019 163.105 41.1319 162.445 41.7919C161.785 42.4519 161.455 43.3419 161.455 44.4619ZM176.997 36.9619H187.497V41.2819H181.497V51.9619H176.997V36.9619Z" fill="#696FE6"/>
<path d="M169.462 4431.96C169.462 4503.96 173.961 4745.46 139.46 4935.46C85.3208 5233.62 164.496 5547.31 173.961 5690.46C185.961 5871.96 193.461 6243.46 169.461 6315.46C93.6863 6542.79 162.5 6802.5 162.5 6873" stroke="#CBCDF4" stroke-dasharray="5 5"/>
<path d="M212.371 4559.9C212.482 4560.72 212.577 4561.51 212.656 4562.3L213.154 4562.25C213.321 4563.9 213.419 4565.49 213.45 4567.02L212.95 4567.03C212.984 4568.69 212.939 4570.28 212.819 4571.8L213.317 4571.84C213.187 4573.5 212.968 4575.08 212.665 4576.59L212.175 4576.49C211.854 4578.09 211.437 4579.61 210.931 4581.05L211.403 4581.22C210.859 4582.77 210.212 4584.23 209.468 4585.62L209.028 4585.38C208.274 4586.78 207.42 4588.1 206.471 4589.35L206.869 4589.65C205.9 4590.92 204.835 4592.11 203.68 4593.24L203.332 4592.88C202.214 4593.96 201.009 4594.98 199.725 4595.95L200.024 4596.35C198.765 4597.29 197.43 4598.18 196.027 4599.01L195.771 4598.58C194.434 4599.38 193.032 4600.13 191.571 4600.84L191.789 4601.29C190.379 4601.97 188.916 4602.62 187.404 4603.24L187.216 4602.77C185.769 4603.36 184.276 4603.92 182.741 4604.45L182.905 4604.93C181.417 4605.44 179.891 4605.93 178.33 4606.41L178.185 4605.93C176.682 4606.38 175.146 4606.82 173.581 4607.24L173.711 4607.72C172.185 4608.13 170.631 4608.53 169.053 4608.92L168.935 4608.43C167.4 4608.81 165.843 4609.17 164.264 4609.53L164.375 4610.02C162.829 4610.37 161.264 4610.71 159.682 4611.05L159.577 4610.56C158.025 4610.89 156.455 4611.22 154.873 4611.55L154.974 4612.04C153.418 4612.36 151.849 4612.68 150.27 4613.01L150.17 4612.52L147.812 4613C146.986 4613.17 146.164 4613.32 145.347 4613.46L145.43 4613.95C143.751 4614.24 142.09 4614.46 140.449 4614.62L140.399 4614.13C138.715 4614.29 137.052 4614.4 135.412 4614.44L135.424 4614.94C133.725 4614.98 132.049 4614.96 130.398 4614.88L130.424 4614.38C128.741 4614.29 127.083 4614.14 125.454 4613.92L125.387 4614.41C123.707 4614.19 122.055 4613.9 120.434 4613.54L120.542 4613.05C118.905 4612.69 117.299 4612.26 115.727 4611.76L115.577 4612.24C113.965 4611.73 112.388 4611.16 110.847 4610.52L111.039 4610.06C109.496 4609.42 107.99 4608.72 106.523 4607.95L106.291 4608.39C104.802 4607.61 103.352 4606.77 101.943 4605.86L102.214 4605.44C100.814 4604.54 99.4563 4603.58 98.1418 4602.57L97.8356 4602.96C96.5117 4601.94 95.2315 4600.85 93.9971 4599.71L94.3364 4599.34C93.1181 4598.22 91.9447 4597.04 90.818 4595.81L90.449 4596.14C89.3225 4594.91 88.2425 4593.63 87.2109 4592.3L87.6063 4591.99C86.5935 4590.68 85.6276 4589.33 84.7104 4587.92L84.2921 4588.2C83.3789 4586.8 82.5137 4585.37 81.6985 4583.89L82.1365 4583.64C81.3398 4582.2 80.5911 4580.71 79.892 4579.19L79.4375 4579.4C78.7437 4577.88 78.0985 4576.33 77.5036 4574.75L77.9716 4574.57C77.391 4573.03 76.8585 4571.45 76.3757 4569.84L75.8968 4569.98C75.4193 4568.39 74.9901 4566.77 74.6107 4565.12L75.098 4565.01C74.9118 4564.2 74.7377 4563.38 74.5758 4562.56C74.4004 4561.67 74.2637 4560.81 74.1642 4559.99L73.6679 4560.05C73.4371 4558.14 73.4025 4556.41 73.5482 4554.83L74.0461 4554.87C74.2159 4553.03 74.6361 4551.42 75.2746 4550L74.8188 4549.8C75.5555 4548.16 76.5769 4546.77 77.8456 4545.58L78.1879 4545.94C79.3669 4544.84 80.7745 4543.9 82.3854 4543.11L82.1653 4542.66C83.6475 4541.94 85.2884 4541.33 87.0638 4540.83L87.2006 4541.31C88.7771 4540.86 90.465 4540.49 92.2482 4540.18L92.1623 4539.69C93.8136 4539.4 95.5418 4539.16 97.3332 4538.96L97.3882 4539.46C99.0646 4539.28 100.798 4539.12 102.578 4538.99L102.541 4538.49C104.247 4538.37 105.993 4538.26 107.77 4538.16L107.798 4538.66C109.509 4538.57 111.25 4538.48 113.012 4538.4L112.987 4537.9C113.039 4537.89 113.091 4537.89 113.143 4537.89C114.819 4537.81 116.512 4537.73 118.215 4537.63L118.242 4538.13C119.976 4538.04 121.721 4537.94 123.469 4537.82L123.435 4537.32C125.173 4537.2 126.914 4537.06 128.649 4536.9L128.695 4537.4C130.442 4537.24 132.185 4537.05 133.913 4536.82L133.849 4536.33C135.589 4536.1 137.314 4535.84 139.017 4535.54L139.105 4536.03C140.847 4535.72 142.568 4535.36 144.257 4534.95L144.139 4534.47C145.851 4534.05 147.53 4533.57 149.166 4533.03L149.323 4533.51C150.161 4533.23 150.989 4532.94 151.805 4532.63C152.622 4532.31 153.434 4532.01 154.24 4531.71L154.067 4531.24C155.73 4530.63 157.369 4530.05 158.982 4529.52L159.139 4529.99C160.818 4529.43 162.468 4528.92 164.087 4528.45L163.949 4527.97C165.66 4527.48 167.338 4527.04 168.981 4526.66L169.094 4527.15C170.825 4526.75 172.516 4526.42 174.164 4526.16L174.085 4525.66C175.857 4525.38 177.582 4525.18 179.257 4525.07L179.29 4525.56C181.065 4525.45 182.781 4525.43 184.435 4525.52L184.463 4525.02C186.25 4525.12 187.968 4525.34 189.616 4525.7L189.509 4526.19C191.206 4526.56 192.822 4527.08 194.356 4527.76L194.557 4527.3C196.14 4528 197.639 4528.86 199.048 4529.91L198.751 4530.31C200.08 4531.29 201.329 4532.44 202.495 4533.76L202.87 4533.43C203.966 4534.67 204.988 4536.06 205.934 4537.62L205.507 4537.88C206.351 4539.26 207.134 4540.78 207.855 4542.44L208.313 4542.24C208.971 4543.75 209.576 4545.38 210.126 4547.12L209.649 4547.27C210.142 4548.83 210.59 4550.49 210.994 4552.25L211.481 4552.14C211.852 4553.76 212.184 4555.46 212.477 4557.24L211.983 4557.32C212.121 4558.16 212.251 4559.02 212.371 4559.9Z" fill="white" stroke="#CBCDF4" stroke-dasharray="5 5"/>
<path d="M122.401 4577.96H108.121V4574.48L115.171 4567.16C116.591 4565.68 117.301 4564.44 117.301 4563.44C117.301 4562.78 117.101 4562.25 116.701 4561.85C116.301 4561.43 115.751 4561.22 115.051 4561.22C113.651 4561.22 112.621 4561.98 111.961 4563.5L107.911 4561.13C108.551 4559.67 109.501 4558.54 110.761 4557.74C112.021 4556.94 113.431 4556.54 114.991 4556.54C116.971 4556.54 118.641 4557.15 120.001 4558.37C121.401 4559.57 122.101 4561.19 122.101 4563.23C122.101 4565.45 121.011 4567.65 118.831 4569.83L115.351 4573.34H122.401V4577.96ZM151.207 4573.76V4562.96H155.707V4577.96H133.807V4562.96H138.307V4573.76H142.507V4562.96H147.007V4573.76H151.207ZM170.492 4564.37V4562.96H174.992V4577.96H170.492V4576.55C169.452 4577.77 167.962 4578.38 166.022 4578.38C164.042 4578.38 162.352 4577.62 160.952 4576.1C159.552 4574.58 158.852 4572.7 158.852 4570.46C158.852 4568.24 159.552 4566.37 160.952 4564.85C162.372 4563.31 164.062 4562.54 166.022 4562.54C167.962 4562.54 169.452 4563.15 170.492 4564.37ZM163.352 4570.46C163.352 4571.58 163.682 4572.47 164.342 4573.13C165.002 4573.79 165.862 4574.12 166.922 4574.12C167.982 4574.12 168.842 4573.79 169.502 4573.13C170.162 4572.47 170.492 4571.58 170.492 4570.46C170.492 4569.34 170.162 4568.45 169.502 4567.79C168.842 4567.13 167.982 4566.8 166.922 4566.8C165.862 4566.8 165.002 4567.13 164.342 4567.79C163.682 4568.45 163.352 4569.34 163.352 4570.46ZM178.894 4562.96H189.394V4567.28H183.394V4577.96H178.894V4562.96Z" fill="#696FE6"/>
<path d="M162.461 6873C162.461 6949 66.9609 7037.5 209.961 7182.5C317.316 7291.36 537.461 7279.5 580.961 7540.5" stroke="#CBCDF4" stroke-dasharray="5 5"/>
<path d="M207.371 7000.94C207.482 7001.75 207.577 7002.55 207.656 7003.34L208.154 7003.29C208.321 7004.94 208.419 7006.53 208.45 7008.06L207.95 7008.07C207.984 7009.73 207.939 7011.32 207.819 7012.84L208.317 7012.88C208.187 7014.54 207.968 7016.12 207.665 7017.63L207.175 7017.53C206.854 7019.13 206.437 7020.65 205.931 7022.09L206.403 7022.26C205.859 7023.81 205.212 7025.27 204.468 7026.65L204.028 7026.42C203.274 7027.82 202.42 7029.14 201.471 7030.38L201.869 7030.69C200.9 7031.96 199.835 7033.15 198.68 7034.27L198.332 7033.92C197.214 7035 196.009 7036.02 194.725 7036.99L195.024 7037.39C193.765 7038.33 192.43 7039.21 191.027 7040.05L190.771 7039.62C189.434 7040.42 188.032 7041.17 186.571 7041.88L186.789 7042.33C185.379 7043.01 183.916 7043.66 182.404 7044.27L182.216 7043.81C180.769 7044.4 179.276 7044.96 177.741 7045.49L177.905 7045.96C176.417 7046.48 174.891 7046.97 173.33 7047.44L173.185 7046.97C171.682 7047.42 170.146 7047.86 168.581 7048.28L168.711 7048.76C167.185 7049.17 165.631 7049.57 164.053 7049.96L163.935 7049.47C162.4 7049.84 160.843 7050.21 159.264 7050.57L159.375 7051.05C157.829 7051.41 156.264 7051.75 154.682 7052.09L154.577 7051.6C153.025 7051.93 151.455 7052.26 149.873 7052.59L149.974 7053.08C148.418 7053.4 146.849 7053.72 145.27 7054.04L145.17 7053.55L142.812 7054.04C141.986 7054.2 141.164 7054.36 140.347 7054.5L140.43 7054.99C138.751 7055.28 137.09 7055.5 135.449 7055.66L135.399 7055.16C133.715 7055.33 132.052 7055.44 130.412 7055.48L130.424 7055.98C128.725 7056.02 127.049 7056 125.398 7055.91L125.424 7055.41C123.741 7055.33 122.083 7055.17 120.454 7054.96L120.387 7055.45C118.707 7055.23 117.055 7054.93 115.434 7054.58L115.542 7054.09C113.905 7053.73 112.299 7053.3 110.727 7052.8L110.577 7053.28C108.965 7052.77 107.388 7052.2 105.847 7051.56L106.039 7051.1C104.496 7050.46 102.99 7049.75 101.523 7048.99L101.291 7049.43C99.8017 7048.65 98.3517 7047.81 96.9434 7046.9L97.2136 7046.48C95.8143 7045.58 94.4563 7044.62 93.1418 7043.6L92.8356 7044C91.5117 7042.97 90.2315 7041.89 88.9971 7040.75L89.3364 7040.38C88.1181 7039.26 86.9447 7038.08 85.818 7036.84L85.449 7037.18C84.3225 7035.95 83.2425 7034.67 82.2109 7033.33L82.6063 7033.03C81.5935 7031.72 80.6276 7030.36 79.7104 7028.96L79.2921 7029.24C78.3789 7027.84 77.5137 7026.4 76.6985 7024.92L77.1365 7024.68C76.3398 7023.24 75.5911 7021.75 74.892 7020.22L74.4375 7020.43C73.7437 7018.92 73.0985 7017.37 72.5036 7015.79L72.9716 7015.61C72.391 7014.07 71.8585 7012.49 71.3757 7010.88L70.8968 7011.02C70.4193 7009.43 69.9901 7007.81 69.6107 7006.16L70.0979 7006.05C69.9118 7005.24 69.7377 7004.42 69.5758 7003.6C69.4004 7002.7 69.2637 7001.85 69.1642 7001.03L68.6679 7001.09C68.4371 6999.18 68.4025 6997.44 68.5482 6995.86L69.0461 6995.91C69.2159 6994.07 69.6361 6992.46 70.2746 6991.04L69.8188 6990.84C70.5555 6989.2 71.5769 6987.81 72.8456 6986.62L73.1879 6986.98C74.3669 6985.87 75.7745 6984.94 77.3854 6984.15L77.1653 6983.7C78.6475 6982.97 80.2884 6982.37 82.0638 6981.87L82.2006 6982.35C83.7771 6981.9 85.465 6981.53 87.2482 6981.22L87.1623 6980.72C88.8136 6980.44 90.5418 6980.2 92.3332 6980L92.3882 6980.5C94.0646 6980.31 95.7981 6980.16 97.5778 6980.03L97.541 6979.53C99.2467 6979.4 100.993 6979.3 102.77 6979.2L102.798 6979.7C104.509 6979.61 106.25 6979.52 108.012 6979.43L107.987 6978.94C108.039 6978.93 108.091 6978.93 108.143 6978.93C109.819 6978.85 111.512 6978.76 113.215 6978.67L113.242 6979.17C114.976 6979.08 116.721 6978.98 118.469 6978.86L118.435 6978.36C120.173 6978.24 121.914 6978.1 123.649 6977.94L123.695 6978.44C125.442 6978.27 127.185 6978.08 128.913 6977.86L128.849 6977.37C130.589 6977.14 132.314 6976.88 134.017 6976.58L134.105 6977.07C135.847 6976.76 137.568 6976.4 139.257 6975.99L139.139 6975.5C140.851 6975.09 142.53 6974.61 144.166 6974.07L144.323 6974.55C145.161 6974.27 145.989 6973.98 146.805 6973.66C147.622 6973.35 148.434 6973.05 149.24 6972.75L149.067 6972.28C150.73 6971.67 152.369 6971.09 153.982 6970.55L154.139 6971.03C155.818 6970.47 157.468 6969.96 159.087 6969.49L158.949 6969.01C160.66 6968.52 162.338 6968.08 163.981 6967.7L164.094 6968.19C165.825 6967.79 167.516 6967.46 169.164 6967.19L169.085 6966.7C170.857 6966.42 172.582 6966.22 174.257 6966.1L174.29 6966.6C176.065 6966.48 177.781 6966.47 179.435 6966.56L179.463 6966.06C181.25 6966.16 182.968 6966.38 184.616 6966.74L184.509 6967.23C186.206 6967.6 187.822 6968.12 189.356 6968.8L189.557 6968.34C191.14 6969.04 192.639 6969.9 194.048 6970.94L193.751 6971.35C195.08 6972.33 196.329 6973.47 197.495 6974.8L197.87 6974.47C198.966 6975.71 199.988 6977.1 200.934 6978.65L200.507 6978.91C201.351 6980.3 202.134 6981.82 202.855 6983.48L203.313 6983.28C203.971 6984.79 204.576 6986.42 205.126 6988.16L204.649 6988.31C205.142 6989.87 205.59 6991.53 205.994 6993.29L206.481 6993.18C206.852 6994.79 207.184 6996.49 207.477 6998.28L206.983 6998.36C207.121 6999.2 207.251 7000.06 207.371 7000.94Z" fill="#F3F4F9" stroke="#CBCDF4" stroke-dasharray="5 5"/>
<path d="M118.221 7001.9L114.591 7006.52C115.951 7007 117.031 7007.76 117.831 7008.8C118.651 7009.82 119.061 7011.02 119.061 7012.4C119.061 7014.6 118.321 7016.32 116.841 7017.56C115.361 7018.8 113.551 7019.42 111.411 7019.42C109.711 7019.42 108.211 7019.04 106.911 7018.28C105.611 7017.5 104.661 7016.38 104.061 7014.92L108.201 7012.52C108.721 7014 109.791 7014.74 111.411 7014.74C112.591 7014.82 113.431 7014.45 113.931 7013.63C114.431 7012.81 114.431 7011.99 113.931 7011.17C113.431 7010.35 112.591 7009.98 111.411 7010.06H110.421L108.591 7007.33L112.401 7002.5H104.721V6998H118.221V7001.9ZM147.705 7014.8V7004H152.205V7019H130.305V7004H134.805V7014.8H139.005V7004H143.505V7014.8H147.705ZM166.99 7005.41V7004H171.49V7019H166.99V7017.59C165.95 7018.81 164.46 7019.42 162.52 7019.42C160.54 7019.42 158.85 7018.66 157.45 7017.14C156.05 7015.62 155.35 7013.74 155.35 7011.5C155.35 7009.28 156.05 7007.41 157.45 7005.89C158.87 7004.35 160.56 7003.58 162.52 7003.58C164.46 7003.58 165.95 7004.19 166.99 7005.41ZM159.85 7011.5C159.85 7012.62 160.18 7013.51 160.84 7014.17C161.5 7014.83 162.36 7015.16 163.42 7015.16C164.48 7015.16 165.34 7014.83 166 7014.17C166.66 7013.51 166.99 7012.62 166.99 7011.5C166.99 7010.38 166.66 7009.49 166 7008.83C165.34 7008.17 164.48 7007.84 163.42 7007.84C162.36 7007.84 161.5 7008.17 160.84 7008.83C160.18 7009.49 159.85 7010.38 159.85 7011.5ZM175.392 7004H185.892V7008.32H179.892V7019H175.392V7004Z" fill="#696FE6"/>
</svg>
