<svg width="26" height="26" viewBox="0 0 26 26" fill="none" xmlns="http://www.w3.org/2000/svg">
<path fill-rule="evenodd" clip-rule="evenodd" d="M14.5027 15.1668C16.4602 13.5243 16.7155 10.606 15.073 8.6485C13.4305 6.69105 10.5122 6.43573 8.55472 8.07823C6.59727 9.72073 6.34194 12.6391 7.98445 14.5965C9.62695 16.554 12.5453 16.8093 14.5027 15.1668ZM15.2462 16.0529C17.6931 13.9997 18.0122 10.3518 15.9591 7.905C13.906 5.45818 10.258 5.13903 7.81122 7.19215C5.3644 9.24528 5.04525 12.8932 7.09837 15.34C9.1515 17.7868 12.7994 18.106 15.2462 16.0529Z" fill="#ECC0C7"/>
<path fill-rule="evenodd" clip-rule="evenodd" d="M18.1478 20.4121L14.4303 15.9818L15.3164 15.2383L19.0339 19.6686L18.1478 20.4121Z" fill="#ECC0C7"/>
</svg>
