<svg width="42" height="43" viewBox="0 0 42 43" fill="none" xmlns="http://www.w3.org/2000/svg">
<path fill-rule="evenodd" clip-rule="evenodd" d="M16.265 18.0442C17.7435 18.0442 18.8934 16.8812 18.8934 15.3859C18.8934 13.8907 17.7435 12.7277 16.265 12.7277C14.7866 12.7277 13.6367 13.8907 13.6367 15.3859C13.6367 16.8812 14.8687 18.0442 16.265 18.0442ZM16.265 13.2277C15.0681 13.2277 14.1367 14.1615 14.1367 15.3859C14.1367 16.6003 15.1401 17.5442 16.265 17.5442C17.462 17.5442 18.3934 16.6104 18.3934 15.3859C18.3934 14.1615 17.462 13.2277 16.265 13.2277Z" fill="#696FE5"/>
<path fill-rule="evenodd" clip-rule="evenodd" d="M26.1646 15.9178L14.6676 27.6005L11.585 24.4682L3.12891 32.4853C6.8044 38.4958 13.3611 42.5001 20.8326 42.5001C29.368 42.5001 36.7096 37.2742 39.9255 29.8016L26.1646 15.9178ZM11.5729 25.1687L3.76952 32.567C7.39627 38.2464 13.6877 42.0001 20.8326 42.0001C29.04 42.0001 36.1223 37.0462 39.3308 29.9118L26.1659 16.6294L14.6676 28.3133L11.5729 25.1687Z" fill="#696FE5"/>
<path fill-rule="evenodd" clip-rule="evenodd" d="M40.3848 29.9992L40.5182 29.6893L26.1633 15.2063L14.6676 26.8876L11.5972 23.7677L2.49121 32.4009L2.70234 32.7462C6.46344 38.8966 13.1772 43.0001 20.8326 43.0001C29.5786 43.0001 37.0942 37.6452 40.3848 29.9992ZM14.6676 27.6005L26.1646 15.9178L39.9255 29.8016C36.7096 37.2742 29.368 42.5001 20.8326 42.5001C13.3611 42.5001 6.8044 38.4958 3.12891 32.4853L11.585 24.4682L14.6676 27.6005Z" fill="#696FE5"/>
<path fill-rule="evenodd" clip-rule="evenodd" d="M14.1367 15.3859C14.1367 14.1615 15.0681 13.2277 16.265 13.2277C17.462 13.2277 18.3934 14.1615 18.3934 15.3859C18.3934 16.6104 17.462 17.5442 16.265 17.5442C15.1401 17.5442 14.1367 16.6003 14.1367 15.3859ZM3.76952 32.567L11.5729 25.1687L14.6676 28.3133L26.1659 16.6294L39.3308 29.9118C36.1223 37.0462 29.04 42.0001 20.8326 42.0001C13.6877 42.0001 7.39627 38.2464 3.76952 32.567Z" fill="#696FE5"/>
<path d="M21.001 0.5C9.39427 0.5 0.5 9.49544 0.5 21.2342C0.5 22.3035 0.578165 23.3544 0.729027 24.3815L1.22372 24.3089C1.07638 23.3058 1 22.2791 1 21.2342C1 9.76624 9.67573 1 21.001 1C32.3262 1 41 9.76618 41 21.2342C41 22.2791 40.9236 23.3058 40.7763 24.3089L41.271 24.3815C41.4218 23.3544 41.5 22.3035 41.5 21.2342C41.5 9.49544 32.6077 0.5 21.001 0.5Z" fill="#696FE5"/>
<path d="M0.5 21.2342C0.5 9.49544 9.39427 0.5 21.001 0.5C32.6077 0.5 41.5 9.49544 41.5 21.2342C41.5 22.3035 41.4218 23.3544 41.271 24.3815L41.7657 24.4542C41.9201 23.4031 42 22.3279 42 21.2342C42 9.22471 32.8892 0 21.001 0C9.11281 0 0 9.22465 0 21.2342C0 22.3279 0.0799506 23.4031 0.234336 24.4542L0.729027 24.3815C0.578165 23.3544 0.5 22.3035 0.5 21.2342Z" fill="#696FE5"/>
</svg>
