<?xml version="1.0" standalone="no"?>
<!DOCTYPE svg PUBLIC "-//W3C//DTD SVG 20010904//EN"
 "http://www.w3.org/TR/2001/REC-SVG-20010904/DTD/svg10.dtd">
<svg version="1.0" xmlns="http://www.w3.org/2000/svg"
 width="700.000000pt" height="700.000000pt" viewBox="0 0 700.000000 700.000000"
 preserveAspectRatio="xMidYMid meet">
<metadata>
Created by potrace 1.14, written by Peter Selinger 2001-2017
</metadata>
<g transform="translate(0.000000,700.000000) scale(0.100000,-0.100000)"
fill="#000000" stroke="none">
<path d="M1517 3518 c-828 -1916 -1509 -3491 -1513 -3501 -6 -18 12 -18 452
-15 l459 4 120 32 c147 39 326 125 445 212 163 120 313 300 397 477 21 43 394
887 828 1875 435 989 792 1797 795 1797 3 0 361 -808 795 -1797 435 -988 807
-1832 828 -1875 176 -369 540 -641 951 -712 70 -12 177 -15 508 -15 396 0 420
1 414 17 -4 10 -685 1585 -1513 3501 l-1506 3482 -477 0 -477 0 -1506 -3482z"/>
<path d="M3172 2043 c-7 -3 -19 -18 -27 -33 -12 -24 -15 -83 -15 -325 l0 -295
-299 0 c-165 0 -307 -3 -316 -6 -41 -16 -45 -49 -45 -359 0 -302 3 -324 39
-352 12 -9 96 -12 319 -13 l302 0 0 -289 c0 -293 4 -332 38 -357 25 -19 639
-19 664 0 34 25 38 64 38 357 l0 289 303 0 c222 1 306 4 318 13 36 28 39 50
39 352 0 310 -4 343 -45 359 -9 3 -151 6 -316 6 l-299 0 0 289 c0 297 -5 342
-40 361 -19 10 -633 13 -658 3z"/>
</g>
</svg>
