<svg width="65" height="38" fill="none" xmlns="http://www.w3.org/2000/svg"><path fill-rule="evenodd" clip-rule="evenodd" d="M44 38h.503a1 1 0 0 0 .932-.636l.234-.599h2.6l.235.6a.998.998 0 0 0 .931.635H50l-2.407-6h-1.186L44 38Zm3.865-2.269-.896-2.312-.896 2.312h1.792Z" fill="#424C5C"/><path d="M40.514 32 39.5 33.664a2.687 2.687 0 0 1-.302.418c-.07.077-.139.136-.205.178-.157.093-.39.14-.7.14h-.095V32H37v6h1.198v-2.531h.113c.134 0 .26-.006.376-.018.122-.012.239-.032.35-.061l1.298 2.13a1 1 0 0 0 .854.48H42l-1.984-3.25c.116-.134.236-.289.358-.464.128-.18.265-.391.411-.63L41.799 32h-1.285Z" fill="#424C5C"/><path fill-rule="evenodd" clip-rule="evenodd" d="M33.799 35.236a1.603 1.603 0 0 0 .813-1.432c0-.543-.224-.978-.67-1.305-.44-.333-1.023-.499-1.748-.499H30v6h1.301v-2.295h.942l1.036 1.763c.086.145.208.267.353.356.182.113.4.176.63.176H35l-1.553-2.593c.127-.05.244-.106.352-.17Zm-.809-1.948a1.055 1.055 0 0 0-.578-.212 1.842 1.842 0 0 0-.17-.007h-.941v1.576h.942c.058 0 .115-.002.17-.007a1.08 1.08 0 0 0 .577-.203.696.696 0 0 0 .282-.578c0-.24-.094-.43-.282-.57ZM27.14 37.149c-.573.567-1.286.851-2.14.851-.854 0-1.567-.284-2.14-.851-.573-.573-.86-1.288-.86-2.145 0-.856.287-1.571.86-2.144.573-.574 1.286-.86 2.14-.86.854 0 1.567.286 2.14.86.573.573.86 1.288.86 2.144 0 .857-.287 1.572-.86 2.145Zm-3.42-3.523a1.68 1.68 0 0 1 1.28-.554c.51 0 .934.185 1.272.553.344.37.516.829.516 1.38 0 .55-.172 1.01-.516 1.378a1.665 1.665 0 0 1-1.272.545c-.51 0-.937-.182-1.28-.545-.339-.369-.508-.828-.508-1.379 0-.55.17-1.01.507-1.378Z" fill="#424C5C"/><path d="M17.09 33.072c-.526 0-.965.185-1.32.553-.348.37-.522.829-.522 1.38 0 .55.174 1.01.522 1.378.355.363.794.545 1.32.545.395 0 .737-.102 1.026-.307.29-.21.49-.493.602-.85h-.672c-.614 0-1.09-.48-1.09-1.04h3.02a2.928 2.928 0 0 1-.815 2.444c-.555.55-1.245.825-2.072.825-.879 0-1.614-.284-2.204-.851-.59-.573-.885-1.288-.885-2.145 0-.856.295-1.571.885-2.144.59-.574 1.325-.86 2.204-.86.827 0 1.585.312 2.187.902l-.744.783c-.42-.404-.894-.613-1.443-.613ZM64.996 5.2V0H45.063v5.2h7.366v8.667a4.333 4.333 0 0 0 4.334 4.333h.866v-13h7.367ZM57.63 20.8h-5.2V26h5.2v-5.2ZM27.73 26a2.6 2.6 0 1 0 0-5.2 2.6 2.6 0 0 0 0 5.2ZM45.066 26h-3.505a4.333 4.333 0 0 1-3.43-1.684l-6.065-7.85h5.691L45.067 26Z" fill="#424C5C"/><path d="M42.897 8.883c0 2.092-1.3 6.284-5.144 7.584-.765.295-1.789.433-2.656.433-.866 0-3.033-.433-3.033-.433 3.64-.753 5.633-4.334 5.633-7.367 0-2.167-1.516-3.9-3.683-3.9-1.95 0-3.683 1.57-3.683 3.683V18.2h-.867a4.333 4.333 0 0 1-4.333-4.333V8.883c0-.39.043-1.776.13-2.166C26.187 3.09 29.758 0 33.58 0h.65c4.994.111 8.666 4.094 8.666 8.883ZM23.4 26h-2.375a4.333 4.333 0 0 1-3.965-2.584l-5.36-12.15-5.36 12.15A4.333 4.333 0 0 1 2.375 26H0L11.267 0h.867L23.4 26Z" fill="#424C5C"/><path d="M11.7 20.8 9.1 26h5.2l-2.6-5.2Z" fill="#424C5C"/></svg>