<svg width="69" height="50" fill="none" xmlns="http://www.w3.org/2000/svg"><path d="M68.996 5.539V0h-21.16v5.539h7.82v9.23a4.608 4.608 0 0 0 4.6 4.616h.92V5.539h7.82ZM61.178 22.154h-5.52v5.538h5.52v-5.538ZM29.438 27.692c1.524 0 2.76-1.24 2.76-2.769 0-1.53-1.236-2.77-2.76-2.77a2.765 2.765 0 0 0-2.76 2.77c0 1.53 1.235 2.77 2.76 2.77ZM47.839 27.692h-3.721a4.594 4.594 0 0 1-3.64-1.793l-6.439-8.36h6.041l7.759 10.153Z" fill="#fff"/><path d="M45.538 9.462c0 2.227-1.38 6.692-5.461 8.076-.812.314-1.9.462-2.82.462-.92 0-3.22-.462-3.22-.462 3.865-.802 5.98-4.615 5.98-7.846 0-2.307-1.61-4.154-3.91-4.154-2.07 0-3.91 1.674-3.91 3.924v9.923h-.92c-2.54 0-4.6-2.067-4.6-4.616V9.462c0-.416.047-1.893.139-2.308C27.799 3.292 31.59 0 35.648 0h.69c5.301.118 9.2 4.36 9.2 9.462ZM24.841 27.692h-2.522a4.6 4.6 0 0 1-4.208-2.752L12.42 12 6.73 24.94a4.6 4.6 0 0 1-4.208 2.752H0L11.961 0h.92l11.96 27.692Z" fill="#fff"/><path d="m12.421 22.154-2.76 5.538h5.52l-2.76-5.538Z" fill="#F55"/><path d="M11.98 41.154h2.6v-4.126H8.227a4 4 0 0 0-4 4V46a4 4 0 0 0 4 4h6.353v-4.23h-2.6v1.793H6.802v-8.098h5.176v1.69ZM17.684 46a4 4 0 0 0 4 4h1.594v-2.437H20.26V31.834h-2.576V46ZM26.159 34.419h2.576v-2.585h-2.576v2.585Zm0 15.581h2.576V37.028h-2.576V50ZM39.511 50h2.6v-8.972a4 4 0 0 0-4-4H31.76V50h2.575V39.465h5.177V50ZM45.312 33.126c0 .712.577 1.293 1.288 1.293a1.292 1.292 0 0 0 0-2.585c-.711 0-1.288.58-1.288 1.292Zm0 16.874h2.576V37.028h-2.576V50ZM58.664 41.154h2.6v-4.126h-6.352a4 4 0 0 0-4 4V46a4 4 0 0 0 4 4h6.353v-4.23h-2.6v1.793h-5.177v-8.098h5.176v1.69Z" fill="#fff"/></svg>