<svg width="90" height="65" fill="none" xmlns="http://www.w3.org/2000/svg"><path d="M89.995 7.2V0h-27.6v7.2h10.2v12a6 6 0 0 0 6 6h1.2v-18h10.2ZM79.797 28.8h-7.2V36h7.2v-7.2ZM38.397 36a3.6 3.6 0 1 0 0-7.2 3.6 3.6 0 0 0 0 7.2ZM62.398 36h-4.853a6 6 0 0 1-4.748-2.332l-8.399-10.869h7.88L62.398 36Z" fill="#696FE6"/><path d="M59.397 12.3c0 2.896-1.8 8.7-7.123 10.5-1.06.408-2.477.6-3.677.6-1.2 0-4.2-.6-4.2-.6 5.04-1.043 7.8-6 7.8-10.2 0-3-2.1-5.4-5.1-5.4-2.7 0-5.1 2.175-5.1 5.1v12.9h-1.2a6 6 0 0 1-6-6v-6.9c0-.54.06-2.46.18-3C36.259 4.28 41.204 0 46.497 0h.9c6.915.154 12 5.669 12 12.3ZM32.401 36h-3.29a6 6 0 0 1-5.489-3.578L16.201 15.6 8.779 32.422A6 6 0 0 1 3.29 36H.002l15.6-36h1.2l15.6 36Z" fill="#696FE6"/><path d="M16.2 28.8 12.6 36h7.2l-3.6-7.2Z" fill="#F55"/><path d="M15.625 54.856h3.392v-6.72H9.513a4 4 0 0 0-4 4V61a4 4 0 0 0 4 4h9.504v-6.752h-3.392v3.584H8.873V51.304h6.752v3.552ZM23.066 61a4 4 0 0 0 4 4h3.296v-3.168h-3.936V41.384h-3.36V61ZM34.12 44.744h3.36v-3.36h-3.36v3.36Zm0 20.256h3.36V48.136h-3.36V65ZM51.536 65h3.392V52.136a4 4 0 0 0-4-4h-9.504V65h3.36V51.304h6.752V65ZM59.103 43.064a1.68 1.68 0 1 0 3.36 0 1.68 1.68 0 0 0-3.36 0Zm0 21.936h3.36V48.136h-3.36V65ZM76.518 54.856h3.392v-6.72h-9.504a4 4 0 0 0-4 4V61a4 4 0 0 0 4 4h9.504v-6.752h-3.392v3.584h-6.752V51.304h6.752v3.552Z" fill="#696FE6"/></svg>