<svg width="16" height="76" fill="none" xmlns="http://www.w3.org/2000/svg"><path d="M7.646 75.354a.5.5 0 0 0 .708 0l3.182-3.182a.5.5 0 1 0-.708-.707L8 74.293l-2.828-2.829a.5.5 0 1 0-.708.708l3.182 3.182ZM7.5 0v2.344h1V0h-1Zm0 7.031v4.688h1V7.03h-1Zm0 9.375v4.688h1v-4.688h-1Zm0 9.375v4.688h1V25.78h-1Zm0 9.375v4.688h1v-4.688h-1Zm0 9.375v4.688h1V44.53h-1Zm0 9.375v4.688h1v-4.688h-1Zm0 9.375v4.688h1V63.28h-1Zm0 9.375V75h1v-2.344h-1Zm-.207 3.051a1 1 0 0 0 1.414 0l6.364-6.364a1 1 0 0 0-1.414-1.414L8 73.586l-5.657-5.657A1 1 0 0 0 .93 69.343l6.364 6.364ZM7 0v2.344h2V0H7Zm0 7.031v4.688h2V7.03H7Zm0 9.375v4.688h2v-4.688H7Zm0 9.375v4.688h2V25.78H7Zm0 9.375v4.688h2v-4.688H7Zm0 9.375v4.688h2V44.53H7Zm0 9.375v4.688h2v-4.688H7Zm0 9.375v4.688h2V63.28H7Zm0 9.375V75h2v-2.344H7Z" fill="#696FE6"/></svg>