<svg width="28" height="27" fill="none" xmlns="http://www.w3.org/2000/svg"><path d="M17.25 10h8a2.5 2.5 0 0 1 2.5 2.5v2.63c0 .327-.063.65-.188.952l-3.868 9.394a1.25 1.25 0 0 1-1.156.774H1.5A1.25 1.25 0 0 1 .25 25V12.5a1.25 1.25 0 0 1 1.25-1.25h4.353a1.248 1.248 0 0 0 1.02-.529l6.817-9.659a.625.625 0 0 1 .79-.198l2.267 1.134a3.125 3.125 0 0 1 1.632 3.566L17.25 10Zm-9.5 3.235V23.75H21.7l3.55-8.62V12.5h-8a2.501 2.501 0 0 1-2.422-3.116l1.128-4.435a.624.624 0 0 0-.326-.714l-.826-.413-5.888 8.34a3.77 3.77 0 0 1-1.166 1.073Zm-2.5.515h-2.5v10h2.5v-10Z" fill="#696FE6"/></svg>