<svg width="26" height="26" fill="none" xmlns="http://www.w3.org/2000/svg"><path d="m17.746.3 7.934 7.932a.624.624 0 0 1-.347 1.06l-1.842.288-7.07-7.07.265-1.857A.624.624 0 0 1 17.746.3ZM2.745 24.187c4.652-4.164 9.993-5.41 15.803-6.9l.558-5.022-5.371-5.372-5.023.558c-1.49 5.81-2.736 11.15-6.9 15.804L.068 21.512c3.535-4.125 4.863-8.691 6.63-16.351l7.954-.884 7.071 7.071-.883 7.955c-7.66 1.768-12.228 3.094-16.352 6.63l-1.743-1.746ZM9.35 16.65a2.5 2.5 0 1 1 3.535-3.535A2.5 2.5 0 0 1 9.35 16.65H9.35Z" fill="#696FE6"/></svg>